<?xml version="1.0"?>
<svg xmlns="http://www.w3.org/2000/svg" xmlnsXlink="http://www.w3.org/1999/xlink" xmlnsSvgjs="http://svgjs.com/svgjs" version="1.1" width="512" height="512" x="0" y="0" viewBox="0 0 64 64" style="enable-background:new 0 0 512 512" xmlSpace="preserve"><g><path xmlns="http://www.w3.org/2000/svg" d="m57.579 42.258c1.464-1.284 2.395-3.163 2.395-5.258 0-3.859-3.14-7-7-7s-7 3.141-7 7c0 2.057.897 3.904 2.315 5.186-1.118.253-2.2.775-3.363 1.616-.324.234-.708.445-1.175.646l-4.751 2.036v-3.484c0-.553-.448-1-1-1h-12c-.552 0-1 .447-1 1v3.483l-4.752-2.037c-.466-.199-.85-.41-1.174-.644-1.163-.843-2.25-1.359-3.368-1.612 1.421-1.282 2.32-3.131 2.32-5.191 0-3.859-3.14-7-7-7s-7 3.141-7 7c0 2.096.931 3.974 2.395 5.259-2.555.65-4.335 2.792-4.421 5.582v13.16c0 .553.448 1 1 1h14.99c.552 0 1-.447 1-1v-9.316l6.01 2.033v5.283c0 .553.448 1 1 1h12c.552 0 1-.447 1-1v-5.283l6.01-2.034v9.317c0 .553.448 1 1 1h14.99c.552 0 1-.447 1-1v-13.191c-.086-2.764-1.866-4.902-4.421-5.551zm-46.553-10.258c2.404 0 4.415 1.706 4.891 3.971-.143.013-.285.029-.431.029-1.396 0-2.752-.609-3.721-1.673-.379-.416-1.1-.416-1.479 0-.968 1.064-2.324 1.673-3.72 1.673-.146 0-.288-.016-.431-.029.476-2.265 2.487-3.971 4.891-3.971zm-4.902 5.968c1.727.101 3.53-.457 4.902-1.59 1.259 1.04 2.838 1.622 4.46 1.622.149 0 .294-.02.442-.03-.454 2.294-2.477 4.03-4.902 4.03s-4.45-1.737-4.902-4.032zm5.848 11.909-.972 2.431-.972-2.431.836-5.851.273-.002zm13.028 1.729-6.69-2.264c-.304-.102-.64-.053-.903.135-.262.188-.417.49-.417.812v9.711h-12.99v-12.129c.07-2.269 1.693-3.804 4.039-3.821l.802-.007-.831 5.815c-.025.174-.004.351.061.513l2 5c.153.38.52.629.929.629s.776-.249.929-.629l2-5c.065-.162.086-.339.061-.513l-.836-5.851.882-.007h.031c1.31 0 2.459.427 3.834 1.423.445.322.956.604 1.56.862l5.539 2.374zm12 6.394h-10v-14h10zm15.974-26c2.404 0 4.415 1.706 4.891 3.971-.143.013-.285.029-.431.029-1.396 0-2.752-.609-3.721-1.673-.379-.416-1.1-.416-1.479 0-.967 1.064-2.323 1.673-3.72 1.673-.146 0-.288-.016-.431-.029.476-2.265 2.487-3.971 4.891-3.971zm-4.902 5.968c1.727.101 3.529-.457 4.902-1.59 1.259 1.04 2.838 1.622 4.46 1.622.149 0 .294-.02.442-.03-.453 2.294-2.477 4.03-4.902 4.03s-4.449-1.737-4.902-4.032zm5.9 11.909-.972 2.431-.972-2.431.836-5.853.273.002zm6.028 10.123h-12.99v-9.71c0-.322-.155-.625-.417-.812-.262-.188-.599-.236-.903-.135l-6.69 2.263v-2.947l5.539-2.374c.604-.258 1.115-.54 1.561-.863 1.375-.995 2.524-1.422 3.83-1.422h.031l.885.007-.836 5.851c-.025.174-.004.351.061.513l2 5c.153.38.52.629.929.629s.776-.249.929-.629l2-5c.065-.162.086-.339.061-.513l-.831-5.815.803.007c2.345.018 3.968 1.553 4.038 3.79z" fill="#fb4848" data-original="#000000" style=""/><path xmlns="http://www.w3.org/2000/svg" d="m30 46h4v2h-4z" fill="#fb4848" data-original="#000000" style=""/><path xmlns="http://www.w3.org/2000/svg" d="m29 50h6v2h-6z" fill="#fb4848" data-original="#000000" style=""/><path xmlns="http://www.w3.org/2000/svg" d="m29 54h6v2h-6z" fill="#fb4848" data-original="#000000" style=""/><path xmlns="http://www.w3.org/2000/svg" d="m32 9c-4.962 0-9 4.037-9 9s4.038 9 9 9 9-4.037 9-9-4.038-9-9-9zm0 16c-3.86 0-7-3.141-7-7s3.14-7 7-7 7 3.141 7 7-3.14 7-7 7z" fill="#fb4848" data-original="#000000" style=""/><path xmlns="http://www.w3.org/2000/svg" d="m45.037 8.743c-1.043-1.465-2.314-2.737-3.78-3.779-.296-.211-.682-.244-1.008-.089l-2.476 1.175c-.455-.22-.922-.414-1.396-.58l-.922-2.784c-.135-.41-.518-.686-.949-.686h-5.012c-.431 0-.814.276-.949.686l-.937 2.829-1.339.555-2.516-1.195c-.328-.154-.712-.121-1.009.089-1.466 1.042-2.738 2.313-3.781 3.779-.21.296-.244.682-.088 1.009l1.195 2.518-.556 1.339-2.829.937c-.409.135-.685.516-.685.948v5.012c0 .432.276.813.686.949l2.829.937.556 1.339-1.195 2.517c-.155.327-.122.713.088 1.008 1.042 1.466 2.314 2.738 3.78 3.781.295.21.681.243 1.008.089l2.517-1.195 1.339.556.937 2.829c.135.408.518.684.949.684h5.012c.431 0 .814-.276.949-.686l.922-2.784c.474-.166.941-.36 1.396-.58l2.475 1.175c.327.155.713.122 1.008-.089 1.466-1.042 2.737-2.314 3.78-3.779.21-.296.244-.682.088-1.009l-1.175-2.476c.221-.454.415-.922.581-1.396l2.784-.922c.41-.135.686-.516.686-.948v-5.012c0-.432-.276-.813-.686-.949l-2.784-.922c-.166-.474-.36-.941-.581-1.396l1.175-2.476c.156-.326.123-.712-.087-1.008zm.963 7.474v3.566l-2.577.854c-.308.102-.547.347-.642.657-.208.684-.487 1.354-.828 1.993-.149.279-.157.613-.021.899l1.128 2.377c-.725.935-1.562 1.772-2.498 2.497l-2.376-1.128c-.286-.137-.62-.128-.898.021-.64.341-1.311.619-1.995.828-.31.095-.555.334-.657.642l-.852 2.577h-3.567l-.853-2.577c-.091-.275-.298-.498-.566-.609l-2.172-.901c-.262-.107-.557-.101-.812.021l-2.376 1.128c-.936-.726-1.773-1.562-2.498-2.498l1.128-2.376c.122-.256.129-.551.02-.812l-.902-2.172c-.111-.268-.333-.475-.609-.565l-2.577-.856v-3.566l2.577-.854c.275-.091.498-.298.609-.565l.902-2.172c.109-.262.102-.557-.02-.812l-1.128-2.377c.725-.936 1.562-1.772 2.498-2.497l2.375 1.128c.256.122.551.129.812.021l2.172-.901c.268-.111.475-.334.566-.609l.853-2.579h3.567l.853 2.577c.102.308.347.547.657.642.684.209 1.354.487 1.995.828.279.148.612.156.898.021l2.376-1.128c.936.725 1.772 1.562 2.498 2.497l-1.128 2.377c-.136.286-.128.62.021.899.341.639.619 1.31.828 1.993.095.311.334.556.642.657z" fill="#fb4848" data-original="#000000" style=""/><path xmlns="http://www.w3.org/2000/svg" d="m32 15c.551 0 1 .448 1 1h2c0-1.302-.839-2.402-2-2.816v-1.184h-2v1.184c-1.161.414-2 1.514-2 2.816 0 1.654 1.346 3 3 3 .551 0 1 .448 1 1s-.449 1-1 1-1-.448-1-1h-2c0 1.302.839 2.402 2 2.816v1.184h2v-1.184c1.161-.414 2-1.514 2-2.816 0-1.654-1.346-3-3-3-.551 0-1-.448-1-1s.449-1 1-1z" fill="#fb4848" data-original="#000000" style=""/></g></svg>
