<?xml version="1.0" encoding="UTF-8"?>
<!DOCTYPE svg PUBLIC "-//W3C//DTD SVG 1.1//EN" "http://www.w3.org/Graphics/SVG/1.1/DTD/svg11.dtd">
<!-- Creator: CorelDRAW 2021 (64-Bit Evaluation Version) -->
<svg xmlns="http://www.w3.org/2000/svg" xmlSpace="preserve" width="49.5286mm" height="29.6394mm" version="1.1" shape-rendering="geometricPrecision" text-rendering="geometricPrecision" image-rendering="optimizeQuality" fill-rule="evenodd" clip-rule="evenodd"
viewBox="0 0 1687.15 1009.64"
 xmlnsXlink="http://www.w3.org/1999/xlink"
 xmlnsXodm="http://www.corel.com/coreldraw/odm/2003">
 <defs>
    <radialGradient id="id0" gradientUnits="userSpaceOnUse" gradientTransform="matrix(1 -0 -0 0.900795 0 49)" cx="843.57" cy="490.09" r="994.11" fx="843.57" fy="490.09">
     <stop offset="0" stop-opacity="1" stop-color="#D4D60F"/>
     <stop offset="1" stop-opacity="1" stop-color="#4C8F25"/>
    </radialGradient>
 </defs>
 <g id="Layer_x0020_1">
  <metadata id="CorelCorpID_0Corel-Layer"/>
  <g id="_2125368565536">
   <path fill="url(#id0)" fill-rule="nonzero" stroke="#E6D045" stroke-width="48.07" stroke-miterlimit="22.9256" d="M1546.92 500.82l-231.4 -444.94c-10.25,-19.72 -29.19,-31.85 -49.67,-31.85l-844.52 0c-20.49,0 -39.44,12.13 -49.68,31.85l-231.41 444.94c-10.27,19.7 -10.27,43.98 0,63.69l231.41 359.77c10.24,19.72 29.18,31.85 49.68,31.85l844.52 0c20.49,0 39.42,-12.13 49.67,-31.85l231.4 -359.77c10.26,-19.72 10.26,-43.98 0,-63.69z"/>
   <path fill="#306E19" fill-rule="nonzero" stroke="#E6D045" stroke-width="24.04" stroke-miterlimit="22.9256" d="M1659.51 997.62l-1631.86 0c-10.13,0 -17.57,-5.08 -15.18,-10.34l59.04 -129.43c0.59,-1.3 0.59,-2.66 0,-3.97l-59.04 -129.44c-2.4,-5.26 5.05,-10.34 15.18,-10.34l1631.86 0c10.13,0 17.58,5.08 15.18,10.34l-59.04 129.44c-0.6,1.3 -0.6,2.66 0,3.97l59.04 129.43c2.4,5.27 -5.05,10.34 -15.18,10.34z"/>
   <path fill="#FEFEFE" fill-rule="nonzero" d="M770.92 610.03l150.46 0 -165.9 -455.25 -164.61 0 -166.54 455.25 149.82 0 22.51 -68.8 151.75 0 22.51 68.8zm-57.23 -176.19l-82.31 0 41.15 -126.67 41.15 126.67zm316.36 -206.41l0 99.02 -95.81 0 0 130.53 95.81 0 0 98.38 136.97 0 0 -98.38 95.81 0 0 -130.53 -95.81 0 0 -99.02 -136.97 0z"/>
   <line fill="none" fill-rule="nonzero" stroke="#306E19" stroke-width="36.05" stroke-linecap="round" stroke-linejoin="round" stroke-miterlimit="10" x1="1548.6" y1="295.43" x2="1586.73" y2= "371.43" />
   <line fill="none" fill-rule="nonzero" stroke="#306E19" stroke-width="36.05" stroke-linecap="round" stroke-linejoin="round" stroke-miterlimit="10" x1="1414.09" y1="27.35" x2="1519.23" y2= "236.89" />
   <path fill="#FEFEFE" fill-rule="nonzero" d="M252.77 906.55l-34.03 -44.7 0 44.7 -24.66 0 0 -101.23 24.66 0 0 44.42 33.74 -44.42 28.98 0 -39.22 49.61 40.67 51.62 -30.14 0zm66.05 -101.23l0 60.57c0,6.06 1.49,10.72 4.47,13.99 2.98,3.27 7.35,4.91 13.12,4.91 5.77,0 10.19,-1.64 13.27,-4.91 3.08,-3.27 4.62,-7.93 4.62,-13.99l0 -60.57 24.66 0 0 60.42c0,9.04 -1.92,16.68 -5.77,22.93 -3.85,6.25 -9.01,10.96 -15.5,14.13 -6.49,3.17 -13.72,4.76 -21.7,4.76 -7.98,0 -15.12,-1.56 -21.41,-4.68 -6.3,-3.13 -11.27,-7.84 -14.93,-14.13 -3.65,-6.3 -5.48,-13.96 -5.48,-23l0 -60.42 24.66 0zm216.74 0l-26.39 101.23 -29.85 0 -16.15 -66.62 -16.73 66.62 -29.85 0 -25.67 -101.23 26.39 0 14.57 73.69 18.03 -73.69 27.11 0 17.3 73.69 14.71 -73.69 26.53 0zm99.21 0l-35.04 67.78 0 33.45 -24.66 0 0 -33.45 -35.04 -67.78 27.98 0 19.61 42.4 19.47 -42.4 27.69 0zm36.34 50.47c0,-10 2.16,-18.92 6.49,-26.75 4.33,-7.83 10.36,-13.94 18.1,-18.31 7.74,-4.37 16.51,-6.56 26.32,-6.56 12.01,0 22.3,3.17 30.86,9.52 8.56,6.34 14.28,15 17.16,25.95l-27.11 0c-2.02,-4.23 -4.88,-7.45 -8.58,-9.66 -3.7,-2.21 -7.91,-3.31 -12.62,-3.31 -7.6,0 -13.75,2.64 -18.46,7.93 -4.71,5.29 -7.06,12.35 -7.06,21.2 0,8.84 2.35,15.91 7.06,21.2 4.71,5.29 10.86,7.93 18.46,7.93 4.71,0 8.91,-1.11 12.62,-3.32 3.7,-2.21 6.56,-5.43 8.58,-9.66l27.11 0c-2.88,10.96 -8.6,19.59 -17.16,25.89 -8.56,6.3 -18.84,9.45 -30.86,9.45 -9.81,0 -18.58,-2.19 -26.32,-6.56 -7.74,-4.38 -13.77,-10.46 -18.1,-18.24 -4.33,-7.79 -6.49,-16.68 -6.49,-26.68zm177.08 32.88l-37.78 0 -6.06 17.88 -25.81 0 36.63 -101.23 28.55 0 36.63 101.23 -26.1 0 -6.06 -17.88zm-6.34 -19.04l-12.55 -37.06 -12.4 37.06 24.95 0zm101.23 36.92l-21.06 -38.21 -5.91 0 0 38.21 -24.66 0 0 -101.23 41.38 0c7.98,0 14.78,1.39 20.4,4.18 5.62,2.79 9.83,6.61 12.62,11.46 2.79,4.86 4.18,10.26 4.18,16.22 0,6.73 -1.9,12.74 -5.7,18.02 -3.8,5.29 -9.4,9.04 -16.8,11.25l23.36 40.09 -27.83 0zm-26.97 -55.66l15.28 0c4.52,0 7.91,-1.1 10.16,-3.31 2.26,-2.21 3.39,-5.34 3.39,-9.37 0,-3.85 -1.13,-6.87 -3.39,-9.08 -2.26,-2.21 -5.65,-3.31 -10.16,-3.31l-15.28 0 0 25.09zm167.13 -13.55c-1.83,-3.37 -4.45,-5.94 -7.86,-7.72 -3.41,-1.78 -7.43,-2.67 -12.04,-2.67 -7.98,0 -14.37,2.62 -19.18,7.86 -4.81,5.24 -7.21,12.24 -7.21,20.98 0,9.32 2.52,16.61 7.57,21.85 5.05,5.24 11.99,7.86 20.84,7.86 6.06,0 11.17,-1.54 15.36,-4.61 4.18,-3.08 7.24,-7.5 9.16,-13.27l-31.29 0 0 -18.17 53.64 0 0 22.93c-1.83,6.15 -4.93,11.87 -9.3,17.16 -4.37,5.29 -9.93,9.57 -16.65,12.83 -6.73,3.27 -14.32,4.91 -22.79,4.91 -10,0 -18.91,-2.19 -26.75,-6.56 -7.83,-4.38 -13.94,-10.46 -18.31,-18.24 -4.37,-7.79 -6.56,-16.68 -6.56,-26.68 0,-10 2.19,-18.92 6.56,-26.75 4.37,-7.83 10.45,-13.94 18.24,-18.31 7.79,-4.37 16.68,-6.56 26.68,-6.56 12.11,0 22.33,2.93 30.64,8.8 8.32,5.86 13.82,13.99 16.51,24.37l-27.25 0zm94.31 69.22l-21.06 -38.21 -5.91 0 0 38.21 -24.66 0 0 -101.23 41.38 0c7.98,0 14.78,1.39 20.4,4.18 5.62,2.79 9.83,6.61 12.62,11.46 2.79,4.86 4.18,10.26 4.18,16.22 0,6.73 -1.9,12.74 -5.7,18.02 -3.8,5.29 -9.4,9.04 -16.8,11.25l23.36 40.09 -27.83 0zm-26.97 -55.66l15.28 0c4.52,0 7.91,-1.1 10.16,-3.31 2.26,-2.21 3.39,-5.34 3.39,-9.37 0,-3.85 -1.13,-6.87 -3.39,-9.08 -2.26,-2.21 -5.65,-3.31 -10.16,-3.31l-15.28 0 0 25.09zm132.38 37.78l-37.78 0 -6.06 17.88 -25.81 0 36.63 -101.23 28.55 0 36.63 101.23 -26.1 0 -6.06 -17.88zm-6.34 -19.04l-12.55 -37.06 -12.4 37.06 24.95 0zm87.53 -64.32c10.67,0 20,2.12 27.98,6.35 7.98,4.23 14.16,10.16 18.53,17.81 4.37,7.64 6.56,16.46 6.56,26.46 0,9.9 -2.19,18.7 -6.56,26.39 -4.37,7.69 -10.58,13.65 -18.6,17.88 -8.03,4.23 -17.33,6.35 -27.91,6.35l-37.92 0 0 -101.23 37.92 0zm-1.58 79.89c9.32,0 16.58,-2.55 21.77,-7.64 5.19,-5.1 7.79,-12.3 7.79,-21.63 0,-9.32 -2.6,-16.58 -7.79,-21.77 -5.19,-5.19 -12.45,-7.79 -21.77,-7.79l-11.68 0 0 58.84 11.68 0zm93.16 -60.13l0 20.48 33.02 0 0 19.04 -33.02 0 0 22.21 37.35 0 0 19.76 -62.01 0 0 -101.23 62.01 0 0 19.76 -37.35 0z"/>
  </g>
 </g>
</svg>
