<svg xmlns="http://www.w3.org/2000/svg" width="356.66" height="299.24" viewBox="0 0 356.66 299.24"><path d="M244.84,293.92v-22.4a7.5,7.5,0,0,1,7.5-7.5h106a7.5,7.5,0,0,1,7.5,7.5v22.41Zm0,0" transform="translate(-127 -247)" fill="#c5d3dd"/><path d="M390.81,293.92l9.07-18.16h29.89l9.08,18.16Zm0,0" transform="translate(-127 -247)" fill="#4eafe5"/><path d="M171.81,293.92l9.07-18.16h29.89l9.08,18.16Zm0,0" transform="translate(-127 -247)" fill="#fc2929"/><rect x="53.88" y="5.25" width="29.9" height="23.51" fill="#ff4d4d"/><rect x="14.53" y="80.99" width="327.59" height="213" fill="#6e6e6e"/><path d="M385.32,434.49a80,80,0,1,1-23.43-56.56,80,80,0,0,1,23.43,56.56Zm0,0" transform="translate(-127 -247)" fill="#d9e7ec"/><rect x="272.88" y="5.25" width="29.89" height="23.51" fill="#5ecef4"/><path d="M341.19,424.4h-33.8l9.89-46-47.81,66.18h33.8l-9.89,46Zm0,0" transform="translate(-127 -247)" fill="#ffd400"/><rect x="5.25" y="46.92" width="346.16" height="34.07" fill="#d9e7ec"/><path d="M264.79,447a5.27,5.27,0,0,0,4.68,2.86h27.3l-8.53,39.63a5.26,5.26,0,0,0,9.4,4.18l47.81-66.18a5.25,5.25,0,0,0-4.26-8.32h-27.3l8.52-39.63a5.25,5.25,0,0,0-9.39-4.18l-47.81,66.17a5.26,5.26,0,0,0-.42,5.47Zm42.1-45.22-4.63,21.54a5.24,5.24,0,0,0,5.13,6.35h23.53l-27.15,37.58,4.63-21.54a5.25,5.25,0,0,0-5.13-6.35H279.74Zm0,0" transform="translate(-127 -247)"/><path d="M220.09,434.49a85.23,85.23,0,1,0,85.24-85.23,85.23,85.23,0,0,0-85.24,85.23Zm160,0a74.74,74.74,0,1,1-74.73-74.73,74.75,74.75,0,0,1,74.73,74.73Zm0,0" transform="translate(-127 -247)"/><path d="M478.41,288.67H442.09L435,274.52V252.25a5.24,5.24,0,0,0-5.25-5.25H399.88a5.25,5.25,0,0,0-5.25,5.25v22.27l-7.07,14.15h-16.5V271.52a12.76,12.76,0,0,0-12.75-12.75H296.89c-7,0-7,10.5,0,10.5h61.42a2.26,2.26,0,0,1,2.25,2.25v17.16H250.1V271.52a2.25,2.25,0,0,1,2.25-2.25H268.8c7,0,7-10.5,0-10.5H252.35a12.76,12.76,0,0,0-12.75,12.75v17.16H223.1L216,274.52V252.25a5.24,5.24,0,0,0-5.25-5.25H180.88a5.25,5.25,0,0,0-5.25,5.25v22.27l-7.07,14.15H132.25a5.24,5.24,0,0,0-5.25,5.25V328a5.24,5.24,0,0,0,5.25,5.25h4V541a5.25,5.25,0,0,0,5.25,5.25h327.6a5.25,5.25,0,0,0,5.25-5.25v-51.1c0-7-10.5-7-10.5,0v45.85H146.78V333.24h317.1v86.48c0,7,10.5,7,10.5,0V333.24h4a5.24,5.24,0,0,0,5.25-5.25V293.92a5.24,5.24,0,0,0-5.25-5.25ZM424.52,257.5v13H405.13v-13ZM403.13,281h23.4l3.82,7.66H399.3ZM205.52,257.5v13H186.13v-13ZM184.13,281h23.4l3.82,7.66h-31ZM137.5,299.17H473.16v23.57H137.5Zm0,0" transform="translate(-127 -247)"/><path d="M469.13,443.42a5.25,5.25,0,0,0-5.25,5.25v13.5c0,7,10.5,7,10.5,0v-13.5a5.25,5.25,0,0,0-5.25-5.25Zm0,0" transform="translate(-127 -247)"/></svg>