<svg xmlns="http://www.w3.org/2000/svg" width="512" height="512" viewBox="0 0 512 512"><path d="M90.69,268.39v.06H32.28C32.31,398.82,138,504.5,268.39,504.5S504.5,398.79,504.5,268.39,398.79,32.28,268.39,32.28V90.69A177.7,177.7,0,0,0,90.69,268.39Z" fill="#d2e7f8"/><path d="M302.5,94V34.74a236.83,236.83,0,0,0-34.11-2.46V90.69c-1.38,0-2.76,0-4.13,0l-1.22,0-3,.11-1.21.06c-1.36.07-2.72.16-4.08.26q-4.5.35-9,.91c-1.48.19-2.95.39-4.43.62-1.32.2-2.64.42-3.95.65l-1.16.21-2.92.56-1.15.23c-1.3.27-2.6.55-3.89.85s-2.57.62-3.85.94l-1.13.3c-1,.24-1.89.5-2.83.76l-1.12.32c-1.27.36-2.52.73-3.78,1.12s-2.77.88-4.15,1.35-2.74,1-4.1,1.44q-4.08,1.5-8.07,3.19h0c-1.51.64-3,1.31-4.5,2-.47.21-.94.44-1.41.66-1,.48-2.07,1-3.1,1.48l-1.55.77c-1,.51-2,1-3,1.57l-1.36.72c-1.44.78-2.87,1.56-4.28,2.38h0c-.78.45-1.55.92-2.32,1.38-.93.55-1.86,1.11-2.77,1.68-.75.46-1.5.92-2.24,1.4s-1.19.78-1.79,1.17A179.56,179.56,0,0,0,151,135l-1.06.94q-4.23,3.79-8.23,7.85l-1,1q-3.47,3.57-6.73,7.33c-.88,1-1.74,2-2.59,3.07l-.83,1-1.71,2.12c-.32.4-.63.81-.95,1.22-.51.66-1,1.31-1.51,2l-1,1.3-1.44,2-.94,1.33c-.48.68-.95,1.36-1.42,2l-.88,1.28-1.5,2.28-.72,1.1c-.72,1.14-1.43,2.28-2.13,3.43s-1.47,2.45-2.19,3.69a177.41,177.41,0,0,0-12.76,27.35q-.75,2-1.44,4.11-1.4,4.13-2.6,8.34c-.4,1.41-.78,2.82-1.14,4.24a174.78,174.78,0,0,0-3.55,17.35c-.2,1.32-.39,2.65-.56,4L92,246.5c-.12,1-.23,2-.34,3l-.12,1.2c-.27,2.69-.47,5.4-.62,8.12L90.89,260c0,1-.08,2-.11,3.05,0,.4,0,.8,0,1.21,0,1.37,0,2.75,0,4.13v.07H32.28a236.7,236.7,0,0,0,2.28,32.7H93.72A177.71,177.71,0,1,0,302.5,94Z" fill="#9bc9fd"/><path d="M7.5,268.39v.06H90.69v-.06a177.7,177.7,0,0,1,177.7-177.7V7.5C124.3,7.5,7.5,124.3,7.5,268.39Z" fill="#ff3502"/><circle cx="268.39" cy="268.39" r="153.7" fill="#016ef1"/><circle cx="268.39" cy="268.39" r="128.16" fill="#acabb1"/><circle cx="268.39" cy="268.39" r="30.26" fill="#57565c"/><circle cx="188.81" cy="268.39" r="18.3" fill="#57565c"/><circle cx="347.97" cy="268.39" r="18.3" fill="#57565c"/><circle cx="268.39" cy="188.81" r="18.3" fill="#57565c"/><circle cx="268.39" cy="347.97" r="18.3" fill="#57565c"/><path d="M62.26,223.8,47.6,220.64C67.39,128.7,143.23,58,236.32,44.8l2.11,14.85C151.53,72,80.74,138,62.26,223.8Z" fill="#fff"/><path d="M268.39,404.05c74.8,0,135.66-60.86,135.66-135.66S343.19,132.72,268.39,132.72,132.72,193.58,132.72,268.39,193.58,404.05,268.39,404.05Zm0-256.32A120.66,120.66,0,1,1,147.73,268.39,120.79,120.79,0,0,1,268.39,147.73Z"/><path d="M268.39,306.15a37.77,37.77,0,1,0-37.77-37.76A37.8,37.8,0,0,0,268.39,306.15Zm0-60.53a22.77,22.77,0,1,1-22.76,22.77A22.79,22.79,0,0,1,268.39,245.62Z"/><path d="M214.6,268.39a25.8,25.8,0,1,0-25.79,25.8A25.82,25.82,0,0,0,214.6,268.39Zm-36.59,0a10.8,10.8,0,1,1,10.8,10.79A10.81,10.81,0,0,1,178,268.39Z"/><path d="M322.17,268.39a25.8,25.8,0,1,0,25.8-25.8A25.83,25.83,0,0,0,322.17,268.39Zm25.8-10.8a10.8,10.8,0,1,1-10.8,10.8A10.81,10.81,0,0,1,348,257.59Z"/><path d="M268.39,214.6a25.8,25.8,0,1,0-25.8-25.79A25.83,25.83,0,0,0,268.39,214.6Zm0-36.59a10.8,10.8,0,1,1-10.8,10.8A10.8,10.8,0,0,1,268.39,178Z"/><path d="M268.39,322.17a25.8,25.8,0,1,0,25.8,25.8A25.82,25.82,0,0,0,268.39,322.17Zm0,36.59A10.8,10.8,0,1,1,279.18,348,10.81,10.81,0,0,1,268.39,358.76Z"/><path d="M213,230a17.19,17.19,0,1,0-12.16-5A17.1,17.1,0,0,0,213,230Z"/><path d="M323.78,341.2a17.19,17.19,0,1,0-12.15-5A17.07,17.07,0,0,0,323.78,341.2Z"/><path d="M268.39,429.59c88.89,0,161.2-72.31,161.2-161.2s-72.31-161.21-161.2-161.21S107.18,179.5,107.18,268.39,179.5,429.59,268.39,429.59Zm0-307.41c80.62,0,146.2,65.59,146.2,146.21S349,414.59,268.39,414.59,122.18,349,122.18,268.39,187.77,122.18,268.39,122.18Z"/><path d="M324,230.18a17.19,17.19,0,1,0-12.15-5A17.08,17.08,0,0,0,324,230.18Z"/><path d="M212.76,306.59a17.19,17.19,0,1,0,12.16,5A17.07,17.07,0,0,0,212.76,306.59Z"/><path d="M446.77,206.09l-10,11.2c21.56,19.21,37.23,64.11,26.12,106l14.5,3.84C488.87,283.9,475.7,231.87,446.77,206.09Z"/><path d="M213.55,463l-3.84,14.5a127.51,127.51,0,0,0,32.6,4.12c34.38,0,68.93-12.87,88.43-34.76l-11.2-10C300.33,458.41,255.43,474.07,213.55,463Z"/><path d="M88.6,388.57a138.16,138.16,0,0,0,12.84,14.51L112,392.37a123.33,123.33,0,0,1-11.45-12.93Z"/><path d="M116,415.51a127.38,127.38,0,0,0,17.79,11l6.78-13.38a113,113,0,0,1-15.68-9.67Z"/><path d="M153.35,434.26A107.33,107.33,0,0,0,173,438.12l1.48-14.93a91.76,91.76,0,0,1-16.91-3.32Z"/><path d="M448.18,148.21a138.38,138.38,0,0,0-12.85-14.51l-10.5,10.71a124.48,124.48,0,0,1,11.45,12.93Z"/><path d="M420.73,121.26a126.73,126.73,0,0,0-17.79-11l-6.78,13.38a112.14,112.14,0,0,1,15.69,9.67Z"/><path d="M383.42,102.52a106.2,106.2,0,0,0-19.68-3.87l-1.47,14.93a91.85,91.85,0,0,1,16.9,3.33Z"/><path d="M379.43,436.28l9.14,11.9a139.4,139.4,0,0,0,14.51-12.85l-10.71-10.5A123.57,123.57,0,0,1,379.43,436.28Z"/><path d="M403.43,411.85l12.08,8.88a126.8,126.8,0,0,0,11-17.79l-13.38-6.77A113.58,113.58,0,0,1,403.43,411.85Z"/><path d="M419.87,379.17l14.39,4.25a107,107,0,0,0,3.86-19.68l-14.93-1.47A91.82,91.82,0,0,1,419.87,379.17Z"/><path d="M440.65,96.13A241.89,241.89,0,0,0,275.89,24.9V0h-7.5A268.39,268.39,0,0,0,0,268.39V276H24.9a243.61,243.61,0,0,0,415.75,164.7,243.62,243.62,0,0,0,0-344.52ZM15.11,261C19,127.15,127.1,19,260.89,15.11V83.34C164.7,87.19,87.16,164.76,83.34,261H15.11ZM268.39,497C144.87,497,43.9,398.52,39.9,276H59.39C65,298.56,76,318.32,90,330.8l10-11.2C88.91,309.73,80,294.13,74.9,276H98.19v-7.63c0-89.42,69.39-162.94,157.13-169.63q6.46-.5,13.07-.5h7.5V71.72a116.77,116.77,0,0,1,47.33,2.2l3.85-14.5a131.33,131.33,0,0,0-51.18-2.85V39.9C398.49,43.87,497,144.84,497,268.39,497,394.44,394.44,497,268.39,497Z"/></svg>