<?xml version="1.0"?>
<svg xmlns="http://www.w3.org/2000/svg" xmlnsXlink="http://www.w3.org/1999/xlink" xmlnsSvgjs="http://svgjs.com/svgjs" version="1.1" width="512" height="512" x="0" y="0" viewBox="0 0 397.238 397.238" style="enable-background:new 0 0 512 512" xmlSpace="preserve" class=""><g>
<path xmlns="http://www.w3.org/2000/svg" d="M37.844,80.734v125.835c0,4.971,4.029,9,9,9h104.957c4.971,0,9-4.029,9-9V80.734c0-4.971-4.029-9-9-9H46.844  C41.873,71.734,37.844,75.764,37.844,80.734z M55.844,89.734h86.957v107.835H55.844V89.734z M126.693,116.811c0,4.971-4.029,9-9,9  H80.949c-4.971,0-9-4.029-9-9s4.029-9,9-9h36.744C122.664,107.811,126.693,111.841,126.693,116.811z M113.955,51.891H18v116.834  c0,4.971-4.029,9-9,9s-9-4.029-9-9V42.891c0-4.971,4.029-9,9-9h104.955c4.971,0,9,4.029,9,9S118.926,51.891,113.955,51.891z   M109.282,146.694c0,4.971-4.029,9-9,9H80.949c-4.971,0-9-4.029-9-9s4.029-9,9-9h19.333  C105.253,137.694,109.282,141.724,109.282,146.694z M165.758,237.567h10.122c4.971,0,9,4.029,9,9s-4.029,9-9,9h-10.122  c-4.971,0-9-4.029-9-9S160.787,237.567,165.758,237.567z M345.696,320.892c0,4.971-4.029,9-9,9s-9.012-4.029-9.012-9  s4.018-9,8.988-9h0.023C341.667,311.892,345.696,315.921,345.696,320.892z M397.167,263.479  c-0.575-25.427-6.374-30.564-27.949-49.678c-2.45-2.171-5.142-4.556-8.097-7.207c-1.967-1.766-3.94-3.65-6.029-5.646  c-3.271-3.126-6.654-6.357-10.402-9.497c-2.896-2.425-5.636-4.733-8.242-6.928c-33.525-28.229-47.401-39.912-82.138-39.912h-62.133  c-4.971,0-9,4.029-9,9s4.029,9,9,9h62.133c28.168,0,37.145,7.559,70.544,35.681c2.617,2.205,5.37,4.522,8.278,6.958  c3.297,2.762,6.463,5.787,9.525,8.713c2.097,2.004,4.266,4.075,6.442,6.028c2.986,2.68,5.706,5.09,8.183,7.283  c4.771,4.228,8.486,7.519,11.381,10.295H240.822c-1.934-0.684-9.032-4.986-22.392-18.276  c-10.607-10.551-17.926-19.529-19.148-21.723c-1.968-4.451-7.138-6.547-11.662-4.68c-4.596,1.895-6.784,7.155-4.89,11.751  c2.576,6.247,16.596,21.081,23.649,28.052c23.147,22.876,30.712,22.876,33.942,22.876h138.456c0.23,2.333,0.318,5.03,0.393,8.317  c0.106,4.686,0.062,14.728,0.028,22.06l-0.023,5.121c-0.019,3.85-0.039,8.243-0.039,13.675c0,1.394-0.672,2.743-1.801,3.887  c-5.274-17.45-21.505-30.192-40.655-30.192c-23.409,0-42.453,19.045-42.453,42.455s19.044,42.456,42.453,42.456  c20.862,0,38.259-15.124,41.802-34.98c10.912-3.545,18.654-12.864,18.654-23.625c0-5.397,0.021-9.764,0.039-13.589l0.023-5.126  C397.234,278.178,397.278,268.409,397.167,263.479z M336.681,345.348c-13.483,0-24.453-10.971-24.453-24.456  c0-13.484,10.97-24.455,24.453-24.455c13.397,0,24.313,10.823,24.459,24.184c-0.003,0.156-0.003,0.313,0.001,0.47  C361.034,334.484,350.103,345.348,336.681,345.348z M265.502,311.891h-51.963c-4.14-19.101-21.174-33.454-41.497-33.454  c-19.176,0-35.424,12.779-40.675,30.268c-0.595-0.592-1.053-1.219-1.36-1.837c-0.346-0.691-0.521-1.406-0.521-2.125v-60.013  c0-4.971-4.029-9-9-9s-9,4.029-9,9v60.013c0,3.536,0.813,6.957,2.412,10.158c3.197,6.42,9.145,11.232,16.354,13.518  c3.563,19.833,20.946,34.93,41.789,34.93c20.324,0,37.359-14.354,41.497-33.457h51.963c4.971,0,9-4.029,9-9  S270.473,311.891,265.502,311.891z M172.042,345.348c-13.44,0-24.384-10.897-24.457-24.32c0.003-0.112,0.003-0.225,0.001-0.336  c0.107-13.393,11.037-24.255,24.456-24.255c13.485,0,24.457,10.971,24.457,24.455C196.499,334.377,185.527,345.348,172.042,345.348z   M87.391,267.734c0,4.971-4.029,9-9,9H32.562c-4.971,0-9-4.029-9-9s4.029-9,9-9h45.829  C83.361,258.734,87.391,262.764,87.391,267.734z M87.391,300.059c0,4.971-4.029,9-9,9H57.894c-4.971,0-9-4.029-9-9s4.029-9,9-9  h20.497C83.361,291.059,87.391,295.088,87.391,300.059z M181.054,320.892c0,4.971-4.029,9-9,9s-9.012-4.029-9.012-9s4.018-9,8.988-9  h0.023C177.024,311.892,181.054,315.921,181.054,320.892z" fill="#fb4848" data-original="#000000" style=""/>
<g xmlns="http://www.w3.org/2000/svg">
</g>
<g xmlns="http://www.w3.org/2000/svg">
</g>
<g xmlns="http://www.w3.org/2000/svg">
</g>
<g xmlns="http://www.w3.org/2000/svg">
</g>
<g xmlns="http://www.w3.org/2000/svg">
</g>
<g xmlns="http://www.w3.org/2000/svg">
</g>
<g xmlns="http://www.w3.org/2000/svg">
</g>
<g xmlns="http://www.w3.org/2000/svg">
</g>
<g xmlns="http://www.w3.org/2000/svg">
</g>
<g xmlns="http://www.w3.org/2000/svg">
</g>
<g xmlns="http://www.w3.org/2000/svg">
</g>
<g xmlns="http://www.w3.org/2000/svg">
</g>
<g xmlns="http://www.w3.org/2000/svg">
</g>
<g xmlns="http://www.w3.org/2000/svg">
</g>
<g xmlns="http://www.w3.org/2000/svg">
</g>
</g></svg>
