<svg xmlns="http://www.w3.org/2000/svg" xmlnsXlink="http://www.w3.org/1999/xlink" width="384" height="328.64" viewBox="0 0 384 328.64"><defs><clipPath id="a" transform="translate(-114 -231.68)"><rect x="114" y="231" width="384" height="330" fill="none"/></clipPath></defs><rect x="138.47" y="226.41" width="115.29" height="85.52" fill="#aaa"/><path d="M246.58,554.73a11.12,11.12,0,0,1-11.13-11.12v-74H257.7v74a11.12,11.12,0,0,1-11.12,11.12Zm0,0" transform="translate(-114 -231.68)" fill="#cbcbcb"/><path d="M286.19,554.73a11.13,11.13,0,0,1-11.13-11.12v-74h22.26v74a11.12,11.12,0,0,1-11.13,11.12Zm0,0" transform="translate(-114 -231.68)" fill="#cbcbcb"/><path d="M325.81,554.73a11.12,11.12,0,0,1-11.13-11.12v-74h22.25v74a11.12,11.12,0,0,1-11.12,11.12Zm0,0" transform="translate(-114 -231.68)" fill="#cbcbcb"/><path d="M365.42,554.73a11.13,11.13,0,0,1-11.13-11.12v-74h22.26v74a11.12,11.12,0,0,1-11.13,11.12Zm0,0" transform="translate(-114 -231.68)" fill="#cbcbcb"/><path d="M343.91,425.53a57.17,57.17,0,1,1,57.17,57.17,57.24,57.24,0,0,1-57.17-57.17Zm22.52,0a34.65,34.65,0,1,0,34.65-34.65,34.68,34.68,0,0,0-34.65,34.65Zm0,0" transform="translate(-114 -231.68)" fill="#cbcbcb"/><path d="M394.53,417.5l-82.29-82.28,61.4-61.4,82.29,82.28Zm0,0" transform="translate(-114 -231.68)" fill="#cbcbcb"/><path d="M325.12,355.38,308.6,338.85l61.4-61.4L386.53,294Zm0,0" transform="translate(-114 -231.68)" fill="#aaa"/><path d="M461.27,376.18,353.5,268.42l36.33-26.79a22.15,22.15,0,0,1,28.81,2.17l67.25,67.25a22.15,22.15,0,0,1,2.16,28.8Zm0,0" transform="translate(-114 -231.68)" fill="#da4a54"/><path d="M381.21,296.13,353.5,268.42l36.33-26.79a22.15,22.15,0,0,1,28.8,2.17l27.71,27.71a22.12,22.12,0,0,0-28.8-2.16Zm0,0" transform="translate(-114 -231.68)" fill="#c32430"/><path d="M210.92,482.7a57.18,57.18,0,1,1,57.17-57.17,57.23,57.23,0,0,1-57.17,57.17Zm0-91.82a34.65,34.65,0,1,0,34.65,34.65,34.68,34.68,0,0,0-34.65-34.65Zm0,0" transform="translate(-114 -231.68)" fill="#cbcbcb"/><path d="M163.23,425.53a57.24,57.24,0,0,1,52.43-57c-1.56-.13-3.14-.2-4.74-.2a57.18,57.18,0,0,0,0,114.35c1.6,0,3.18-.07,4.74-.19a57.26,57.26,0,0,1-52.43-57Zm0,0" transform="translate(-114 -231.68)" fill="#aaa"/><path d="M156.06,356.05l82.28-82.28,61.4,61.4-82.28,82.29Zm0,0" transform="translate(-114 -231.68)" fill="#cbcbcb"/><path d="M156.05,356.05l16.53-16.53,61.4,61.4-16.53,16.53Zm0,0" transform="translate(-114 -231.68)" fill="#aaa"/><polyline points="208.15 93.56 175.85 93.56 93.55 175.86 121.45 262.48 262.55 262.48 290.45 175.86" fill="#e2dfe2"/><path d="M215.25,366.75a10.91,10.91,0,0,1-15.43,0L180,346.92l15.43-15.43,19.82,19.83a10.89,10.89,0,0,1,0,15.43Zm0,0" transform="translate(-114 -231.68)" fill="#818181"/><path d="M249.05,333a10.91,10.91,0,0,1-15.43,0L213.8,313.12l15.43-15.43,19.82,19.83a10.89,10.89,0,0,1,0,15.43Zm0,0" transform="translate(-114 -231.68)" fill="#818181"/><path d="M258.5,268.42,150.73,376.18l-26.79-36.33a22.14,22.14,0,0,1,2.17-28.8l67.25-67.25a22.14,22.14,0,0,1,28.8-2.16Zm0,0" transform="translate(-114 -231.68)" fill="#da4a54"/><path d="M178.44,348.48l-27.71,27.7-26.79-36.32a22.15,22.15,0,0,1,2.17-28.81l27.71-27.7a22.13,22.13,0,0,0-2.16,28.8Zm0,0" transform="translate(-114 -231.68)" fill="#c32430"/><path d="M396.74,366.75a10.92,10.92,0,0,0,15.44,0L432,346.92l-15.43-15.43-19.83,19.83a10.91,10.91,0,0,0,0,15.43Zm0,0" transform="translate(-114 -231.68)" fill="#818181"/><path d="M363,333a10.91,10.91,0,0,0,15.43,0l19.82-19.83-15.43-15.43L363,317.52A10.89,10.89,0,0,0,363,333Zm0,0" transform="translate(-114 -231.68)" fill="#818181"/><path d="M332.21,397.44A26.21,26.21,0,1,1,306,371.23a26.2,26.2,0,0,1,26.21,26.21Zm0,0" transform="translate(-114 -231.68)" fill="#818181"/><path d="M411.86,458.85a35.31,35.31,0,1,1-35.31-35.31,35.31,35.31,0,0,1,35.31,35.31Zm0,0" transform="translate(-114 -231.68)" fill="#818181"/><path d="M288.31,478.24A42.34,42.34,0,1,1,246,435.9a42.34,42.34,0,0,1,42.34,42.34Zm0,0" transform="translate(-114 -231.68)" fill="#818181"/><path d="M257.33,478.24A11.36,11.36,0,1,1,246,466.89a11.36,11.36,0,0,1,11.36,11.35Zm0,0" transform="translate(-114 -231.68)" fill="#e2dfe2"/><g clip-path="url(#a)"><path d="M387.9,458.85a11.35,11.35,0,1,1-11.35-11.35,11.35,11.35,0,0,1,11.35,11.35Zm0,0" transform="translate(-114 -231.68)" fill="#e2dfe2"/><path d="M489.82,307.1l-67.24-67.24a27.61,27.61,0,0,0-36.11-2.71l-36.32,26.78a5.67,5.67,0,0,0-2.27,4.11,5.59,5.59,0,0,0,1.64,4.39l8.75,8.75-38.45,38.46H292.18l-38.45-38.46,8.75-8.75a5.62,5.62,0,0,0-.64-8.5l-36.32-26.78a27.59,27.59,0,0,0-36.1,2.72l-10.65,10.65a5.62,5.62,0,0,0,7.95,8l10.65-10.65a16.43,16.43,0,0,1,21.48-1.62l12.08,8.91-93.5,93.51-8.91-12.08a16.45,16.45,0,0,1,1.61-21.49l40.69-40.69a5.62,5.62,0,1,0-7.95-7.95l-40.69,40.68a27.64,27.64,0,0,0-2.72,36.12l26.79,36.32a5.6,5.6,0,0,0,4.1,2.27l.42,0a5.62,5.62,0,0,0,4-1.65l8.75-8.76L170,378a62.73,62.73,0,0,0,28.85,109.17,48.11,48.11,0,0,0,31,36.25v20.2a16.75,16.75,0,0,0,32.53,5.62h8.05a16.74,16.74,0,0,0,31.55,0H310a16.74,16.74,0,0,0,31.55,0h8.05a16.75,16.75,0,0,0,32.53-5.62V499.36A40.8,40.8,0,0,0,405,488.18a62.46,62.46,0,0,0,31.38-10.78,5.62,5.62,0,1,0-6.35-9.28,51.19,51.19,0,0,1-16.11,7.3,40.56,40.56,0,0,0,3.37-13.06,40.25,40.25,0,0,0,8.7-68.44l8-8a51.41,51.41,0,0,1,10.19,67.78,5.63,5.63,0,0,0,1.62,7.79,5.54,5.54,0,0,0,3.08.92,5.6,5.6,0,0,0,4.7-2.53A62.67,62.67,0,0,0,442,378l6.54-6.54,8.75,8.76a5.61,5.61,0,0,0,4,1.64h.41a5.6,5.6,0,0,0,4.11-2.27l26.78-36.32a27.61,27.61,0,0,0-2.71-36.11ZM399.15,359a5.26,5.26,0,0,1,1.55-3.74l15.84-15.84,7.48,7.47-15.85,15.85a5.29,5.29,0,0,1-9-3.74Zm-13.92-50.9,5,5L374.38,329a5.29,5.29,0,0,1-7.48-7.47l15.85-15.84Zm-19-19,8.58,8.57L359,313.56a16.53,16.53,0,0,0,23.38,23.38l15.85-15.85,10.41,10.41-15.85,15.85a16.53,16.53,0,0,0,23.38,23.38L432,354.88l8.57,8.58-36.12,36.12L330.1,325.26ZM342.55,499.75h6.11v38.19h-6.11ZM304,488.51l31.7-31.12c0,.48,0,1,0,1.44a40.79,40.79,0,0,0,12.79,29.68Zm-40.61,34.4a48.06,48.06,0,0,0,6.11-2.89v17.92h-6.11Zm39.6-23.16h6.11v38.19h-6.11Zm-9.22-17c.14-1.5.22-3,.22-4.57a48,48,0,0,0-47.95-48c-1,0-2.06,0-3.08.11l31.35-30.66a31.83,31.83,0,0,0,63.57-2.28c0-.75,0-1.49-.09-2.23L370,418.44a40.89,40.89,0,0,0-22.38,11.46v0ZM194,402l8.6,8.61,10.55,32.73a48.15,48.15,0,0,0-8.48,10.57,29.28,29.28,0,0,1-22.79-28.34A29,29,0,0,1,194,402Zm112-25.09a20.58,20.58,0,1,1-20.58,20.58A20.6,20.6,0,0,1,306,376.86Zm87.88,44.92s-68-49.19-68.78-49.78a31.74,31.74,0,0,0-40.6,2l-62.22,60.82L214,409.08l78.19-78.2h27.64L398,409.08l-4.09,12.72,0,0ZM195.46,339.46,211.3,355.3a5.29,5.29,0,0,1-7.47,7.48L188,346.93Zm-44,28.13-7.24-9.82,95.91-95.91,9.82,7.24ZM180,354.89l15.84,15.84a16.53,16.53,0,1,0,23.38-23.38L203.41,331.5l.13-.12,10.28-10.29,15.85,15.85a16.53,16.53,0,1,0,23.38-23.38L237.2,297.71l8.58-8.57,36.12,36.12-74.32,74.32-36.12-36.12Zm49.22-49.22,15.84,15.84a5.28,5.28,0,1,1-7.47,7.47l-15.84-15.84ZM159.41,425.52a51.57,51.57,0,0,1,18.6-39.6l8,8A40.27,40.27,0,0,0,200.1,464.3a47.71,47.71,0,0,0-2,11.14,51.63,51.63,0,0,1-38.71-49.92Zm49.88,52.7A36.7,36.7,0,1,1,246,514.93a36.75,36.75,0,0,1-36.7-36.71Zm37.3,70.85a5.51,5.51,0,0,1-5.5-5.5V525.92a46.73,46.73,0,0,0,4.9.25,49.37,49.37,0,0,0,6.11-.4v17.8a5.52,5.52,0,0,1-5.51,5.5Zm39.6,0a5.51,5.51,0,0,1-5.5-5.5V511.34l11-10.81v43a5.51,5.51,0,0,1-5.51,5.5Zm39.61,0a5.51,5.51,0,0,1-5.5-5.5V499.75h11v43.82a5.5,5.5,0,0,1-5.5,5.5Zm39.61,0a5.5,5.5,0,0,1-5.5-5.5V499.75h11v43.82a5.51,5.51,0,0,1-5.5,5.5Zm11.12-60.57a29.67,29.67,0,1,1,29.67-29.67,29.7,29.7,0,0,1-29.67,29.67Zm53.54-63a29,29,0,0,1-13.57,24.57,40.93,40.93,0,0,0-12.84-21.86l5.69-17.67L418,402a28.94,28.94,0,0,1,12.11,23.57Zm30.51-57.93L362.09,269.1l9.82-7.24,95.91,95.91Zm22.9-31.06-8.91,12.09-93.5-93.51,12.08-8.91a16.43,16.43,0,0,1,21.48,1.62l67.23,67.23a16.43,16.43,0,0,1,1.62,21.48Zm0,0" transform="translate(-114 -231.68)"/></g><path d="M263,478.22a17,17,0,1,0-17,17,17,17,0,0,0,17-17Zm-22.69,0A5.73,5.73,0,1,1,246,484a5.73,5.73,0,0,1-5.72-5.73Zm0,0" transform="translate(-114 -231.68)"/><path d="M376.53,441.86a17,17,0,1,0,17,17,17,17,0,0,0-17-17Zm0,22.7a5.73,5.73,0,1,1,5.73-5.73,5.74,5.74,0,0,1-5.73,5.73Zm0,0" transform="translate(-114 -231.68)"/></svg>