<svg xmlns="http://www.w3.org/2000/svg" width="319.61" height="512" viewBox="0 0 319.61 512"><circle cx="256" cy="63.61" r="56.11" fill="#00c3ff"/><path d="M368.23,103.69a56.07,56.07,0,0,1-46.86-86.94,56.1,56.1,0,1,0,77.69,77.69A55.81,55.81,0,0,1,368.23,103.69Z" transform="translate(-96.19)" fill="#00aaf0"/><path d="M167.82,151.79h-16a8,8,0,0,0-8,8V232h32.07V159.81A8,8,0,0,0,167.82,151.79Z" transform="translate(-96.19)" fill="#ebc9a0"/><path d="M360.21,151.79h-16a8,8,0,0,0-8,8V232h32.07V159.81A8,8,0,0,0,360.21,151.79Z" transform="translate(-96.19)" fill="#ebc9a0"/><path d="M274.85,362.07l41.78-62.68a20.89,20.89,0,0,0,3.5-11.57V232a8,8,0,0,1,8-8h48.09a8,8,0,0,1,8,8v47.61a112.29,112.29,0,0,1-18.85,62.27L328.2,397.65a48.13,48.13,0,0,0-8.07,26.67V504.5H256V424.34h0A112.27,112.27,0,0,1,274.85,362.07Z" transform="translate(-96.19)" fill="#dbd9dc"/><path d="M237.15,362.07l-41.78-62.68a20.89,20.89,0,0,1-3.5-11.57V232a8,8,0,0,0-8-8H135.76a8,8,0,0,0-8,8v47.61a112.29,112.29,0,0,0,18.85,62.27l37.21,55.82a48.13,48.13,0,0,1,8.07,26.67V504.5H256V424.34h0A112.27,112.27,0,0,0,237.15,362.07Z" transform="translate(-96.19)" fill="#5d5360"/><circle cx="63.62" cy="63.61" r="56.11" fill="#e6646e"/><path d="M191.87,504.5h24V424.32a72.06,72.06,0,0,0-12.11-40L166.6,328.49a88.19,88.19,0,0,1-14.81-48.93V223.94h-16a8,8,0,0,0-8,8v47.61a112.29,112.29,0,0,0,18.85,62.27l37.21,55.82a48.13,48.13,0,0,1,8.07,26.67V504.5Z" transform="translate(-96.19)" fill="#4b3f4e"/><path d="M256,504.5h24.05V424.34a88.25,88.25,0,0,1,14.81-48.94l41.78-62.68a44.93,44.93,0,0,0,7.54-24.9V223.93h-16a8,8,0,0,0-8,8v55.87a20.89,20.89,0,0,1-3.5,11.57l-41.78,62.67A112.32,112.32,0,0,0,256,424.34h0Z" transform="translate(-96.19)" fill="#c9c6ca"/><path d="M175.84,103.69A56.09,56.09,0,0,1,129,16.75a56.1,56.1,0,1,0,77.69,77.69A55.78,55.78,0,0,1,175.84,103.69Z" transform="translate(-96.19)" fill="#dc4655"/><rect x="239.97" y="199.89" width="32.06" height="24.05" fill="#d7b48c"/><rect x="47.58" y="199.89" width="32.06" height="24.05" fill="#d7b48c"/><path d="M256,448.9a7.5,7.5,0,0,0-7.5,7.5v48.1a7.5,7.5,0,0,0,15,0V456.4A7.5,7.5,0,0,0,256,448.9Z" transform="translate(-96.19)"/><path d="M376.24,216.44h-.51V159.81a15.53,15.53,0,0,0-15.52-15.52h-16a15.53,15.53,0,0,0-15.52,15.52v56.63h-.51A15.53,15.53,0,0,0,312.63,232v55.87c0,4.88-.52,5.59-3.42,9.5-.94,1.27-2.11,2.84-3.39,4.77l-37.21,55.82A119.54,119.54,0,0,0,256,382.63a119.54,119.54,0,0,0-12.61-24.72l-37.21-55.82c-1.28-1.93-2.45-3.5-3.38-4.77-2.91-3.91-3.43-4.62-3.43-9.5V232a15.53,15.53,0,0,0-15.52-15.51h-.51V159.81a15.53,15.53,0,0,0-15.52-15.52h-16a15.53,15.53,0,0,0-15.52,15.52v56.63h-.51A15.53,15.53,0,0,0,120.24,232V287.8c0,23.69,6.77,38.18,20.11,58.19l37.21,55.82a40.44,40.44,0,0,1,6.81,22.51V504.5a7.5,7.5,0,0,0,15,0V424.32A55.45,55.45,0,0,0,190,393.49l-37.21-55.82c-11.92-17.88-17.59-29.9-17.59-49.87V232a.52.52,0,0,1,.52-.52h48.1a.52.52,0,0,1,.51.52v55.87c0,9.36,2.42,13.1,6.38,18.43.92,1.25,1.87,2.54,2.95,4.15l37.21,55.83a104.42,104.42,0,0,1,17.59,58.11,7.5,7.5,0,0,0,15,0,104.42,104.42,0,0,1,17.59-58.11L318.3,310.4c1.08-1.61,2-2.9,3-4.15,3.95-5.33,6.37-9.07,6.37-18.43V232a.52.52,0,0,1,.52-.52h48.09a.52.52,0,0,1,.52.52V287.8c0,20-5.67,32-17.59,49.87L322,393.49a55.45,55.45,0,0,0-9.33,30.83V504.5a7.5,7.5,0,0,0,15,0V424.32a40.52,40.52,0,0,1,6.81-22.51L371.65,346c13.34-20,20.11-34.5,20.11-58.19V232A15.53,15.53,0,0,0,376.24,216.44Zm-225-56.63a.52.52,0,0,1,.52-.52h16a.52.52,0,0,1,.52.52v56.63H151.27V159.81Zm192.39,0a.52.52,0,0,1,.52-.52h16a.52.52,0,0,1,.52.52v56.63H343.66Z" transform="translate(-96.19)"/><path d="M223.42,63.61a63.62,63.62,0,1,0-63.61,63.62A63.69,63.69,0,0,0,223.42,63.61Zm-112.23,0a48.62,48.62,0,1,1,48.62,48.62A48.67,48.67,0,0,1,111.19,63.61Z" transform="translate(-96.19)"/><path d="M352.19,0a63.62,63.62,0,1,0,63.62,63.61A63.69,63.69,0,0,0,352.19,0Zm0,112.23a48.62,48.62,0,1,1,48.62-48.62A48.67,48.67,0,0,1,352.19,112.23Z" transform="translate(-96.19)"/><path d="M167.31,87.66V71.11h16.55a7.5,7.5,0,0,0,0-15H167.31V39.56a7.5,7.5,0,0,0-15,0V56.11H135.76a7.5,7.5,0,0,0,0,15h16.55V87.66a7.5,7.5,0,0,0,15,0Z" transform="translate(-96.19)"/><path d="M376.24,56.11H328.15a7.5,7.5,0,0,0,0,15h48.09a7.5,7.5,0,0,0,0-15Z" transform="translate(-96.19)"/></svg>