<?xml version="1.0"?>
<svg xmlns="http://www.w3.org/2000/svg" xmlnsXlink="http://www.w3.org/1999/xlink" xmlnsSvgjs="http://svgjs.com/svgjs" version="1.1" width="512" height="512" x="0" y="0" viewBox="0 0 512 512" style="enable-background:new 0 0 512 512" xmlSpace="preserve" class=""><g><path xmlns="http://www.w3.org/2000/svg" d="m506.144531 241.855469-157.335937-157.332031c0-.003907-.003906-.007813-.007813-.007813l-78.65625-78.660156c-3.753906-3.75-8.839843-5.855469-14.144531-5.855469h-157.332031c-11.046875 0-20 8.953125-20 20v78.667969c0 11.046875 8.953125 20 20 20h109.714843l47.378907 47.375 1.265625 113.664062c.878906 78.933594 60.347656 143.253907 136.308594 152.476563v59.816406c0 11.046875 8.953124 20 20 20h78.664062c11.046875 0 20-8.953125 20-20 0-27.839844 0-216.109375 0-236 0-5.304688-2.105469-10.390625-5.855469-14.144531zm-289.476562-163.1875h-98v-38.667969h129.046875l58.667968 58.667969-30.714843 30.714843-44.859375-44.859374c-3.75-3.75-8.835938-5.855469-14.140625-5.855469zm80.355469 200.59375-1.265626-113.402344 38.910157-38.90625 137.332031 137.332031v129.046875h-58.667969c-.007812 0-.011719.003907-.019531.003907h-.9375c-63.523438 0-114.652344-51.113282-115.351562-114.074219zm136.308593 192.738281v-38.664062h38.667969v38.664062zm-348.808593-308.808594c-3.449219 3.453125-84.523438 85.511719-84.523438 171.476563 0 54.402343 44.261719 98.664062 98.667969 98.664062 54.402343 0 98.667969-44.261719 98.667969-98.664062 0-85.964844-81.074219-168.023438-84.527344-171.476563-7.804688-7.804687-20.476563-7.808594-28.285156 0zm14.144531 230.140625c-32.351563 0-58.667969-26.316406-58.667969-58.664062 0-49.972657 37.488281-101.957031 58.664062-127.339844 21.1875 25.386719 58.667969 77.367187 58.667969 127.339844 0 32.347656-26.316406 58.664062-58.664062 58.664062zm0 0" fill="#fb4848" data-original="#000000" style="" class=""/></g></svg>
