<svg height="512" viewBox="0 0 60 60" width="512" xmlns="http://www.w3.org/2000/svg"><g id="Page-1" fill="none" fill-rule="evenodd"><g id="037---Heated-Steats" transform="translate(-1)"><g id="Icons_copy" transform="translate(2)"><path id="Path" d="m19 53h7v4c0 1.1045695-.8954305 2-2 2h-3c-1.1045695 0-2-.8954305-2-2z" fill="#607d8b"/><path id="Path" d="m23 53v4c0 1.1045695-.8954305 2-2 2h3c1.1045695 0 2-.8954305 2-2v-4z" fill="#37474f"/><path id="Path" d="m46 53h7v4c0 1.1045695-.8954305 2-2 2h-3c-1.1045695 0-2-.8954305-2-2z" fill="#607d8b"/><path id="Path" d="m50 53v4c0 1.1045695-.8954305 2-2 2h3c1.1045695 0 2-.8954305 2-2v-4z" fill="#37474f"/><path id="Path" d="m21 36h30c2.209139 0 4 1.790861 4 4v11c0 1.1045695-.8954305 2-2 2h-34c-1.1045695 0-2-.8954305-2-2v-11c0-2.209139 1.790861-4 4-4z" fill="#f44335"/><path id="Path" d="m51 36h-3c2.209139 0 4 1.790861 4 4v11c0 1.1045695-.8954305 2-2 2h3c1.1045695 0 2-.8954305 2-2v-11c0-2.209139-1.790861-4-4-4z" fill="#c81e1e"/><path id="Path" d="m17 41h8c.3786657.0002022.7247365.2142706.894.553l1 2c.1548588.3099025.1382854.6778792-.0438055.9726057-.1820908.2947265-.5037544.4742093-.8501945.4743943h-9z" fill="#ffdc00"/><path id="Path" d="m26.894 43.553-1-2c-.1692635-.3387294-.5153343-.5527978-.894-.553h-3c.3786657.0002022.7247365.2142706.894.553l1 2c.1548588.3099025.1382854.6778792-.0438055.9726057-.1820908.2947265-.5037544.4742093-.8501945.4743943h3c.3464401-.000185.6681037-.1796678.8501945-.4743943.1820909-.2947265.1986643-.6627032.0438055-.9726057z" fill="#fec108"/><path id="Path" d="m55 41h-8c-.1854298.0000307-.3671992.0516186-.525.149-.1578152.0964109-.285605.2349364-.369.4l-.5 1-.5 1c-.1567656.3102365-.1411856.6796229.0411472.9755568.1823329.2959339.5052584.4759565.8528528.4754432l9 .0000011z" fill="#ffdc00"/><path id="Path" d="m52.001 41v2 2h3v-2-2z" fill="#fec108"/><rect id="Rectangle" fill="#f5f5f5" height="4" rx="1" width="12" x="30" y="45"/><path id="Path" d="m41 45h-3c.5522847 0 1 .4477153 1 1v2c0 .5522847-.4477153 1-1 1h3c.5522847 0 1-.4477153 1-1v-2c0-.5522847-.4477153-1-1-1z" fill="#cfd8dc"/><path id="Path" d="m21 36 1.81-6.78 1.14-4.27.46-1.72c.3460895-1.3127465 1.5323999-2.2281348 2.89-2.23h17.4c1.3576001.0018652 2.5439105.9172535 2.89 2.23l3.41 12.77" fill="#00bcd4"/><path id="Path" d="m47.59 23.23c-.3460895-1.3127465-1.5323999-2.2281348-2.89-2.23h-3c1.3576001.0018652 2.5439105.9172535 2.89 2.23l3.41 12.77h3z" fill="#00838f"/><path id="Path" d="m53 31h5v3c0 1.1045695-.8954305 2-2 2h-3c-1.1045695 0-2-.8954305-2-2v-1c0-1.1045695.8954305-2 2-2z" fill="#f44335" transform="matrix(-1 0 0 -1 109 67)"/><path id="Path" d="m56 31h-3c1.1045695 0 2 .8954305 2 2v1c0 1.1045695-.8954305 2-2 2h3c1.1045695 0 2-.8954305 2-2v-1c0-1.1045695-.8954305-2-2-2z" fill="#c81e1e"/><path id="Path" d="m25.952 14.74-2.426 15.568c-.1517822.9738411-.9904015 1.6919302-1.976 1.692h-19.55c-1.1045695 0-2-.8954305-2-2v-3.6c-.00002561-1.1269799.4753612-2.2016824 1.30924156-2.9597901.83388035-.7581076 1.94887557-1.129273 3.07075844-1.0222099l12.432.972 2.06-9.82c.2187618-1.0302077 1.196966-1.715824 2.24-1.57l3.14.45c.5305097.0752782 1.008816.3597705 1.3282024.7900026.3193863.4302322.4532764.9704046.3717976 1.4999974z" fill="#7f8e94"/><path id="Path" d="m24.253 12.45-3.141-.45c-.4373257-.0607702-.8823968.026906-1.264.249l1.405.2c.5302685.0757892 1.008238.3604072 1.3275249.7905055.319287.4300983.453395.9699847.3724751 1.4994945l-2.427 15.569c-.1517822.9738411-.9904015 1.6919302-1.976 1.692h3c.9855985-.0000698 1.8242178-.7181589 1.976-1.692l2.427-15.568c.0809199-.5295098-.0531881-1.0693962-.3724751-1.4994945-.3192869-.4300983-.7972564-.7147163-1.3275249-.7905055z" fill="#545c60"/><rect id="Rectangle" fill="#7f8e94" height="7.071" rx="2" transform="matrix(.141 -.99 .99 .141 16.142 28.086)" width="7.071" x="20.727" y="1.202"/><path id="Path" d="m26.283 1.455-3.041-.435c-.4378525-.06098264-.883519.02632012-1.266.248l1.307.187c.5254917.07431712.9998982.35445038 1.3187507.77871169.3188524.42426131.4560028.95785853.3812493 1.48328831l-.435 3.041c-.089635.61231797-.4593063 1.1479717-1 1.449l1.734.248c.5254298.07475352 1.059027-.06239688 1.4832883-.38124932.4242613-.31885245.7043946-.793259.7787117-1.31875068l.435-3.041c.1539868-1.09176229-.6046359-2.10221562-1.696-2.259z" fill="#545c60"/></g><g id="Icons" fill="#000"><path id="Shape" d="m43 44h-10c-1.1045695 0-2 .8954305-2 2v2c0 1.1045695.8954305 2 2 2h10c1.1045695 0 2-.8954305 2-2v-2c0-1.1045695-.8954305-2-2-2zm0 4h-10v-2h10z" fill-rule="nonzero"/><path id="Path" d="m36 42h4c.5522847 0 1-.4477153 1-1s-.4477153-1-1-1h-4c-.5522847 0-1 .4477153-1 1s.4477153 1 1 1z"/><path id="Shape" d="m58 30h-3c-.8817233.0031667-1.7168411.3963787-2.281 1.074l-2.162-8.1c-.4644098-1.7500099-2.0464216-2.9698448-3.857-2.974h-17.4c-.4023926.0023552-.802042.066434-1.185.19l.825-5.3c.1216112-.792207-.0782911-1.6001694-.5552684-2.2442765-.4769772-.644107-1.1915009-1.0709796-1.9847316-1.1857235l-.284-.04.374-2.069.656.093c.1410598.0206553.2834359.031016.426.031 1.4893035-.00549061 2.749897-1.10101148 2.963-2.575l.435-3.04c.1127704-.78785473-.0921469-1.58823235-.5696476-2.22496251-.4775007-.63673015-1.1884467-1.05762346-1.9763524-1.17003749l-3.04-.434c-.7877039-.11278667-1.5879474.09199575-2.2246499.56928823-.6367026.47729248-1.0576969 1.18798879-1.1703501 1.97571177l-.434 3.04c-.2342645 1.63996336.9050853 3.15939488 2.545 3.394l.4.058-.374 2.068-.874-.126c-1.5646606-.2182835-3.0319623.8098318-3.361 2.355l-1.879 8.96-3.565-.279c-.162-.51-.342-.969-.521-1.418-.4543683-1.0224893-.7449254-2.1101381-.861-3.223l.1.15c.306518.4595009.9274991.583518 1.387.277.4595009-.3065181.583518-.9274991.277-1.387l-2-3c-.1961648-.2622542-.5044975-.4166681-.832-.4166681s-.6358352.1544139-.832.4166681l-2 3c-.30651804.4595009-.18250091 1.080482.277 1.387s1.080482.1825009 1.387-.277l.216-.324c.0996659 1.428996.4457681 2.8299828 1.023 4.141.067.167.134.335.2.5l-5.794-.453c-.08-.008-.159.006-.239 0-.1-.273-.205-.537-.308-.8-.4543683-1.0224893-.74492544-2.1101381-.861-3.223l.1.15c.1982824.297245.5400812.4661282.8966441.4430331s.6737195-.2346599.832-.555c.15828049-.32034.1336383-.7007881-.0646441-.9980331l-2-3c-.19616482-.2622542-.50449751-.4166681-.832-.4166681s-.63583518.1544139-.832.4166681l-2 3c-.19828241.297245-.22292461.6776931-.06464411.9980331.15828049.3203401.4754371.5319049.83200001.5550001.3565629.0230951.6983617-.1457882.8966441-.4430332l.216-.324c.09966586 1.428996.44576813 2.8299828 1.023 4.141.051.125.1.25.149.375-1.94828255.720126-3.2355086 2.5849637-3.218 4.662v3.6c0 1.6568542 1.34314575 3 3 3h18.767l-.556 2.08c-2.4208925.3843129-4.2049933 2.4688002-4.211 4.92v11c.0052514 1.2667854.8056491 2.3937454 2 2.816v3.184c0 1.6568542 1.3431458 3 3 3h3c1.6568542 0 3-1.3431458 3-3v-3h18v3c0 1.6568542 1.3431458 3 3 3h3c1.6568542 0 3-1.3431458 3-3v-3.184c1.1943509-.4222546 1.9947486-1.5492146 2-2.816v-11c-.0036768-1.0854693-.3641933-2.1396111-1.026-3h1.026c1.6568542 0 3-1.3431458 3-3v-1c0-1.6568542-1.3431458-3-3-3zm-34.275-23.359c-.1603214-.21182355-.2287851-.4791923-.19-.742l.435-3.04c.0701372-.4924593.4915715-.85849776.989-.859.0475134-.00012044.0949724.00322174.142.01l3.04.434c.2625799.03762761.4994514.17804089.6584886.39034066.1590373.21229978.2272083.47908936.1895114.74165934l-.434 3.04c-.077877.54675901-.5842395.92686665-1.131.849l-1.558-.223-.015-.006c-.009 0-.017 0-.025 0l-1.442-.206c-.2625541-.03716407-.4995975-.17708805-.659-.389zm5.575 15.359h17.4c.9038998.00423 1.692609.6142089 1.924 1.488l3.076 11.512h-12.286l6.293-6.293c.3789722-.3923789.3735524-1.0160848-.0121814-1.4018186s-1.0094397-.3911536-1.4018186-.0121814l-7.707 7.707h-6.172l6.293-6.293c.3789722-.3923789.3735524-1.0160848-.0121814-1.4018186s-1.0094397-.3911536-1.4018186-.0121814l-7.707 7.707h-3.286l.626-2.342c.8512369-.4363505 1.4414743-1.2545751 1.587-2.2l1.187-7.63c.3692836-.5170838.9645962-.8251581 1.6-.828zm-26.3 8v-3.6c-.00688003-1.1923398.70279858-2.272234 1.8-2.739.14242031.7713279.20940297 1.5546902.2 2.339 0 .5522847.44771525 1 1 1s1-.4477153 1-1c.00782852-.8528794-.05909411-1.7048044-.2-2.546l6.047.473c.1081259.685593.1593007 1.3789616.153 2.073 0 .5522847.4477153 1 1 1s1-.4477153 1-1c.0024895-.6393457-.0345813-1.2782329-.111-1.913l3.845.3c.5001822.0353148.9504059-.3020336 1.057-.792l2.059-9.816c.1035495-.5198081.5967391-.8669326 1.121-.789l3.139.45c.2675614.0376138.5085155.1818977.668.4.1603955.2140191.2274759.4837829.186.748l-2.426 15.565c-.0754479.4873179-.4948762.8468885-.988.847h-19.55c-.55228475 0-1-.4477153-1-1zm17 12h7l1 2h-8zm7 15c0 .5522847-.4477153 1-1 1h-3c-.5522847 0-1-.4477153-1-1v-3h5zm27 0c0 .5522847-.4477153 1-1 1h-3c-.5522847 0-1-.4477153-1-1v-3h5zm1-5h-34c-.5522847 0-1-.4477153-1-1v-5h8c.6947884.0010227 1.3403254-.3586134 1.7051109-.9499369.3647854-.5913236.396545-1.3295969.0838891-1.9500631l-1-2c-.3383804-.6772667-1.031915-1.1036993-1.789-1.1h-7c0-1.6568542 1.3431458-3 3-3h30c1.6568542 0 3 1.3431458 3 3h-7c-.7563578-.0011125-1.4486394.4245497-1.789 1.1l-1 2c-.3126559.6204662-.2808963 1.3587395.0838891 1.9500631.3647855.5913235 1.0103225.9509596 1.7051109.9499369h8v5c0 .5522847-.4477153 1-1 1zm1-8h-8l1-2h7zm3-10c0 .5522847-.4477153 1-1 1h-4v-2c0-.5522847.4477153-1 1-1h3c.5522847 0 1 .4477153 1 1z" fill-rule="nonzero"/></g></g></g></svg>