<svg xmlns="http://www.w3.org/2000/svg" width="246.26" height="384" viewBox="0 0 246.26 384"><path d="M375.83,437.57H234.43a46.81,46.81,0,0,0-46.81,46.81v51.19a46.81,46.81,0,0,0,46.81,46.81h141.4a46.8,46.8,0,0,0,46.8-46.81V484.38a46.8,46.8,0,0,0-46.8-46.81Zm0,0" transform="translate(-182 -204)" fill="#544f57"/><path d="M357.17,431.38H253.09a34.44,34.44,0,0,0-34.45,34.44v37.69A34.45,34.45,0,0,0,253.09,538H357.17a34.45,34.45,0,0,0,34.45-34.45V465.82a34.44,34.44,0,0,0-34.45-34.44Zm0,0" transform="translate(-182 -204)" fill="#665e66"/><path d="M342,425.17H268.28a24.39,24.39,0,0,0-24.39,24.4v26.68a24.4,24.4,0,0,0,24.39,24.39H342a24.4,24.4,0,0,0,24.39-24.39V449.57A24.39,24.39,0,0,0,342,425.17Zm0,0" transform="translate(-182 -204)" fill="#756e78"/><path d="M305.13,479.05a27.69,27.69,0,0,1-27.69-27.69V304h55.37v147.4a27.69,27.69,0,0,1-27.68,27.69Zm0,0" transform="translate(-182 -204)" fill="#e2dfe2"/><path d="M315.13,477.19a27.71,27.71,0,0,1-37.69-25.83V304h20v147.4a27.7,27.7,0,0,0,17.68,25.83Zm0,0" transform="translate(-182 -204)" fill="#cbcbcb"/><path d="M369.51,274a64.39,64.39,0,1,1-18.86-45.52A64.38,64.38,0,0,1,369.51,274Zm0,0" transform="translate(-182 -204)" fill="#6bbcd5"/><path d="M321.64,336.23a63.71,63.71,0,0,1-16.51,2.15,64.38,64.38,0,1,1,16.51-126.61,64.39,64.39,0,0,0,0,124.46Zm0,0" transform="translate(-182 -204)" fill="#5798af"/><path d="M413.29,447.7a52.07,52.07,0,0,0-34.43-15.65,40,40,0,0,0-18.48-6.17,29.87,29.87,0,0,0-18.4-6.33h-3.54v-84a70,70,0,0,0,20.36-106.5,5.63,5.63,0,1,0-8.62,7.23,58.68,58.68,0,1,1-15.68-13.18,5.63,5.63,0,0,0,5.63-9.75,70,70,0,1,0-68.31,122.2v84h-3.54a29.84,29.84,0,0,0-18.4,6.33,39.93,39.93,0,0,0-18.48,6.17A52.39,52.39,0,0,0,182,484.38v51.19A52.49,52.49,0,0,0,234.43,588h141.4a52.49,52.49,0,0,0,52.43-52.43V484.38a52.16,52.16,0,0,0-15-36.68ZM305.13,344a69.74,69.74,0,0,0,22.06-3.56V451.36a22.06,22.06,0,0,1-44.12,0V340.44A69.74,69.74,0,0,0,305.13,344Zm-36.85,86.8h3.54v20.56a33.31,33.31,0,0,0,66.62,0V430.8H342a18.79,18.79,0,0,1,18.76,18.77v26.67A18.79,18.79,0,0,1,342,495h-73.7a18.78,18.78,0,0,1-18.76-18.77V449.57a18.78,18.78,0,0,1,18.76-18.77ZM417,535.57a41.22,41.22,0,0,1-41.18,41.18H234.43a41.22,41.22,0,0,1-41.18-41.18V484.38a41.23,41.23,0,0,1,24.57-37.7A40.13,40.13,0,0,0,213,465.82v37.69a40.08,40.08,0,0,0,27.16,38,5.51,5.51,0,0,0,1.81.31,5.63,5.63,0,0,0,1.82-11,28.82,28.82,0,0,1-19.54-27.3V465.82a28.69,28.69,0,0,1,15.5-25.6,30.06,30.06,0,0,0-1.49,9.35v26.67a30,30,0,0,0,30,30H342a30,30,0,0,0,30-30V449.57a30.11,30.11,0,0,0-1.49-9.35A28.7,28.7,0,0,1,386,465.82v37.69a28.86,28.86,0,0,1-28.82,28.83H264.34a5.63,5.63,0,1,0,0,11.25h92.83a40.13,40.13,0,0,0,40.08-40.08V465.82a40.24,40.24,0,0,0-4.81-19.14A41.27,41.27,0,0,1,417,484.38Zm0,0" transform="translate(-182 -204)"/><path d="M335,255.28v13.1H322.6v-13.1a5.63,5.63,0,0,0-11.25,0v13.1H298.91v-13.1a5.63,5.63,0,0,0-11.25,0v13.1H275.23v-13.1a5.63,5.63,0,0,0-11.25,0V274a5.62,5.62,0,0,0,5.62,5.63h18.06v13.09a5.63,5.63,0,1,0,11.25,0V279.63h12.44v13.09a5.63,5.63,0,1,0,11.25,0V279.63H335v13.09a5.63,5.63,0,1,0,11.25,0V255.28a5.63,5.63,0,0,0-11.25,0Zm0,0" transform="translate(-182 -204)"/></svg>