<?xml version="1.0"?>
<svg xmlns="http://www.w3.org/2000/svg" xmlnsXlink="http://www.w3.org/1999/xlink" xmlnsSvgjs="http://svgjs.com/svgjs" version="1.1" width="512" height="512" x="0" y="0" viewBox="0 0 512 512" style="enable-background:new 0 0 512 512" xmlSpace="preserve"><g><path xmlns="http://www.w3.org/2000/svg" d="m512 272.812c.009 32.057-12.468 62.197-35.132 84.869l-79.146 79.179c-46.743 46.755-122.818 46.785-169.583.046l-125.592-125.512c-27.204-26.083-27.216-73.036-.026-99.134l149.66-149.72c27.321-27.332 71.787-27.346 99.122-.025l6.762 6.755 51.48-51.662c11.349-11.359 26.416-17.605 42.445-17.608h.011c16.025 0 31.09 6.239 42.422 17.571 23.354 23.355 23.393 61.333.108 84.733l-16.198 16.645c-7.703 7.914-20.364 8.087-28.282.384-7.915-7.704-8.087-20.366-.384-28.282l16.28-16.729.19-.193c7.796-7.795 7.796-20.478 0-28.272-3.775-3.777-8.795-5.857-14.136-5.857h-.004c-5.341.001-10.362 2.082-14.138 5.861l-159.692 160.256c-7.798 7.825-20.461 7.846-28.284.05-7.824-7.797-7.847-20.46-.05-28.284l79.997-80.279-6.801-6.794c-11.737-11.73-30.828-11.727-42.56.01l-149.66 149.72c-11.672 11.205-11.668 31.364.012 42.561l125.592 125.512c31.167 31.146 81.866 31.133 113.02-.031l79.146-79.179c15.108-15.114 23.427-35.208 23.421-56.579-.005-21.354-8.32-41.428-23.412-56.53l-48.646-48.065c-7.856-7.764-7.933-20.427-.169-28.283 7.763-7.858 20.426-7.935 28.284-.17l48.688 48.107.08.08c22.675 22.658 35.167 52.793 35.175 84.849zm-81-.812c0-11.046-8.954-20-20-20h-207c-26.536 1.056-26.516 38.953 0 40h207c11.046 0 20-8.954 20-20zm-360.863 240c-38.674 0-70.137-31.508-70.137-70.236 0-6.634 0-26.819 39.405-76.85 14.982-19.761 46.484-19.758 61.463 0 39.406 50.028 39.406 70.216 39.406 76.85 0 38.728-31.463 70.236-70.137 70.236zm0-121.455c-23.816 30.396-30.137 46.779-30.137 51.219 0 16.672 13.52 30.236 30.137 30.236 16.618 0 30.138-13.564 30.138-30.236-.001-4.44-6.322-20.824-30.138-51.219z" fill="#fb4848" data-original="#000000" style=""/></g></svg>
