<?xml version="1.0"?>
<svg xmlns="http://www.w3.org/2000/svg" xmlnsXlink="http://www.w3.org/1999/xlink" xmlnsSvgjs="http://svgjs.com/svgjs" version="1.1" width="512" height="512" x="0" y="0" viewBox="0 0 510 510" style="enable-background:new 0 0 512 512" xmlSpace="preserve"><g><g xmlns="http://www.w3.org/2000/svg"><path d="m510 360h-30v-52c0-36.346-28.664-66.121-64.572-67.913l-45.033-120.087h-175.436c9.438-12.544 15.041-28.129 15.041-45 0-41.355-33.645-75-75-75s-75 33.645-75 75c0 21.706 9.278 41.277 24.066 54.985-49.263 20.146-84.066 68.588-84.066 125.015v135h60v120h150v-60h135v60h105v-60h60zm-60-52v52h-180v-90h142c20.953 0 38 17.047 38 38zm-240 22h30v30h-30zm173.355-90h-114.193c-4.025-36.241-22.451-68.195-49.414-90h129.857zm-293.355-165c0-24.813 20.187-45 45-45s45 20.187 45 45-20.187 45-45 45-45-20.187-45-45zm45 75c57.897 0 105 47.102 105 105v45h-30v-45h-30v60h-90v-60h-30v44.955h-30v-44.955c0-57.898 47.103-105 105-105zm-105 210v-30.045h30v30.045zm150 120h-30v-105h-30v105h-30c0-11.918 0-118.219 0-135h90zm240 0h-45v-30h45zm60-60c-7.814 0-262.196 0-270 0v-30h270z" fill="#fb4848" data-original="#000000" style=""/><path d="m360 300h60v30h-60z" fill="#fb4848" data-original="#000000" style=""/></g></g></svg>
