<svg xmlns="http://www.w3.org/2000/svg" xmlnsXlink="http://www.w3.org/1999/xlink" width="383.98" height="384" viewBox="0 0 383.98 384"><defs><clipPath id="a" transform="translate(-114.01 -204)"><rect x="114" y="204" width="384" height="384" fill="none"/></clipPath></defs><path d="M468.51,489.19H243a23.85,23.85,0,0,1-23.85-23.85V419.85A23.85,23.85,0,0,1,243,396h225.5a23.85,23.85,0,0,1,23.85,23.85v45.49a23.85,23.85,0,0,1-23.85,23.85Zm0,0" transform="translate(-114.01 -204)" fill="#8b808e"/><path d="M468.51,396H446a23.85,23.85,0,0,1,23.85,23.85v45.49A23.85,23.85,0,0,1,446,489.19h22.5a23.85,23.85,0,0,0,23.85-23.85V419.85A23.85,23.85,0,0,0,468.51,396Zm0,0" transform="translate(-114.01 -204)" fill="#766d78"/><path d="M468.51,582.38H243a23.85,23.85,0,0,1-23.85-23.86V513A23.85,23.85,0,0,1,243,489.19h225.5A23.85,23.85,0,0,1,492.36,513v45.48a23.85,23.85,0,0,1-23.85,23.86Zm0,0" transform="translate(-114.01 -204)" fill="#766d78"/><path d="M468.51,489.19H446A23.85,23.85,0,0,1,469.86,513v45.48A23.85,23.85,0,0,1,446,582.38h22.5a23.85,23.85,0,0,0,23.85-23.86V513a23.85,23.85,0,0,0-23.85-23.85Zm0,0" transform="translate(-114.01 -204)" fill="#544f56"/><path d="M468.51,302.81H243A23.85,23.85,0,0,1,219.16,279V233.48A23.85,23.85,0,0,1,243,209.62h225.5a23.85,23.85,0,0,1,23.85,23.86V279a23.85,23.85,0,0,1-23.85,23.85Zm0,0" transform="translate(-114.01 -204)" fill="#8b808e"/><path d="M468.51,209.62H446a23.85,23.85,0,0,1,23.85,23.86V279A23.85,23.85,0,0,1,446,302.81h22.5A23.85,23.85,0,0,0,492.36,279V233.48a23.85,23.85,0,0,0-23.85-23.86Zm0,0" transform="translate(-114.01 -204)" fill="#766d78"/><path d="M468.51,396H243a23.85,23.85,0,0,1-23.85-23.85V326.66A23.85,23.85,0,0,1,243,302.81h225.5a23.85,23.85,0,0,1,23.85,23.85v45.49A23.85,23.85,0,0,1,468.51,396Zm0,0" transform="translate(-114.01 -204)" fill="#766d78"/><g clip-path="url(#a)"><path d="M468.51,302.81H446a23.85,23.85,0,0,1,23.85,23.85v45.49A23.85,23.85,0,0,1,446,396h22.5a23.85,23.85,0,0,0,23.85-23.85V326.66a23.85,23.85,0,0,0-23.85-23.85Zm0,0" transform="translate(-114.01 -204)" fill="#544f56"/><path d="M242.77,582.38a123.13,123.13,0,1,1,61.48-16.51,123.71,123.71,0,0,1-61.48,16.51Zm0,0" transform="translate(-114.01 -204)" fill="#655e67"/></g><path d="M349.3,397.7a123,123,0,0,0-106.69-61.56,124.56,124.56,0,0,0-14.07.82,123.1,123.1,0,0,1,.1,244.58,121.1,121.1,0,0,0,14.13.84A123.13,123.13,0,0,0,349.3,397.7Zm0,0" transform="translate(-114.01 -204)" fill="#544f56"/><path d="M313.25,412c1.15,2,13.47,4,14.46,6.05a94,94,0,0,1,9.44,43.07c-.3,14.55-15.22,28.87-21.92,41.77-4.67,9,.43,17.27-7.07,24.48A95.36,95.36,0,0,1,269,550c-11.44,3.33-23.22-6.87-34.74-7.92-12.61-1.14-24.9,6.44-36.1.47a94,94,0,0,1-33.6-30.27c-1.27-1.88,8.77-3.81,7.62-5.81-11.61-20.1-26.24-42.69-22.43-63.87a94.69,94.69,0,0,1,18.38-41.34c7.28-9.37,16.46-6.27,27.37-12.57s22.56-21.43,34.32-23.05a94.79,94.79,0,0,1,45,4.75c20.25,7.3,26.87,21.52,38.48,41.62Zm0,0" transform="translate(-114.01 -204)" fill="#fff"/><path d="M168.1,401.27a35.78,35.78,0,0,0,2.72,5.88,36.19,36.19,0,1,0,59-41.49,94.72,94.72,0,0,0-61.68,35.61Zm0,0" transform="translate(-114.01 -204)" fill="#e2dfe3"/><path d="M155.87,440.71a36.09,36.09,0,0,0-6.16,1.9,94.05,94.05,0,0,0,11.18,63.87q1.73,3,3.63,5.8a37.22,37.22,0,0,0,6.41-.76,36.2,36.2,0,0,0-15.06-70.81Zm0,0" transform="translate(-114.01 -204)" fill="#e2dfe3"/><path d="M238,503.88a36.14,36.14,0,0,0-39.87,38.67A94.6,94.6,0,0,0,269,550a35.58,35.58,0,0,0,1.25-6.34A36.19,36.19,0,0,0,238,503.88Zm0,0" transform="translate(-114.01 -204)" fill="#e2dfe3"/><path d="M337.11,462.31a36.19,36.19,0,1,0-29,65.07,94.58,94.58,0,0,0,29-65.07Zm0,0" transform="translate(-114.01 -204)" fill="#e2dfe3"/><path d="M270,374.79a36.2,36.2,0,1,0,57.66,43.28c-1-2-2.05-4.05-3.2-6.05a94.09,94.09,0,0,0-49.73-41.61,36.07,36.07,0,0,0-4.73,4.38Zm0,0" transform="translate(-114.01 -204)" fill="#e2dfe3"/><g clip-path="url(#a)"><path d="M259.53,459.25a16.84,16.84,0,1,1-16.84-16.84,16.83,16.83,0,0,1,16.84,16.84Zm0,0" transform="translate(-114.01 -204)" fill="#e2dfe3"/><path d="M156,509.3c17.73,30.72,52.07,50,86.84,50,44.22,0,85-31.11,96.51-74.16C358,415.6,299.48,350.81,229.47,360.05c-39.69,5.24-73.09,34.63-83.45,73.3a99.43,99.43,0,0,0,10,75.95Zm108.25,36.13a88.3,88.3,0,0,1-21.43,2.64A89.39,89.39,0,0,1,203.67,539c.34-17.69,16.2-31.39,33.74-29.55a30.65,30.65,0,0,1,26.86,36Zm64.23-63.18A88.34,88.34,0,0,1,306.57,521a30.56,30.56,0,1,1,24.77-55.66,89.45,89.45,0,0,1-2.84,16.87ZM275.86,376.88a88.44,88.44,0,0,1,43.77,38c.53.92,1,1.86,1.54,2.79-10.64,14-31.8,15.71-44.69,4.1-13.08-11.78-13.41-32.84-.62-44.85Zm-77.59,5.44a88.25,88.25,0,0,1,29.09-10.56,30.56,30.56,0,1,1-52.8,30.42,88.87,88.87,0,0,1,23.71-19.86Zm-31,29.85a41.81,41.81,0,0,0,72.3-41.69c1,0,1.95-.05,2.93-.05a88.87,88.87,0,0,1,21.57,2.67c-13.62,17-11.47,42.31,4.84,57a41.81,41.81,0,0,0,57.24-1.21,87.91,87.91,0,0,1,5.15,24.17c-20.5-7.78-43.93,2.24-52.8,22.17a41.86,41.86,0,0,0,18.83,54.06,89.46,89.46,0,0,1-10.27,6.91A88.3,88.3,0,0,1,276,541.62a41.81,41.81,0,0,0-83-8.75,88.36,88.36,0,0,1-18.35-16.49,41.81,41.81,0,0,0-17.34-81.64,88.6,88.6,0,0,1,10-22.57Zm-12.6,34.64a30.56,30.56,0,1,1,12.69,59.6,88.56,88.56,0,0,1-12.69-59.6Zm88,34.91a22.47,22.47,0,1,0-22.46-22.47,22.5,22.5,0,0,0,22.46,22.47Zm0-33.68a11.22,11.22,0,1,1-11.21,11.21A11.23,11.23,0,0,1,242.69,448ZM498,279V233.48A29.51,29.51,0,0,0,468.51,204H243a29.51,29.51,0,0,0-29.48,29.48V279a29.44,29.44,0,0,0,12.19,23.85,29.46,29.46,0,0,0-12.19,23.85v7.2a129.15,129.15,0,0,0-56.12,28.95,5.62,5.62,0,1,0,7.44,8.43A117.51,117.51,0,0,1,300.55,357c76.44,43.17,79,158.92.88,204a117.48,117.48,0,0,1-153.7-170.91,5.62,5.62,0,0,0-9.1-6.61A128.73,128.73,0,0,0,242.77,588H468.51A29.51,29.51,0,0,0,498,558.52V513a29.44,29.44,0,0,0-12.19-23.85A29.45,29.45,0,0,0,498,465.34V419.85A29.44,29.44,0,0,0,485.8,396,29.44,29.44,0,0,0,498,372.15V326.66a29.46,29.46,0,0,0-12.19-23.85A29.44,29.44,0,0,0,498,279ZM486.74,513v45.48a18.25,18.25,0,0,1-18.23,18.23H295.27a128.31,128.31,0,0,0,71.08-81.94H468.51A18.25,18.25,0,0,1,486.74,513Zm0-93.19v45.49a18.24,18.24,0,0,1-18.23,18.22H369.05a128.21,128.21,0,0,0-11.25-81.94H468.51a18.25,18.25,0,0,1,18.23,18.23Zm0-140.89a18.25,18.25,0,0,1-18.23,18.23H406.43a5.63,5.63,0,1,0,0,11.25h62.08a18.24,18.24,0,0,1,18.23,18.22v45.49a18.25,18.25,0,0,1-18.23,18.23H351.43a128.6,128.6,0,0,0-126.65-58.61v-5.11A18.24,18.24,0,0,1,243,308.44H380.18a5.63,5.63,0,1,0,0-11.25H243A18.25,18.25,0,0,1,224.78,279V233.48A18.25,18.25,0,0,1,243,215.25h225.5a18.25,18.25,0,0,1,18.23,18.23Zm0,0" transform="translate(-114.01 -204)"/></g></svg>