<?xml version="1.0"?>
<svg xmlns="http://www.w3.org/2000/svg" xmlnsXlink="http://www.w3.org/1999/xlink" xmlnsSvgjs="http://svgjs.com/svgjs" version="1.1" width="512" height="512" x="0" y="0" viewBox="0 0 512 512" style="enable-background:new 0 0 512 512" xmlSpace="preserve" class=""><g><g xmlns="http://www.w3.org/2000/svg"><ellipse cx="250.26" cy="168.842" rx="11.315" ry="11.315" transform="matrix(.707 -.707 .707 .707 -46.09 226.413)" fill="#fb4848" data-original="#000000" style="" class=""/><ellipse cx="174.473" cy="188.631" rx="11.315" ry="11.315" transform="matrix(.259 -.966 .966 .259 -52.888 308.338)" fill="#fb4848" data-original="#000000" style="" class=""/><ellipse cx="118.735" cy="243.663" rx="11.315" ry="11.315" transform="matrix(.265 -.964 .964 .265 -147.692 293.527)" fill="#fb4848" data-original="#000000" style="" class=""/><circle cx="97.98" cy="319.191" r="11.315" fill="#fb4848" data-original="#000000" style="" class=""/><ellipse cx="117.769" cy="394.977" rx="11.315" ry="11.315" transform="matrix(.259 -.966 .966 .259 -294.231 406.506)" fill="#fb4848" data-original="#000000" style="" class=""/><ellipse cx="172.8" cy="450.716" rx="11.315" ry="11.315" transform="matrix(.966 -.259 .259 .966 -110.766 60.082)" fill="#fb4848" data-original="#000000" style="" class=""/><circle cx="248.328" cy="471.471" r="11.315" fill="#fb4848" data-original="#000000" style="" class=""/><ellipse cx="324.115" cy="451.681" rx="11.315" ry="11.315" transform="matrix(.259 -.966 .966 .259 -196.063 647.849)" fill="#fb4848" data-original="#000000" style="" class=""/><ellipse cx="379.853" cy="396.65" rx="11.315" ry="11.315" transform="matrix(.966 -.259 .259 .966 -89.717 111.829)" fill="#fb4848" data-original="#000000" style="" class=""/><circle cx="400.608" cy="321.122" r="11.315" fill="#fb4848" data-original="#000000" style="" class=""/><ellipse cx="380.819" cy="245.336" rx="11.315" ry="11.315" transform="matrix(.259 -.966 .966 .259 45.28 549.681)" fill="#fb4848" data-original="#000000" style="" class=""/><ellipse cx="325.788" cy="189.597" rx="11.315" ry="11.315" transform="matrix(.966 -.259 .259 .966 -37.97 90.78)" fill="#fb4848" data-original="#000000" style="" class=""/><path d="m377.03 320.157c0-70.435-57.302-127.737-127.736-127.737s-127.736 57.302-127.736 127.737c0 70.434 57.302 127.736 127.736 127.736s127.736-57.302 127.736-127.736zm-127.736 112.74c-62.165 0-112.741-50.575-112.741-112.74 0-62.166 50.575-112.741 112.741-112.741s112.741 50.575 112.741 112.741c0 62.165-50.576 112.74-112.741 112.74z" fill="#fb4848" data-original="#000000" style="" class=""/><path d="m249.294 226.805c-51.474 0-93.351 41.877-93.351 93.352 0 51.474 41.877 93.351 93.351 93.351s93.351-41.877 93.351-93.351c0-51.475-41.877-93.352-93.351-93.352zm-37.662 162.038c-24.232-13.34-40.693-39.124-40.693-68.686s16.46-55.346 40.693-68.687zm14.899 6.286c.149-.974.096 7.587.096-149.973 14.768-4.472 30.543-4.479 45.334 0v148.83c0 .39.039.769.096 1.143-14.814 4.507-30.678 4.517-45.526 0zm60.425-6.286v-137.373c24.232 13.341 40.693 39.125 40.693 68.687s-16.46 55.345-40.693 68.686z" fill="#fb4848" data-original="#000000" style="" class=""/><path d="m436.65 27.001h-7.498c-9.784 0-17.744 7.96-17.744 17.745v36.738h-40.07v-3.998c0-7.166-5.83-12.996-12.996-12.996h-12.079v-15.506h12.079c7.166 0 12.996-5.83 12.996-12.996v-22.992c0-7.166-5.83-12.996-12.996-12.996h-36.598c-4.141 0-7.498 3.356-7.498 7.498s3.357 7.498 7.498 7.498h34.599v18.993h-214.098v-18.994h149.507c4.141 0 7.498-3.356 7.498-7.498s-3.356-7.497-7.497-7.497h-151.507c-7.166 0-12.996 5.83-12.996 12.996v22.992c0 7.166 5.83 12.996 12.996 12.996h12.075v15.505h-12.075c-7.166 0-12.996 5.83-12.996 12.996v22.992c0 7.166 5.83 12.996 12.996 12.996h12.075v41.325c-22.364 13.126-41.901 30.736-57.595 52.099-24.285 33.056-37.121 72.221-37.121 113.26 0 129.499 126.905 222.673 250.878 182.337 3.938-1.281 6.091-5.512 4.81-9.449-1.281-3.938-5.511-6.093-9.449-4.81-114.179 37.143-231.243-48.606-231.243-168.078 0-64.806 35.142-123.203 90.144-154.06.483-.205.937-.462 1.362-.76 9.347-5.136 19.255-9.485 29.656-12.937 3.93-1.304 6.059-5.548 4.754-9.478-1.304-3.929-5.546-6.056-9.478-4.754-7.456 2.475-14.704 5.388-21.723 8.708v-33.403h163.95v33.431c-35.699-16.959-74.819-21.949-111.932-16.098-4.09.644-6.884 4.483-6.239 8.574.644 4.091 4.485 6.883 8.574 6.238 107.316-16.913 204.317 66.264 204.317 174.538 0 66.246-36.651 126.398-95.649 156.985-3.676 1.906-5.111 6.431-3.205 10.107 1.905 3.676 6.43 5.112 10.107 3.205 30.728-15.93 56.646-39.911 74.953-69.348 18.834-30.287 28.789-65.194 28.789-100.949 0-70.34-38.09-131.941-94.72-165.291v-41.392h12.079c7.166 0 12.996-5.83 12.996-12.996v-3.999h40.07v36.738c0 9.784 7.96 17.745 17.744 17.745h7.498c9.785 0 17.745-7.96 17.745-17.745v-88.471c.001-9.784-7.959-17.744-17.743-17.744zm-269.333 21.983h163.95v15.505h-163.95zm189.026 49.494h-214.098v-18.993h17.555c.007 0 .013.001.019.001s.013-.001.019-.001h178.907c.007 0 .013.001.019.001.007 0 .013-.001.019-.001h17.558v18.993zm83.056 34.738c0 1.516-1.233 2.749-2.749 2.749h-7.498c-1.516 0-2.749-1.233-2.749-2.749v-88.471c0-1.516 1.233-2.749 2.749-2.749h7.498c1.516 0 2.749 1.233 2.749 2.749z" fill="#fb4848" data-original="#000000" style="" class=""/></g></g></svg>
