<svg xmlns="http://www.w3.org/2000/svg" xmlnsXlink="http://www.w3.org/1999/xlink" width="275.63" height="384" viewBox="0 0 275.63 384"><defs><clipPath id="a" transform="translate(-167.18 -204)"><rect x="167" y="204" width="276" height="384" fill="none"/></clipPath></defs><path d="M361.32,522.23l-176-40.44a11.25,11.25,0,0,1-8.44-13.49l57.43-249.94a11.25,11.25,0,0,1,13.48-8.45l176,40.45a11.25,11.25,0,0,1,8.44,13.48l-57.43,250a11.26,11.26,0,0,1-13.49,8.44Zm0,0" transform="translate(-167.18 -204)" fill="#9dc6fb"/><path d="M423.82,250.36l-9.2-2.11L359.29,489a11.23,11.23,0,0,1-13.46,8.43L179,459.13l-2.11,9.19a11.24,11.24,0,0,0,8.43,13.47l176,40.45a11.24,11.24,0,0,0,13.46-8.43l57.45-250a11.23,11.23,0,0,0-8.43-13.46Zm0,0" transform="translate(-167.18 -204)" fill="#80b4fb"/><path d="M364.64,543.07H184.05a11.25,11.25,0,0,1-11.25-11.25V275.36a11.25,11.25,0,0,1,11.25-11.25H364.64a11.25,11.25,0,0,1,11.25,11.25V531.82a11.25,11.25,0,0,1-11.25,11.25Zm0,0" transform="translate(-167.18 -204)" fill="#ecbe6b"/><path d="M364.66,264.11h-9.44V511.18A11.23,11.23,0,0,1,344,522.41H172.8v9.43A11.23,11.23,0,0,0,184,543.07H364.66a11.23,11.23,0,0,0,11.23-11.23V275.34a11.23,11.23,0,0,0-11.23-11.23Zm0,0" transform="translate(-167.18 -204)" fill="#eab14d"/><path d="M363.42,303.42H245.34a11.23,11.23,0,0,0-11.23,11.23v256.5a11.23,11.23,0,0,0,11.23,11.23H426a11.23,11.23,0,0,0,11.23-11.23V377.2a15,15,0,0,0-4.39-10.6L374,307.81a15,15,0,0,0-10.59-4.39Zm0,0" transform="translate(-167.18 -204)" fill="#f9f6f9"/><path d="M432.81,366.6l-20.16-20.16A15,15,0,0,1,417,357V551a11.24,11.24,0,0,1-11.24,11.24H234.11v8.93a11.23,11.23,0,0,0,11.23,11.23H426a11.23,11.23,0,0,0,11.23-11.23V377.2a15,15,0,0,0-4.39-10.6Zm0,0" transform="translate(-167.18 -204)" fill="#e7ecf6"/><path d="M432.81,366.6,374,307.8a15,15,0,0,0-7.49-4.05v62.87A7.48,7.48,0,0,0,374,374.1h62.87a15,15,0,0,0-4.06-7.5Zm0,0" transform="translate(-167.18 -204)" fill="#e7ecf6"/><g clip-path="url(#a)"><path d="M432.81,366.6l-13.06-13.05H366.52v13.07A7.48,7.48,0,0,0,374,374.1h62.87a15,15,0,0,0-4.06-7.5Zm0,0" transform="translate(-167.18 -204)" fill="#d8e2f1"/><path d="M437.89,363.84c-.35-.42-.72-.82-1.1-1.2l-17.47-17.47,18.4-80.1a16.83,16.83,0,0,0-12.65-20.18L249,204.43a16.85,16.85,0,0,0-20.2,12.65l-9.52,41.41H184a16.87,16.87,0,0,0-16.85,16.85v61.85a5.62,5.62,0,0,0,11.23,0V275.34a5.62,5.62,0,0,1,5.62-5.62H364.66a5.62,5.62,0,0,1,5.61,5.62v2.4a5.62,5.62,0,1,0,11.23,0v-2.4a16.86,16.86,0,0,0-16.84-16.85H230.85l8.94-38.9a5.61,5.61,0,0,1,6.73-4.21l176,40.45a5.61,5.61,0,0,1,4.21,6.73L410,335.8l-32-32a20.61,20.61,0,0,0-14.56-6H245.34a16.87,16.87,0,0,0-16.85,16.85v2H200.36a5.62,5.62,0,0,0,0,11.23h28.13v19.69H200.36a5.62,5.62,0,0,0,0,11.23h28.13v19.69H200.36a5.62,5.62,0,0,0,0,11.23h28.13v19.69H200.36a5.62,5.62,0,0,0,0,11.23h28.13v19.68H200.36a5.62,5.62,0,0,0,0,11.23h28.13v19.7H200.36a5.62,5.62,0,0,0,0,11.23h28.13v55H184a5.62,5.62,0,0,1-5.62-5.62V364a5.62,5.62,0,0,0-11.23,0V531.84A16.87,16.87,0,0,0,184,548.69H228.5v22.46A16.86,16.86,0,0,0,245.34,588h21.9a5.62,5.62,0,0,0,0-11.23h-21.9a5.62,5.62,0,0,1-5.61-5.62V314.65a5.62,5.62,0,0,1,5.61-5.62H360.9v57.58A13.12,13.12,0,0,0,374,379.72h57.59V571.15a5.62,5.62,0,0,1-5.62,5.62H294.87a5.62,5.62,0,0,0,0,11.23H426a16.87,16.87,0,0,0,16.85-16.85V377.2a20.45,20.45,0,0,0-4.93-13.36Zm-65.76,2.78V313.87l54.62,54.62H374a1.87,1.87,0,0,1-1.87-1.87Zm0,0" transform="translate(-167.18 -204)"/></g><path d="M398.21,517.3a5.62,5.62,0,0,0,0-11.23H287.05V486.38H398.21a5.62,5.62,0,0,0,0-11.23H287.05V455.46H398.21a5.62,5.62,0,0,0,0-11.23H287.05V424.55H398.21a5.62,5.62,0,0,0,0-11.23H287.05v-7.48a5.62,5.62,0,1,0-11.23,0v7.48H259.46a5.62,5.62,0,0,0,0,11.23h16.36v19.68H259.46a5.62,5.62,0,0,0,0,11.23h16.36v19.69H259.46a5.62,5.62,0,0,0,0,11.23h16.36v19.69H259.46a5.62,5.62,0,0,0,0,11.23h16.36v7.47a5.62,5.62,0,1,0,11.23,0V517.3Zm0,0" transform="translate(-167.18 -204)"/></svg>