<?xml version="1.0"?>
<svg xmlns="http://www.w3.org/2000/svg" xmlnsXlink="http://www.w3.org/1999/xlink" xmlnsSvgjs="http://svgjs.com/svgjs" version="1.1" width="512" height="512" x="0" y="0" viewBox="0 0 512 512" style="enable-background:new 0 0 512 512" xmlSpace="preserve" class=""><g><g xmlns="http://www.w3.org/2000/svg"><path d="m119.726 344.693c-4.142 0-7.5 3.358-7.5 7.5 0 9.125-7.423 16.548-16.548 16.548s-16.548-7.423-16.548-16.548 7.423-16.548 16.548-16.548c4.142 0 7.5-3.358 7.5-7.5s-3.358-7.5-7.5-7.5c-17.396 0-31.548 14.152-31.548 31.548s14.152 31.548 31.548 31.548 31.548-14.152 31.548-31.548c0-4.142-3.358-7.5-7.5-7.5z" fill="#fb4848" data-original="#000000" style=""/><path d="m424.339 320.645c-17.396 0-31.548 14.152-31.548 31.548s14.152 31.548 31.548 31.548 31.548-14.152 31.548-31.548-14.152-31.548-31.548-31.548zm0 48.097c-9.125 0-16.548-7.423-16.548-16.548s7.423-16.548 16.548-16.548 16.548 7.423 16.548 16.548-7.423 16.548-16.548 16.548z" fill="#fb4848" data-original="#000000" style=""/><path d="m482.382 246.756-178.6-129.331c-19.181-13.89-41.837-21.231-65.519-21.231h-148.929c-18.687 0-34.568 12.74-38.622 30.982l-25.18 113.309h-2c-12.975-.001-23.532 10.556-23.532 23.531v60.344c0 15.083 8.38 28.643 21.871 35.388l11.618 5.809c6.157 28.68 31.697 50.25 62.189 50.25 26.765 0 49.706-16.623 59.083-40.081h210.497c9.377 23.458 32.318 40.081 59.083 40.081s49.705-16.623 59.082-40.081h5.047c12.976 0 23.532-10.557 23.532-23.532v-47.422c-.002-22.898-11.074-44.586-29.62-58.016zm-2.207 17.776h-3.456c-11.35 0-22.402-4.001-31.121-11.268l-16.576-13.813h17.698l26.865 19.454c2.359 1.709 4.548 3.603 6.59 5.627zm-433.684-49.217c.357.052.719.088 1.09.088h14.365l-4.826 18.683c-.973 3.767-4.37 6.398-8.261 6.398h-7.96zm25.138-14.912h-21.824l12.699-57.145h33.174c.285 0 .516.231.516.516v32.064c-.001 13.546-11.02 24.565-24.565 24.565zm24.048 200.404c-26.805 0-48.613-21.808-48.613-48.613s21.808-48.613 48.613-48.613c26.806 0 48.613 21.808 48.613 48.613.001 26.805-21.807 48.613-48.613 48.613zm328.662 0c-26.806 0-48.613-21.808-48.613-48.613s21.808-48.613 48.613-48.613 48.613 21.808 48.613 48.613-21.808 48.613-48.613 48.613zm72.661-48.614c0 4.705-3.828 8.532-8.532 8.532h-1.105c.376-2.793.589-5.638.589-8.532 0-35.076-28.537-63.613-63.613-63.613-35.077 0-63.613 28.537-63.613 63.613 0 2.895.212 5.739.589 8.532h-202.613c.376-2.793.589-5.638.589-8.532 0-35.076-28.537-63.613-63.613-63.613-33.715 0-61.374 26.369-63.47 59.565l-3.628-1.814c-8.377-4.187-13.58-12.606-13.58-21.971v-60.344c0-4.705 3.828-8.532 8.532-8.532h25.326c10.731 0 20.101-7.257 22.784-17.646l5.911-22.879c19.016-2.867 33.641-19.317 33.641-39.12v-32.064c0-8.556-6.96-15.516-15.516-15.516h-29.735c3.226-10.152 12.546-17.065 23.391-17.065h54.957v64.646c0 21.816 17.749 39.564 39.564 39.564h136.277c4.142 0 7.5-3.358 7.5-7.5s-3.358-7.5-7.5-7.5h-136.277c-13.545 0-24.564-11.02-24.564-24.564v-64.646h78.973c20.502 0 40.116 6.356 56.721 18.381l97.812 70.829h-40.6c-4.142 0-7.5 3.358-7.5 7.5s3.358 7.5 7.5 7.5h61.314l12.495 9.048h-1.218c-5.739 0-10.709 3.487-12.663 8.882-1.954 5.396-.367 11.256 4.042 14.931l19.829 16.523c11.409 9.508 25.872 14.744 40.724 14.744h14.309c3.862 7.75 5.972 16.377 5.972 25.239v47.422z" fill="#fb4848" data-original="#000000" style=""/><path d="m336.161 328.661h-152.306c-4.142 0-7.5 3.358-7.5 7.5s3.358 7.5 7.5 7.5h152.306c4.142 0 7.5-3.358 7.5-7.5s-3.358-7.5-7.5-7.5z" fill="#fb4848" data-original="#000000" style=""/></g></g></svg>
