<?xml version="1.0" encoding="UTF-8"?>
<svg id="Layer_1" data-name="Layer 1" xmlns="http://www.w3.org/2000/svg" xmlnsXlink="http://www.w3.org/1999/xlink" viewBox="0 0 82.43 82.43">
  <defs>
    <clipPath id="clippath">
      <circle cx="41.21" cy="41.21" r="36.4" style="fill: none;"/>
    </clipPath>
  </defs>
  <circle cx="41.21" cy="41.21" r="41.21" transform="translate(-17.07 41.21) rotate(-45)" style="fill: #fff;"/>
  <circle cx="41.21" cy="41.21" r="39.8" style="fill: #e6d045;"/>
  <circle cx="41.21" cy="41.21" r="37.69" style="fill: #fff;"/>
  <g>
    <g style="clip-path: url(#clippath);">
      <rect x="4.81" y="4.81" width="72.8" height="72.8" style="fill: #4c8f25;"/>
      <circle cx="41.21" cy="41.21" r="36.4" style="fill: #4c8f25;"/>
      <circle cx="41.21" cy="41.21" r="36.13" style="fill: #4d9025;"/>
      <circle cx="41.21" cy="41.21" r="35.86" style="fill: #4e9025;"/>
      <circle cx="41.21" cy="41.21" r="35.6" style="fill: #4f9125;"/>
      <circle cx="41.21" cy="41.21" r="35.33" style="fill: #509124;"/>
      <circle cx="41.21" cy="41.21" r="35.06" style="fill: #519224;"/>
      <circle cx="41.21" cy="41.21" r="34.79" style="fill: #529224;"/>
      <circle cx="41.21" cy="41.21" r="34.53" style="fill: #539324;"/>
      <circle cx="41.21" cy="41.21" r="34.26" style="fill: #549324;"/>
      <circle cx="41.21" cy="41.21" r="33.99" style="fill: #559424;"/>
      <circle cx="41.21" cy="41.21" r="33.72" style="fill: #569423;"/>
      <circle cx="41.21" cy="41.21" r="33.46" style="fill: #579523;"/>
      <circle cx="41.21" cy="41.21" r="33.19" style="fill: #589523;"/>
      <circle cx="41.21" cy="41.21" r="32.92" style="fill: #599623;"/>
      <circle cx="41.21" cy="41.21" r="32.65" style="fill: #5a9623;"/>
      <circle cx="41.21" cy="41.21" r="32.39" style="fill: #5b9723;"/>
      <circle cx="41.21" cy="41.21" r="32.12" style="fill: #5c9722;"/>
      <circle cx="41.21" cy="41.21" r="31.85" style="fill: #5d9822;"/>
      <circle cx="41.21" cy="41.21" r="31.58" style="fill: #5e9822;"/>
      <circle cx="41.21" cy="41.21" r="31.31" style="fill: #5f9922;"/>
      <circle cx="41.21" cy="41.21" r="31.05" style="fill: #609a22;"/>
      <circle cx="41.21" cy="41.21" r="30.78" style="fill: #619a22;"/>
      <circle cx="41.21" cy="41.21" r="30.51" style="fill: #629b21;"/>
      <circle cx="41.21" cy="41.21" r="30.24" style="fill: #639b21;"/>
      <circle cx="41.21" cy="41.21" r="29.98" style="fill: #649c21;"/>
      <circle cx="41.21" cy="41.21" r="29.71" style="fill: #659c21;"/>
      <circle cx="41.21" cy="41.21" r="29.44" style="fill: #669d21;"/>
      <circle cx="41.21" cy="41.21" r="29.17" style="fill: #679d21;"/>
      <circle cx="41.21" cy="41.21" r="28.91" style="fill: #689e20;"/>
      <circle cx="41.21" cy="41.21" r="28.64" style="fill: #699e20;"/>
      <circle cx="41.21" cy="41.21" r="28.37" style="fill: #6a9f20;"/>
      <circle cx="41.21" cy="41.21" r="28.1" style="fill: #6b9f20;"/>
      <circle cx="41.21" cy="41.21" r="27.84" style="fill: #6ca020;"/>
      <circle cx="41.21" cy="41.21" r="27.57" style="fill: #6da020;"/>
      <circle cx="41.21" cy="41.21" r="27.3" style="fill: #6ea11f;"/>
      <circle cx="41.21" cy="41.21" r="27.03" style="fill: #6fa11f;"/>
      <circle cx="41.21" cy="41.21" r="26.76" style="fill: #70a21f;"/>
      <circle cx="41.21" cy="41.21" r="26.5" style="fill: #71a21f;"/>
      <circle cx="41.21" cy="41.21" r="26.23" style="fill: #72a31f;"/>
      <circle cx="41.21" cy="41.21" r="25.96" style="fill: #73a41f;"/>
      <circle cx="41.21" cy="41.21" r="25.69" style="fill: #74a41e;"/>
      <circle cx="41.21" cy="41.21" r="25.43" style="fill: #75a51e;"/>
      <circle cx="41.21" cy="41.21" r="25.16" style="fill: #76a51e;"/>
      <circle cx="41.21" cy="41.21" r="24.89" style="fill: #77a61e;"/>
      <circle cx="41.21" cy="41.21" r="24.62" style="fill: #78a61e;"/>
      <circle cx="41.21" cy="41.21" r="24.36" style="fill: #79a71e;"/>
      <circle cx="41.21" cy="41.21" r="24.09" style="fill: #7aa71e;"/>
      <circle cx="41.21" cy="41.21" r="23.82" style="fill: #7ba81d;"/>
      <circle cx="41.21" cy="41.21" r="23.55" style="fill: #7ca81d;"/>
      <circle cx="41.21" cy="41.21" r="23.29" style="fill: #7da91d;"/>
      <circle cx="41.21" cy="41.21" r="23.02" style="fill: #7ea91d;"/>
      <circle cx="41.21" cy="41.21" r="22.75" style="fill: #7faa1d;"/>
      <circle cx="41.21" cy="41.21" r="22.48" style="fill: #80aa1d;"/>
      <circle cx="41.21" cy="41.21" r="22.21" style="fill: #81ab1c;"/>
      <circle cx="41.21" cy="41.21" r="21.95" style="fill: #82ab1c;"/>
      <circle cx="41.21" cy="41.21" r="21.68" style="fill: #83ac1c;"/>
      <circle cx="41.21" cy="41.21" r="21.41" style="fill: #84ac1c;"/>
      <circle cx="41.21" cy="41.21" r="21.14" style="fill: #85ad1c;"/>
      <circle cx="41.21" cy="41.21" r="20.88" style="fill: #86ae1c;"/>
      <circle cx="41.21" cy="41.21" r="20.61" style="fill: #87ae1b;"/>
      <circle cx="41.21" cy="41.21" r="20.34" style="fill: #88af1b;"/>
      <circle cx="41.21" cy="41.21" r="20.07" style="fill: #89af1b;"/>
      <circle cx="41.21" cy="41.21" r="19.81" style="fill: #8ab01b;"/>
      <circle cx="41.21" cy="41.21" r="19.54" style="fill: #8bb01b;"/>
      <circle cx="41.21" cy="41.21" r="19.27" style="fill: #8cb11b;"/>
      <circle cx="41.21" cy="41.21" r="19" style="fill: #8db11a;"/>
      <circle cx="41.21" cy="41.21" r="18.74" style="fill: #8eb21a;"/>
      <circle cx="41.21" cy="41.21" r="18.47" style="fill: #8fb21a;"/>
      <circle cx="41.21" cy="41.21" r="18.2" style="fill: #91b31a;"/>
      <circle cx="41.21" cy="41.21" r="17.93" style="fill: #92b31a;"/>
      <circle cx="41.21" cy="41.21" r="17.66" style="fill: #93b41a;"/>
      <circle cx="41.21" cy="41.21" r="17.4" style="fill: #94b419;"/>
      <circle cx="41.21" cy="41.21" r="17.13" style="fill: #95b519;"/>
      <circle cx="41.21" cy="41.21" r="16.86" style="fill: #96b519;"/>
      <circle cx="41.21" cy="41.21" r="16.59" style="fill: #97b619;"/>
      <circle cx="41.21" cy="41.21" r="16.33" style="fill: #98b619;"/>
      <circle cx="41.21" cy="41.21" r="16.06" style="fill: #99b719;"/>
      <circle cx="41.21" cy="41.21" r="15.79" style="fill: #9ab718;"/>
      <circle cx="41.21" cy="41.21" r="15.52" style="fill: #9bb818;"/>
      <circle cx="41.21" cy="41.21" r="15.26" style="fill: #9cb918;"/>
      <circle cx="41.21" cy="41.21" r="14.99" style="fill: #9db918;"/>
      <circle cx="41.21" cy="41.21" r="14.72" style="fill: #9eba18;"/>
      <circle cx="41.21" cy="41.21" r="14.45" style="fill: #9fba18;"/>
      <circle cx="41.21" cy="41.21" r="14.19" style="fill: #a0bb17;"/>
      <circle cx="41.21" cy="41.21" r="13.92" style="fill: #a1bb17;"/>
      <circle cx="41.21" cy="41.21" r="13.65" style="fill: #a2bc17;"/>
      <circle cx="41.21" cy="41.21" r="13.38" style="fill: #a3bc17;"/>
      <circle cx="41.21" cy="41.21" r="13.11" style="fill: #a4bd17;"/>
      <circle cx="41.21" cy="41.21" r="12.85" style="fill: #a5bd17;"/>
      <circle cx="41.21" cy="41.21" r="12.58" style="fill: #a6be16;"/>
      <circle cx="41.21" cy="41.21" r="12.31" style="fill: #a7be16;"/>
      <circle cx="41.21" cy="41.21" r="12.04" style="fill: #a8bf16;"/>
      <circle cx="41.21" cy="41.21" r="11.78" style="fill: #a9bf16;"/>
      <circle cx="41.21" cy="41.21" r="11.51" style="fill: #aac016;"/>
      <circle cx="41.21" cy="41.21" r="11.24" style="fill: #abc016;"/>
      <circle cx="41.21" cy="41.21" r="10.97" style="fill: #acc116;"/>
      <circle cx="41.21" cy="41.21" r="10.71" style="fill: #adc115;"/>
      <circle cx="41.21" cy="41.21" r="10.44" style="fill: #aec215;"/>
      <circle cx="41.21" cy="41.21" r="10.17" style="fill: #afc315;"/>
      <circle cx="41.21" cy="41.21" r="9.9" style="fill: #b0c315;"/>
      <circle cx="41.21" cy="41.21" r="9.64" style="fill: #b1c415;"/>
      <circle cx="41.21" cy="41.21" r="9.37" style="fill: #b2c415;"/>
      <circle cx="41.21" cy="41.21" r="9.1" style="fill: #b3c514;"/>
      <circle cx="41.21" cy="41.21" r="8.83" style="fill: #b4c514;"/>
      <circle cx="41.21" cy="41.21" r="8.56" style="fill: #b5c614;"/>
      <circle cx="41.21" cy="41.21" r="8.3" style="fill: #b6c614;"/>
      <circle cx="41.21" cy="41.21" r="8.03" style="fill: #b7c714;"/>
      <circle cx="41.21" cy="41.21" r="7.76" style="fill: #b8c714;"/>
      <circle cx="41.21" cy="41.21" r="7.49" style="fill: #b9c813;"/>
      <circle cx="41.21" cy="41.21" r="7.23" style="fill: #bac813;"/>
      <circle cx="41.21" cy="41.21" r="6.96" style="fill: #bbc913;"/>
      <circle cx="41.21" cy="41.21" r="6.69" style="fill: #bcc913;"/>
      <circle cx="41.21" cy="41.21" r="6.42" style="fill: #bdca13;"/>
      <circle cx="41.21" cy="41.21" r="6.16" style="fill: #beca13;"/>
      <circle cx="41.21" cy="41.21" r="5.89" style="fill: #bfcb12;"/>
      <circle cx="41.21" cy="41.21" r="5.62" style="fill: #c0cb12;"/>
      <circle cx="41.21" cy="41.21" r="5.35" style="fill: #c1cc12;"/>
      <circle cx="41.21" cy="41.21" r="5.09" style="fill: #c2cd12;"/>
      <circle cx="41.21" cy="41.21" r="4.82" style="fill: #c3cd12;"/>
      <circle cx="41.21" cy="41.21" r="4.55" style="fill: #c4ce12;"/>
      <circle cx="41.21" cy="41.21" r="4.28" style="fill: #c5ce11;"/>
      <circle cx="41.21" cy="41.21" r="4.01" style="fill: #c6cf11;"/>
      <circle cx="41.21" cy="41.21" r="3.75" style="fill: #c7cf11;"/>
      <circle cx="41.21" cy="41.21" r="3.48" style="fill: #c8d011;"/>
      <circle cx="41.21" cy="41.21" r="3.21" style="fill: #c9d011;"/>
      <circle cx="41.21" cy="41.21" r="2.94" style="fill: #cad111;"/>
      <circle cx="41.21" cy="41.21" r="2.68" style="fill: #cbd110;"/>
      <circle cx="41.21" cy="41.21" r="2.41" style="fill: #ccd210;"/>
      <circle cx="41.21" cy="41.21" r="2.14" style="fill: #cdd210;"/>
      <circle cx="41.21" cy="41.21" r="1.87" style="fill: #ced310;"/>
      <circle cx="41.21" cy="41.21" r="1.61" style="fill: #cfd310;"/>
      <circle cx="41.21" cy="41.21" r="1.34" style="fill: #d0d410;"/>
      <circle cx="41.21" cy="41.21" r="1.07" style="fill: #d1d40f;"/>
      <circle cx="41.21" cy="41.21" r=".8" style="fill: #d2d50f;"/>
      <circle cx="41.21" cy="41.21" r=".54" style="fill: #d3d50f;"/>
      <circle cx="41.21" cy="41.21" r=".27" style="fill: #d4d60f;"/>
    </g>
    <path d="m41.21,77.93c-9.81,0-19.03-3.82-25.96-10.75-6.93-6.93-10.75-16.16-10.75-25.96s3.82-19.03,10.75-25.96c6.93-6.93,16.16-10.75,25.96-10.75s19.03,3.82,25.96,10.75c6.93,6.93,10.75,16.16,10.75,25.96s-3.82,19.03-10.75,25.96c-6.93,6.93-16.16,10.75-25.96,10.75Zm0-72.8C21.32,5.13,5.13,21.32,5.13,41.21s16.19,36.08,36.08,36.08,36.08-16.19,36.08-36.08S61.11,5.13,41.21,5.13Z" style="fill: #e6d045;"/>
  </g>
  <path d="m60.29,29.16c-4-6.32-11.04-10.51-19.07-10.51s-15.07,4.2-19.07,10.51h38.15Z" style="fill: #d9d9ff;"/>
  <path d="m23.58,55.29c4.14,5.17,10.49,8.49,17.63,8.49s13.5-3.32,17.63-8.49H23.58Z" style="fill: #d9d9ff;"/>
  <g>
    <polygon points="55.13 69.55 56.57 68.7 54.85 67.44 55.13 69.55" style="fill: none;"/>
    <polygon points="39.29 72.97 40.96 73.05 40.22 71.06 39.29 72.97" style="fill: none;"/>
    <polygon points="39.47 13.15 41.14 13.15 40.3 11.2 39.47 13.15" style="fill: none;"/>
    <path d="m45.52,11.52l-.95-.16-.3,1.75.95.16c.36.06.64.03.85-.09s.34-.32.38-.6c.05-.28,0-.51-.16-.69-.16-.18-.41-.3-.77-.36Z" style="fill: none;"/>
    <path d="m52.09,70.42c.12-.21.13-.45.03-.71-.1-.27-.26-.44-.49-.52-.23-.08-.51-.05-.85.08l-.9.34.63,1.66.9-.34c.34-.13.57-.3.69-.51Z" style="fill: none;"/>
    <path d="m46.02,71.5c-.04-.28-.15-.49-.36-.62-.2-.13-.48-.17-.85-.13l-.96.12.22,1.76.96-.12c.36-.05.62-.16.79-.34.16-.18.23-.41.19-.68Z" style="fill: none;"/>
    <path d="m51.55,15.14c.34.14.62.18.85.1.23-.07.4-.24.51-.5.11-.26.11-.5,0-.71-.11-.21-.33-.39-.67-.53l-.89-.38-.69,1.63.89.38Z" style="fill: none;"/>
    <polygon points="54.91 17.18 56.32 18.08 56.66 15.99 54.91 17.18" style="fill: none;"/>
    <polygon points="17.69 27.56 16.73 26.93 16.52 25.94 18.94 25.65 19.47 24.84 16.32 25.15 15.68 22.5 15.17 23.27 15.88 26.37 13.96 25.11 13.51 25.8 17.23 28.25 17.69 27.56" style="fill: #fff;"/>
    <path d="m19.7,23.95c.49-.02.94-.25,1.36-.69.41-.44.61-.91.6-1.39-.01-.49-.26-.95-.73-1.4l-1.83-1.72-.56.59,1.81,1.7c.33.31.51.61.53.9.02.28-.1.56-.34.82-.25.26-.51.4-.8.4-.29,0-.6-.15-.93-.47l-1.81-1.7-.57.6,1.83,1.72c.47.44.95.66,1.44.64Z" style="fill: #fff;"/>
    <polygon points="24.58 20.01 23.66 16.65 26.42 18.76 27.15 18.27 25.88 13.75 25.22 14.2 26.19 17.66 23.35 15.46 22.71 15.89 23.66 19.34 20.84 17.15 20.13 17.64 23.85 20.5 24.58 20.01" style="fill: #fff;"/>
    <polygon points="29.85 17.01 30.61 16.69 30.01 15.24 30.53 11.91 29.77 12.22 29.38 14.73 27.35 13.22 26.53 13.56 29.25 15.57 29.85 17.01" style="fill: #fff;"/>
    <path d="m33.87,14.23c.16.26.37.47.62.63.25.17.52.28.83.34s.63.06.96,0c.36-.06.68-.18.96-.36.28-.18.49-.4.66-.67l-.61-.41c-.13.2-.28.36-.47.48s-.39.2-.62.24-.45.04-.65,0c-.2-.04-.39-.12-.55-.23-.16-.11-.3-.26-.41-.43-.11-.17-.18-.38-.22-.6-.04-.23-.04-.44,0-.64.04-.2.13-.38.24-.54.12-.16.26-.3.44-.4.18-.11.38-.18.61-.22.23-.04.45-.03.66.02.21.05.41.15.6.29l.44-.59c-.25-.21-.53-.35-.85-.42-.32-.07-.66-.08-1.02-.02-.34.06-.64.17-.91.33-.27.16-.49.36-.67.6s-.3.51-.37.8c-.07.3-.08.61-.02.93.06.33.17.62.33.87Z" style="fill: #fff;"/>
    <path d="m39.89,10.38l-1.99,4.46h.85s.44-1.03.44-1.03h2.23s.44,1.02.44,1.02h.87s-2.02-4.45-2.02-4.45h-.81Zm-.43,2.77l.83-1.95.84,1.95h-1.67Z" style="fill: #fff;"/>
    <path d="m46.64,11.2c-.26-.17-.58-.29-.97-.36l-1.81-.31-.75,4.39.82.14.22-1.28.99.17c.06.01.11.02.17.02l.68,1.44.88.15-.76-1.61s.05,0,.07-.01c.3-.08.54-.22.73-.42.19-.21.31-.47.37-.79.05-.32.03-.61-.08-.87-.11-.26-.29-.48-.55-.65Zm-.19,1.38c-.05.28-.17.48-.38.6s-.49.15-.85.09l-.95-.16.3-1.75.95.16c.36.06.62.18.77.36.16.18.21.41.16.69Z" style="fill: #fff;"/>
    <path d="m50.39,15.39l.93.39c.05.02.11.04.16.06l.33,1.56.82.35-.37-1.74s.05,0,.07,0c.31,0,.58-.09.81-.24.23-.16.41-.39.54-.69.13-.3.17-.59.12-.87-.05-.28-.18-.53-.39-.76-.21-.23-.5-.42-.86-.57l-1.69-.72-1.74,4.1.76.32.51-1.19Zm.96-2.26l.89.38c.34.14.56.32.67.53.11.21.11.45,0,.71-.11.26-.28.42-.51.5-.23.07-.51.04-.85-.1l-.89-.38.69-1.63Z" style="fill: #fff;"/>
    <path d="m53.4,18.2l.93-.63,1.88,1.2-.18,1.11.73.47.71-4.83-.69-.44-4.09,2.67.72.46Zm1.51-1.03l1.75-1.19-.35,2.09-1.41-.9Z" style="fill: #fff;"/>
    <polygon points="58.15 21.67 60.62 18.84 61.73 19.81 62.19 19.28 59.34 16.8 58.88 17.32 60 18.29 57.53 21.12 58.15 21.67" style="fill: #fff;"/>
    <rect x="59.26" y="21.43" width="4.45" height=".83" transform="translate(1.54 47.6) rotate(-42.8)" style="fill: #fff;"/>
    <polygon points="61.36 25.09 63.83 23.35 62.78 27.09 63.18 27.65 66.81 25.08 66.34 24.41 63.88 26.15 64.92 22.4 64.52 21.85 60.89 24.42 61.36 25.09" style="fill: #fff;"/>
    <path d="m65.56,27.31c-.3.14-.55.32-.76.55-.2.23-.35.48-.45.76-.1.28-.13.58-.11.89.02.31.1.62.25.94.13.28.31.55.52.79.22.24.46.43.72.56l1.61-.74-.33-.71-1.26.58c-.09-.06-.16-.13-.23-.2-.15-.16-.27-.34-.36-.54-.1-.22-.16-.43-.17-.64s.02-.41.08-.6c.07-.19.17-.36.31-.51.14-.15.31-.27.52-.37.21-.1.41-.15.62-.16.21,0,.4.02.59.09s.36.18.51.33c.15.15.28.33.38.54.1.22.16.44.17.66,0,.22-.03.44-.11.67l.68.26c.13-.29.18-.6.17-.92-.02-.33-.1-.66-.26-1-.15-.32-.33-.58-.56-.8-.22-.22-.48-.38-.75-.5-.28-.11-.57-.16-.87-.15-.3,0-.61.08-.91.22Z" style="fill: #fff;"/>
    <polygon points="20.44 59.43 19.98 58.62 16.89 57.86 18.87 56.72 18.46 56 14.6 58.24 15.02 58.95 16.01 58.38 16.99 58.63 16.16 60.92 16.64 61.76 17.78 58.8 20.44 59.43" style="fill: #fff;"/>
    <path d="m22.61,62.01l-1.9,1.6c-.35.29-.67.43-.95.42-.28-.02-.54-.16-.77-.44-.23-.28-.33-.56-.3-.84.03-.28.22-.57.57-.87l1.9-1.6-.53-.63-1.92,1.62c-.5.42-.77.87-.81,1.35-.04.49.14.96.53,1.43.39.46.83.72,1.31.76.49.04.98-.14,1.47-.56l1.92-1.62-.52-.62Z" style="fill: #fff;"/>
    <polygon points="31.74 68.4 29.63 69.79 29.37 67.28 28.57 66.9 28.59 67.03 28.19 66.72 25.22 68.75 26.38 65.36 25.77 64.9 22.81 66.9 23.97 63.53 23.29 63.01 21.77 67.46 22.48 67.99 25.36 66.04 24.25 69.33 24.95 69.86 28.62 67.34 28.92 70.26 28.25 71.67 29 72.02 29.67 70.61 32.48 68.75 31.74 68.4" style="fill: #fff;"/>
    <path d="m34.59,71.01c.12-.17.26-.31.43-.41.17-.11.36-.18.56-.21.2-.03.42-.03.65.02.23.05.43.14.61.27.18.13.32.29.45.5l.63-.38c-.15-.28-.36-.52-.63-.71-.27-.19-.58-.32-.94-.4-.34-.07-.66-.09-.96-.04-.31.05-.59.15-.84.31-.26.16-.47.36-.65.6-.18.25-.3.53-.37.86s-.08.63-.02.93c.06.3.17.57.33.82.17.25.38.46.64.63.26.17.56.29.89.37.36.08.7.09,1.02.03.32-.06.61-.19.86-.38l-.41-.61c-.2.14-.4.23-.61.27-.21.04-.43.04-.66-.01-.23-.05-.43-.13-.6-.25-.17-.12-.31-.26-.42-.42-.11-.17-.18-.35-.22-.56-.04-.2-.03-.42.02-.64.05-.22.13-.42.25-.59Z" style="fill: #fff;"/>
    <path d="m39.85,70.22l-2.2,4.36.85.04.49-1.01,2.23.1.4,1.05.86.04-1.81-4.54-.81-.04Zm-.56,2.75l.92-1.91.75,1.99-1.67-.08Z" style="fill: #fff;"/>
    <path d="m46.14,72.88c.26-.16.46-.36.58-.62.12-.25.16-.54.12-.86-.04-.32-.15-.59-.33-.81-.18-.22-.42-.37-.71-.46-.3-.09-.64-.11-1.03-.06l-1.82.23.55,4.42.82-.1-.16-1.29,1-.12c.06,0,.11-.02.17-.03l1.06,1.18.88-.11-1.2-1.32s.04-.02.06-.03Zm-2.07-.24l-.22-1.76.96-.12c.36-.05.64,0,.85.13.2.13.32.33.36.62.03.28-.03.51-.19.68-.16.18-.43.29-.79.34l-.96.12Z" style="fill: #fff;"/>
    <path d="m52.56,71.02c.22-.22.36-.46.42-.74.06-.27.03-.56-.08-.87-.12-.31-.29-.54-.51-.71-.23-.17-.49-.26-.8-.28-.31-.02-.65.04-1.02.18l-1.71.65,1.57,4.17.77-.29-.46-1.21.94-.35c.06-.02.11-.04.16-.07l1.31.9.83-.31-1.47-1.01s.04-.03.05-.05Zm-2.06.25l-.63-1.66.9-.34c.34-.13.63-.15.85-.08.23.08.39.25.49.52.1.26.09.5-.03.71-.12.21-.35.38-.69.51l-.9.34Z" style="fill: #fff;"/>
    <path d="m54.09,66.94l.54,4.85.73-.43-.14-1.11,1.92-1.13.91.66.74-.44-4-2.81-.7.41Zm1.04,2.61l-.27-2.1,1.71,1.25-1.44.85Z" style="fill: #fff;"/>
    <polygon points="59.48 63.9 59.04 63.36 56.11 65.74 56.55 66.28 57.7 65.35 60.06 68.26 60.71 67.74 58.34 64.83 59.48 63.9" style="fill: #fff;"/>
    <rect x="60.77" y="62.05" width=".83" height="4.45" transform="translate(-27.54 62.42) rotate(-45.21)" style="fill: #fff;"/>
    <polygon points="62.52 59.25 64.92 61.07 61.03 61.2 60.62 61.74 64.16 64.44 64.66 63.79 62.26 61.96 66.15 61.83 66.56 61.29 63.02 58.59 62.52 59.25" style="fill: #fff;"/>
    <path d="m67.14,55.4l-.35.7,1.24.62c0,.1,0,.21-.01.3-.03.22-.09.42-.19.62-.11.21-.24.39-.39.53-.16.14-.33.24-.52.31-.19.06-.39.09-.6.07-.21-.02-.41-.07-.61-.17-.2-.1-.37-.23-.51-.39-.14-.16-.23-.33-.29-.52-.06-.19-.08-.39-.06-.61.02-.21.08-.42.19-.63.11-.22.25-.4.41-.54.16-.14.36-.25.6-.33l-.22-.69c-.31.08-.58.23-.83.44-.25.22-.45.49-.62.83-.16.31-.25.62-.28.93-.03.31,0,.61.08.9.09.29.23.55.42.78.2.23.44.42.74.57.3.15.6.23.9.25.3.02.6-.02.88-.12.28-.1.54-.26.77-.47.23-.21.42-.47.58-.78.14-.28.24-.58.29-.9.05-.32.05-.62-.01-.91l-1.59-.8Z" style="fill: #fff;"/>
  </g>
  <g>
    <rect x="8.76" y="39.12" width="4.55" height="4.19" transform="translate(-25.91 19.87) rotate(-44.99)" style="fill: #fff;"/>
    <rect x="69.12" y="39.12" width="4.55" height="4.19" transform="translate(-8.24 62.54) rotate(-44.99)" style="fill: #fff;"/>
  </g>
  <circle cx="41.21" cy="41.21" r="23.96" style="fill: #fff;"/>
  <g>
    <path d="m37.96,34.45c.79.62,1.86.93,3.21.93s2.47-.31,3.27-.93c.8-.62,1.2-1.48,1.2-2.56,0-1.14-.41-2.02-1.24-2.64-.83-.62-1.9-.93-3.23-.93s-2.36.31-3.17.93c-.81.62-1.22,1.5-1.22,2.64s.39,1.94,1.18,2.56Z" style="fill: none;"/>
    <path d="m45.09,40.97c-.96-.72-2.27-1.08-3.92-1.08s-2.91.36-3.86,1.08c-.95.72-1.42,1.71-1.42,2.99s.47,2.28,1.42,3.01c.95.73,2.24,1.1,3.86,1.1s2.96-.37,3.92-1.1c.96-.73,1.44-1.73,1.44-3.01s-.48-2.27-1.44-2.99Z" style="fill: none;"/>
    <path d="m43.29,56.39c-.14-.08-.31-.12-.49-.12s-.35.04-.49.12c-.14.08-.26.2-.34.35-.08.15-.13.33-.13.54s.04.38.13.54c.08.15.2.27.34.35.14.08.3.12.49.12s.35-.04.5-.12c.15-.08.26-.2.34-.35s.12-.33.12-.54-.04-.39-.12-.54-.2-.27-.34-.35Z" style="fill: none;"/>
    <path d="m31.03,55.71c-.13-.13-.29-.24-.47-.31-.18-.07-.38-.11-.59-.11s-.41.04-.59.11c-.18.07-.34.18-.47.31s-.24.29-.31.47c-.07.18-.11.38-.11.59s.04.41.11.59c.07.18.18.34.31.47.13.13.29.24.47.31s.38.11.59.11.41-.04.59-.11c.18-.07.34-.18.47-.31.13-.13.24-.29.31-.47s.11-.38.11-.59-.04-.42-.11-.59c-.07-.18-.18-.34-.31-.47Z" style="fill: none;"/>
    <path d="m53.48,55.45c-.14-.11-.32-.16-.51-.16s-.36.05-.5.16-.26.27-.34.49c-.08.22-.12.5-.12.84s.04.62.12.84c.08.22.2.39.34.49s.32.16.5.16.37-.05.51-.16c.15-.11.26-.27.34-.49s.12-.5.12-.84-.04-.62-.12-.84-.2-.38-.34-.49Z" style="fill: none;"/>
    <path d="m53.2,44.16c0-1.76-.49-3.26-1.48-4.49-.73-.91-1.67-1.65-2.84-2.23.77-.48,1.42-1.05,1.94-1.71.91-1.15,1.36-2.53,1.36-4.13,0-1.68-.47-3.12-1.4-4.33-.93-1.21-2.22-2.14-3.86-2.8-1.64-.66-3.56-1-5.75-1s-4.04.33-5.69,1c-1.65.66-2.94,1.6-3.86,2.8-.92,1.21-1.38,2.65-1.38,4.33s.45,2.97,1.36,4.13c.52.66,1.17,1.23,1.93,1.71-1.16.58-2.1,1.33-2.83,2.23-.99,1.23-1.48,2.73-1.48,4.49s.5,3.3,1.5,4.61c1,1.31,2.4,2.33,4.19,3.05,1.79.72,3.87,1.08,6.26,1.08s4.52-.36,6.32-1.08c1.8-.72,3.2-1.73,4.21-3.05,1-1.31,1.5-2.85,1.5-4.61Zm-15.2-14.92c.81-.62,1.87-.93,3.17-.93s2.4.31,3.23.93c.83.62,1.24,1.5,1.24,2.64s-.4,1.94-1.2,2.56c-.8.62-1.89.93-3.27.93s-2.43-.31-3.21-.93c-.79-.62-1.18-1.48-1.18-2.56,0-1.14.41-2.02,1.22-2.64Zm7.09,17.72c-.96.73-2.27,1.1-3.92,1.1s-2.91-.37-3.86-1.1c-.95-.73-1.42-1.73-1.42-3.01s.47-2.27,1.42-2.99c.95-.72,2.24-1.08,3.86-1.08s2.96.36,3.92,1.08c.96.72,1.44,1.71,1.44,2.99s-.48,2.28-1.44,3.01Z" style="fill: #306e19;"/>
    <path d="m31.6,55.22c-.21-.2-.45-.35-.72-.46s-.58-.16-.91-.16-.63.05-.91.16-.52.26-.72.46c-.21.2-.36.42-.48.69-.11.26-.17.55-.17.87s.06.6.17.87c.11.26.27.49.48.69.21.2.45.35.72.46s.58.16.91.16.63-.05.9-.16.52-.26.72-.45.36-.42.48-.69.17-.56.17-.87-.06-.6-.17-.87c-.11-.26-.27-.49-.48-.69Zm-.26,2.15c-.07.18-.18.34-.31.47-.13.13-.29.24-.47.31-.18.07-.38.11-.59.11s-.41-.04-.59-.11-.34-.18-.47-.31c-.13-.13-.24-.29-.31-.47-.07-.18-.11-.38-.11-.59s.04-.42.11-.59c.07-.18.18-.34.31-.47s.29-.24.47-.31c.18-.07.38-.11.59-.11s.41.04.59.11c.18.07.34.18.47.31.13.13.24.29.31.47.07.18.11.38.11.59s-.04.42-.11.59Z" style="fill: #306e19;"/>
    <path d="m35.37,57.3c0,.21-.04.39-.11.54-.07.14-.18.25-.31.33-.13.07-.28.11-.46.11-.24,0-.43-.07-.56-.21s-.2-.36-.2-.65v-1.74h-.75v1.84c0,.32.06.59.18.8.12.21.28.37.49.47.21.1.45.15.72.15.25,0,.48-.06.69-.17.14-.07.26-.17.35-.29v.41h.72v-3.22h-.75v1.63Z" style="fill: #306e19;"/>
    <path d="m38.42,58.31c-.14,0-.25-.04-.33-.13-.08-.08-.12-.2-.12-.36v-1.53h.86v-.6h-.86v-.74h-.75v.74h-.53v.6h.53v1.55c0,.36.1.63.29.81s.47.27.82.27c.14,0,.27-.02.4-.05.13-.04.24-.09.33-.16l-.21-.54c-.11.09-.25.13-.42.13Z" style="fill: #306e19;"/>
    <path d="m43.68,55.84c-.26-.14-.56-.21-.89-.21s-.62.07-.88.21c-.26.14-.46.34-.61.58-.15.25-.22.53-.22.85s.07.6.22.85c.15.25.35.45.61.59.26.14.55.21.88.21s.63-.07.89-.21c.26-.14.46-.34.61-.59.15-.25.22-.53.22-.85s-.07-.61-.22-.86c-.15-.25-.35-.44-.61-.58Zm-.05,1.97c-.08.15-.2.27-.34.35-.14.08-.31.12-.5.12s-.34-.04-.49-.12c-.14-.08-.26-.2-.34-.35-.08-.15-.13-.33-.13-.54s.04-.39.13-.54c.08-.15.2-.27.34-.35.14-.08.31-.12.49-.12s.34.04.49.12c.15.08.26.2.34.35s.12.33.12.54-.04.38-.12.54Z" style="fill: #306e19;"/>
    <path d="m46.49,54.37c-.37,0-.66.1-.85.31s-.3.47-.3.81v.21h-.53v.6h.53v2.6h.75v-2.6h.86v-.6h-.89v-.19c0-.17.04-.3.12-.39s.2-.13.36-.13c.08,0,.15.01.22.03.07.02.14.06.19.1l.21-.57c-.08-.06-.18-.1-.3-.13-.12-.03-.24-.04-.38-.04Z" style="fill: #306e19;"/>
    <polygon points="48.69 55.32 49.58 55.32 49.58 58.89 50.36 58.89 50.36 54.67 48.69 54.67 48.69 55.32" style="fill: #306e19;"/>
    <path d="m54.5,55.6c-.15-.32-.37-.57-.63-.74-.27-.17-.57-.25-.91-.25s-.64.08-.9.25-.48.42-.63.74c-.15.32-.23.72-.23,1.18s.08.86.23,1.18.36.57.63.74.57.25.9.25.64-.08.91-.25c.27-.17.48-.42.63-.74.16-.32.23-.72.23-1.18s-.08-.86-.23-1.18Zm-.68,2.02c-.08.22-.2.39-.34.49-.14.11-.32.16-.51.16s-.36-.05-.5-.16-.26-.27-.34-.49c-.08-.22-.12-.5-.12-.84s.04-.62.12-.84c.08-.22.2-.38.34-.49s.32-.16.5-.16.37.05.51.16c.15.11.26.27.34.49s.12.5.12.84-.04.62-.12.84Z" style="fill: #306e19;"/>
  </g>
</svg>