<svg xmlns="http://www.w3.org/2000/svg" width="17294.28" height="4073.66" viewBox="0 0 1729.43 407.37"><path d="M142.09,524.68q-24.16-12.48-37.27-35t-13.11-52V343q0-29.49,13.11-52a88.38,88.38,0,0,1,37.27-34.81q24.16-12.28,56.12-12.29,31.53,0,55.5,11.67T291,288.75q13.31,21.51,13.31,49.77c0,2.46-1.63,4-4.91,4.5l-47.92,2.87h-.82c-2.74,0-4.1-1.5-4.1-4.5q0-21.7-13.31-34.82t-35-13.11q-22.12,0-35.43,13.11t-13.32,34.82V440.1q0,21.3,13.32,34.41t35.43,13.1q21.71,0,35-13.1t13.31-34.41c0-3,1.64-4.51,4.92-4.51l47.92,2.05a5.18,5.18,0,0,1,3.48,1.23,3.71,3.71,0,0,1,1.43,2.87q0,28.26-13.31,50T253.71,525.3q-24,11.88-55.5,11.88Q166.26,537.18,142.09,524.68Z" transform="translate(-91.71 -243.9)" fill="#505050"/><path d="M473.05,329.3q20.9,9.22,32.56,25.19a59,59,0,0,1,11.68,35.64V529a4.9,4.9,0,0,1-4.92,4.92H464.45a4.9,4.9,0,0,1-4.92-4.92V515.47a1.64,1.64,0,0,0-.82-1.64c-.55-.27-1.09,0-1.64.82q-17.2,22.53-55.29,22.53-31.95,0-51.61-15.57t-19.66-45.87q0-31.55,22.11-48.95t63.08-17.41h41.78a1.81,1.81,0,0,0,2-2.05v-9q0-13.51-8.19-21.09t-24.58-7.58q-12.69,0-21.09,4.5t-10.86,12.7c-.81,3-2.59,4.37-5.32,4.1l-49.56-6.56q-4.92-.81-4.51-3.68,1.63-17.2,13.72-31.13t31.95-21.71q19.86-7.77,44.44-7.78Q452.16,320.09,473.05,329.3ZM447.24,484.75q12.3-9.42,12.29-24.17V445.83a1.81,1.81,0,0,0-2-2H428q-18.44,0-28.87,7t-10.45,19.66q0,11.05,7.78,17.41t20.89,6.35Q435,494.17,447.24,484.75Z" transform="translate(-91.71 -243.9)" fill="#505050"/><path d="M686,326.23c2.18,1.1,3,3.14,2.46,6.15l-8.6,46.69q-.42,4.92-5.74,2.87a45.19,45.19,0,0,0-14.33-2.05,67,67,0,0,0-9,.82,40.29,40.29,0,0,0-25,10.85q-10.25,9.63-10.24,25.6V529a4.88,4.88,0,0,1-4.91,4.92H562.75a4.88,4.88,0,0,1-4.91-4.92V328.28a4.9,4.9,0,0,1,4.91-4.92h47.93a4.9,4.9,0,0,1,4.91,4.92v15.56a1.64,1.64,0,0,0,.82,1.64.81.81,0,0,0,1.23-.41q16.79-24.57,45.05-24.57Q677.45,320.5,686,326.23Z" transform="translate(-91.71 -243.9)" fill="#505050"/><path d="M763.05,524.68a89.62,89.62,0,0,1-37.28-35q-13.11-22.52-13.11-52V343q0-29.49,13.11-52a88.4,88.4,0,0,1,37.28-34.81q24.15-12.28,56.11-12.29,31.55,0,55.5,11.67t37.28,33.18q13.3,21.51,13.31,49.77,0,3.69-4.92,4.5l-47.92,2.87h-.82q-4.1,0-4.1-4.5,0-21.7-13.31-34.82t-35-13.11q-22.11,0-35.43,13.11t-13.31,34.82V440.1q0,21.3,13.31,34.41t35.43,13.1q21.71,0,35-13.1t13.31-34.41c0-3,1.64-4.51,4.92-4.51l47.92,2.05a5.16,5.16,0,0,1,3.48,1.23,3.69,3.69,0,0,1,1.44,2.87q0,28.26-13.31,50T874.66,525.3q-24,11.88-55.5,11.88Q787.21,537.18,763.05,524.68Z" transform="translate(-91.71 -243.9)" fill="#505050"/><path d="M1126.36,340.16q20.06,20.07,20.07,54.47V529a4.88,4.88,0,0,1-4.92,4.92h-47.92a4.9,4.9,0,0,1-4.92-4.92V406.51q0-16.38-9.21-26.62t-24.37-10.24q-15.16,0-24.37,10.24t-9.22,26.62V529a4.88,4.88,0,0,1-4.92,4.92H968.66a4.88,4.88,0,0,1-4.91-4.92V252.09a4.88,4.88,0,0,1,4.91-4.91h47.92a4.88,4.88,0,0,1,4.92,4.91v90.53a1.64,1.64,0,0,0,.82,1.63.81.81,0,0,0,1.23-.41q16.79-23.74,50-23.75Q1106.28,320.09,1126.36,340.16Z" transform="translate(-91.71 -243.9)" fill="#505050"/><path d="M1374.58,441.74c-.28,3.28-2,4.91-5.33,4.91H1242.69c-1.64,0-2.19.69-1.64,2.05a73.51,73.51,0,0,0,4.5,16.39Q1256.2,488,1289,488q26.21-.4,41.37-21.3,1.64-2.45,3.69-2.45a4.53,4.53,0,0,1,2.87,1.64L1366.39,495c1.36,1.37,2,2.6,2,3.68,0,.55-.56,1.64-1.64,3.28A89.25,89.25,0,0,1,1332,528a116.42,116.42,0,0,1-46.69,9.22q-35.24,0-59.6-16t-35-44.64q-8.61-20.49-8.6-53.66,0-22.53,6.14-39.73,9.42-29.09,33-46.29t55.91-17.2q41,0,65.74,23.75t30.11,63.49A176.64,176.64,0,0,1,1374.58,441.74Zm-131.07-47.92a95.74,95.74,0,0,0-2.87,13.1,1.81,1.81,0,0,0,2,2.05h70.86c1.64,0,2.18-.68,1.64-2.05q-2.06-11.87-2-11.47-3.69-12.29-12.9-19t-22.74-6.76Q1251.7,369.65,1243.51,393.82Z" transform="translate(-91.71 -243.9)" fill="#505050"/><path d="M1446.05,520.79q-24-16.38-34.2-45-7-20.49-7-48.34,0-27.43,7-47.51a84.94,84.94,0,0,1,34-43.83q24.17-16,56.93-16t57.55,16.38q24.78,16.39,33,41.37,3.29,9.82,3.28,14.75v.82c0,2.45-1.37,4-4.1,4.5l-47.1,7h-.82q-3.69,0-4.92-4.1l-1.22-6.55q-2.88-10.65-12.7-17.62t-23.35-7q-13.11,0-22.12,6.55a34.72,34.72,0,0,0-12.7,18q-4.5,12.28-4.5,33.58t4.1,33.59q3.67,12.28,12.9,19.25t22.32,7a37.89,37.89,0,0,0,22.32-6.75A34.58,34.58,0,0,0,1538,462.22a5.75,5.75,0,0,0,.41-2.46,1.72,1.72,0,0,0,.41-1.23c.26-3.27,2.18-4.64,5.73-4.09l47.1,7.37q4.1.82,4.1,4.51,0,3.27-2.46,12.28-8.6,27.45-33.38,43t-57.14,15.57Q1470,537.18,1446.05,520.79Z" transform="translate(-91.71 -243.9)" fill="#505050"/><path d="M1631.6,532.47a4.75,4.75,0,0,1-1.44-3.49V252.09a4.9,4.9,0,0,1,4.92-4.91H1683a4.9,4.9,0,0,1,4.92,4.91v138c0,.82.27,1.3.82,1.43a1.68,1.68,0,0,0,1.63-.61l55.71-64.72a8.62,8.62,0,0,1,6.14-2.87h54.48q4.1,0,4.1,2.87a7,7,0,0,1-1.23,3.28l-52,65.94a3.69,3.69,0,0,0-.41,2.87l61,129.85a6.39,6.39,0,0,1,.82,2.45q0,3.28-4.51,3.28H1764.1a5.79,5.79,0,0,1-5.73-3.69l-40.55-95.84a2,2,0,0,0-1.44-1,1.17,1.17,0,0,0-1.43.62l-26.21,32.76a6.3,6.3,0,0,0-.82,2.46V529a4.9,4.9,0,0,1-4.92,4.92h-47.92A4.7,4.7,0,0,1,1631.6,532.47Z" transform="translate(-91.71 -243.9)" fill="#505050"/><path d="M737.82,650.4h-12.4V582h12.4Zm59.2,0h-17.6l-27.91-27.95h-8.73V610h8.73l27.91-28H797l-35.16,34.2Z" transform="translate(-91.71 -243.9)" fill="#f04c4b"/><path d="M871.81,644.16a6.29,6.29,0,0,1-.48,2.47,5.69,5.69,0,0,1-1.34,2,6.25,6.25,0,0,1-4.43,1.79H837.61a38.2,38.2,0,0,1-8-.86,35.66,35.66,0,0,1-7.84-2.64,33.16,33.16,0,0,1-7.13-4.56,29.52,29.52,0,0,1-5.85-6.56,31.64,31.64,0,0,1-3.93-8.68,38.52,38.52,0,0,1-1.43-10.9V582h12.4v34.2a23.93,23.93,0,0,0,1.45,8.88,19.71,19.71,0,0,0,3.7,6,17.93,17.93,0,0,0,4.91,3.82,26.49,26.49,0,0,0,5.08,2,23.87,23.87,0,0,0,4.25.83c1.22.12,2,.17,2.41.17h21.8V582h12.4Z" transform="translate(-91.71 -243.9)" fill="#f04c4b"/><path d="M973.55,582,962.1,646.11a6.51,6.51,0,0,1-1.72,3.29,6.11,6.11,0,0,1-3.24,1.77,6.37,6.37,0,0,1-3.7-.43,6,6,0,0,1-2.74-2.39L928,611.05l-22.75,37.3A5.64,5.64,0,0,1,903,650.5a6.25,6.25,0,0,1-3,.76,6,6,0,0,1-4-1.43,5.89,5.89,0,0,1-2.1-3.72L882.4,582H895l8.2,45.17L922.75,596a5.67,5.67,0,0,1,2.22-2.15,6.3,6.3,0,0,1,3-.76,6.2,6.2,0,0,1,3,.76,6.45,6.45,0,0,1,2.29,2.15l19.46,31.19L961,582Z" transform="translate(-91.71 -243.9)" fill="#f04c4b"/><path d="M1049.29,604.9a24.87,24.87,0,0,1-1.07,7.58,22.21,22.21,0,0,1-2.84,5.89,19.12,19.12,0,0,1-4.13,4.37,25.52,25.52,0,0,1-4.89,3,22.93,22.93,0,0,1-5.12,1.69,24.89,24.89,0,0,1-4.89.53h-5V650.4h-12.5V627.94h-5a24.89,24.89,0,0,1-4.89-.53,23.51,23.51,0,0,1-5.15-1.69,24.92,24.92,0,0,1-4.89-3,19.75,19.75,0,0,1-4.12-4.37,21.65,21.65,0,0,1-2.87-5.91,25,25,0,0,1-1.07-7.56V582h12.4v22.9a11.73,11.73,0,0,0,.77,4.36,9.5,9.5,0,0,0,2.14,3.32,9.26,9.26,0,0,0,3.37,2.12,12.55,12.55,0,0,0,4.41.74h22.37c1.17-.19,2.38-.44,3.62-.74a9.69,9.69,0,0,0,3.39-1.55,8.37,8.37,0,0,0,2.53-3,11.6,11.6,0,0,0,1-5.2V582h12.4Z" transform="translate(-91.71 -243.9)" fill="#f04c4b"/><path d="M1152.65,650.4h-44.74a19,19,0,0,1-7.61-1.67,18.22,18.22,0,0,1-3.69-2.21,15.16,15.16,0,0,1-3.13-3.3,16.37,16.37,0,0,1-2.17-4.48,19,19,0,0,1-.81-5.75V599.41a18.51,18.51,0,0,1,.41-3.69,18.94,18.94,0,0,1,1.26-3.91,17.56,17.56,0,0,1,2.24-3.7,15.21,15.21,0,0,1,3.32-3.12,16.23,16.23,0,0,1,4.46-2.17,18.67,18.67,0,0,1,5.72-.82h44.74v12.41h-44.74a5,5,0,0,0-3.72,1.28,5.18,5.18,0,0,0-1.29,3.82V633a4.56,4.56,0,0,0,5,5h44.74Z" transform="translate(-91.71 -243.9)" fill="#f04c4b"/><path d="M1231.5,650.4h-12.4V633.61h-43.6V650.4h-12.4V616.2a36.19,36.19,0,0,1,2.57-13.78,32.24,32.24,0,0,1,7.16-10.83,32.6,32.6,0,0,1,10.83-7.06A36.11,36.11,0,0,1,1197.3,582h28a6.22,6.22,0,0,1,4.43,1.82,6.06,6.06,0,0,1,1.34,2,6.2,6.2,0,0,1,.48,2.43Zm-56-29.19h43.6v-26.8h-21.8c-.38,0-1.19.05-2.41.16a24,24,0,0,0-4.25.84,26.49,26.49,0,0,0-5.08,2.05,17.89,17.89,0,0,0-4.91,3.81,19.69,19.69,0,0,0-3.7,6.09,23.89,23.89,0,0,0-1.45,8.84Z" transform="translate(-91.71 -243.9)" fill="#f04c4b"/><path d="M1314.25,605a25.25,25.25,0,0,1-1,7.58,21.45,21.45,0,0,1-2.83,5.89,20,20,0,0,1-4.13,4.36,25,25,0,0,1-4.89,3,24,24,0,0,1-5.15,1.69,24.69,24.69,0,0,1-4.89.52l25.9,22.37H1298L1272.18,628h-8.92v-12.4h28a14.28,14.28,0,0,0,4.27-1,10.52,10.52,0,0,0,3.34-2.12,9,9,0,0,0,2.17-3.22,11.35,11.35,0,0,0,.76-4.31v-7.83a3.94,3.94,0,0,0-.26-1.6,2,2,0,0,0-.67-.81,2.13,2.13,0,0,0-.86-.31c-.3,0-.58,0-.83,0H1258.3v56h-12.4V588.25a6.2,6.2,0,0,1,.48-2.43,6.31,6.31,0,0,1,1.31-2,6,6,0,0,1,2-1.34,6.34,6.34,0,0,1,2.48-.48h47.08a14.85,14.85,0,0,1,7,1.51,14.21,14.21,0,0,1,4.65,3.77,14.83,14.83,0,0,1,2.58,4.88,17.32,17.32,0,0,1,.78,4.92Z" transform="translate(-91.71 -243.9)" fill="#f04c4b"/><path d="M1426.2,635.38a16.94,16.94,0,0,1-.79,4.91,14.38,14.38,0,0,1-2.57,4.87,14.61,14.61,0,0,1-4.65,3.74,15,15,0,0,1-7,1.5H1364.1a6.52,6.52,0,0,1-2.48-.47,5.93,5.93,0,0,1-2-1.32,5.76,5.76,0,0,1-1.31-2,6.29,6.29,0,0,1-.48-2.47V588.25a6.36,6.36,0,0,1,1.79-4.43,5.83,5.83,0,0,1,2-1.34,6.34,6.34,0,0,1,2.48-.48h41.49a16.76,16.76,0,0,1,4.92.82,15,15,0,0,1,4.89,2.6,14.18,14.18,0,0,1,3.76,4.65,14.8,14.8,0,0,1,1.51,7v2.33a25.65,25.65,0,0,1-1.1,7.09,23.42,23.42,0,0,1-3.53,7.18,21.26,21.26,0,0,1,3.93,3.1,19.58,19.58,0,0,1,3.22,4.19,22,22,0,0,1,2.2,5.39,25.52,25.52,0,0,1,.81,6.63ZM1413.8,633a12,12,0,0,0-.76-4.36,9.76,9.76,0,0,0-2.15-3.32,9.31,9.31,0,0,0-3.34-2.12,12.4,12.4,0,0,0-4.39-.74h-28V610h22.37a12.44,12.44,0,0,0,4.39-.74,9.42,9.42,0,0,0,3.34-2.13,9.27,9.27,0,0,0,2.12-3.31,12.21,12.21,0,0,0,.74-4.37v-2.33q0-2.67-2.58-2.67h-35.34V638h40.92a6.49,6.49,0,0,0,.82,0,1.76,1.76,0,0,0,1.52-1.09,3.59,3.59,0,0,0,.29-1.58Z" transform="translate(-91.71 -243.9)" fill="#f04c4b"/><path d="M1503.61,644.16a6.47,6.47,0,0,1-.47,2.47,5.83,5.83,0,0,1-1.34,2,6.33,6.33,0,0,1-2,1.32,6.45,6.45,0,0,1-2.43.47h-28a38,38,0,0,1-8-.86,35.74,35.74,0,0,1-7.85-2.64,33.65,33.65,0,0,1-7.13-4.56,29.73,29.73,0,0,1-5.84-6.56,31.64,31.64,0,0,1-3.93-8.68,38.51,38.51,0,0,1-1.44-10.9V582h12.41v34.2a23.93,23.93,0,0,0,1.45,8.88,19.52,19.52,0,0,0,3.7,6,17.78,17.78,0,0,0,4.91,3.82,26.24,26.24,0,0,0,5.08,2,24,24,0,0,0,4.24.83c1.23.12,2,.17,2.41.17h21.8V582h12.4Z" transform="translate(-91.71 -243.9)" fill="#f04c4b"/><path d="M1586.37,605a25.25,25.25,0,0,1-1,7.58,21.47,21.47,0,0,1-2.84,5.89,19.93,19.93,0,0,1-4.12,4.36,25,25,0,0,1-4.89,3,24,24,0,0,1-5.15,1.69,24.84,24.84,0,0,1-4.89.52l25.9,22.37h-19.18L1544.3,628h-8.92v-12.4h28a14.35,14.35,0,0,0,4.27-1,10.48,10.48,0,0,0,3.33-2.12,8.9,8.9,0,0,0,2.17-3.22A11.35,11.35,0,0,0,1574,605v-7.83a3.94,3.94,0,0,0-.26-1.6,2,2,0,0,0-.67-.81,2.13,2.13,0,0,0-.86-.31,8.39,8.39,0,0,0-.84,0h-40.92v56H1518V588.25a6.36,6.36,0,0,1,1.79-4.43,5.83,5.83,0,0,1,2-1.34,6.34,6.34,0,0,1,2.48-.48h47.07a14.87,14.87,0,0,1,7,1.51,14.42,14.42,0,0,1,4.65,3.77,14.61,14.61,0,0,1,2.57,4.88,17,17,0,0,1,.79,4.92Z" transform="translate(-91.71 -243.9)" fill="#f04c4b"/><path d="M1660.63,650.4h-44.74a20,20,0,0,1-5.62-.9,16.42,16.42,0,0,1-10-8.37,17.34,17.34,0,0,1-1.74-8.14V588.25a6.2,6.2,0,0,1,.48-2.43,6.31,6.31,0,0,1,1.31-2,6,6,0,0,1,2-1.34,6.34,6.34,0,0,1,2.48-.48h55.85v12.41h-49.7V633a5,5,0,0,0,1.29,3.72A5.11,5.11,0,0,0,1616,638h44.64Zm-5.58-27.95h-39.16V610h39.16Z" transform="translate(-91.71 -243.9)" fill="#f04c4b"/><path d="M1739.72,650.4h-12.4V633.61h-43.6V650.4h-12.4V616.2a36,36,0,0,1,2.58-13.78,32.07,32.07,0,0,1,7.15-10.83,32.6,32.6,0,0,1,10.83-7.06,36.11,36.11,0,0,1,13.64-2.53h28a6.2,6.2,0,0,1,2.43.48,6.27,6.27,0,0,1,2,1.34,6.27,6.27,0,0,1,1.81,4.43Zm-56-29.19h43.6v-26.8h-21.8c-.38,0-1.19.05-2.41.16a23.89,23.89,0,0,0-4.24.84,26.24,26.24,0,0,0-5.08,2.05,17.78,17.78,0,0,0-4.92,3.81,19.67,19.67,0,0,0-3.69,6.09,23.88,23.88,0,0,0-1.46,8.84Z" transform="translate(-91.71 -243.9)" fill="#f04c4b"/><path d="M1821.14,644.16a6.29,6.29,0,0,1-.48,2.47,5.8,5.8,0,0,1-1.33,2,6.3,6.3,0,0,1-4.44,1.79h-28a38,38,0,0,1-8-.86,35.57,35.57,0,0,1-7.85-2.64,33.16,33.16,0,0,1-7.13-4.56,29.48,29.48,0,0,1-5.84-6.56,31.66,31.66,0,0,1-3.94-8.68,38.88,38.88,0,0,1-1.43-10.9V582h12.4v34.2a23.92,23.92,0,0,0,1.46,8.88,19.7,19.7,0,0,0,3.69,6,17.82,17.82,0,0,0,4.92,3.82,26.24,26.24,0,0,0,5.08,2,23.78,23.78,0,0,0,4.24.83c1.22.12,2,.17,2.41.17h21.8V582h12.4Z" transform="translate(-91.71 -243.9)" fill="#f04c4b"/></svg>