<?xml version="1.0"?>
<svg xmlns="http://www.w3.org/2000/svg" xmlnsXlink="http://www.w3.org/1999/xlink" xmlnsSvgjs="http://svgjs.com/svgjs" version="1.1" width="512" height="512" x="0" y="0" viewBox="0 0 54 60" style="enable-background:new 0 0 512 512" xmlSpace="preserve" class=""><g><path xmlns="http://www.w3.org/2000/svg" id="Shape" d="m.54 55.868c4.883 3.056 13.384 4.379 19.148 4.841 9.433.757 25.847.118 33.772-4.841.3070186-.1916774.4865006-.5342927.4692848-.8958231-.0172157-.3615304-.2284418-.6855405-.5522848-.8471769-.842-.418-3.421-1.832-4.694-2.559-6.673-3.888-5.333-.081-12.683-7v-5.815c1.918-1.818 3.012-3.405 3.135-6.178 1.1701045-.553095 2.1429792-1.4509452 2.788-2.573.4441635.0345795.8576344-.2288349 1.014-.646.181-.485 4.383-11.96-.071-19.689-4.181-7.259-12.632-11.497-19.166-6.497-4.0031965-.36428955-7.9270103 1.27743592-10.478 4.384-3.563 4.415-2.135 11.369-1.42 13.978-1.347 1.344-.869 4.558-.654 5.662.2422542 2.3144584 1.6423125 4.3478944 3.718 5.4.126 2.749 1.21 4.336 3.134 6.159v5.819c-1.4213754 1.3903936-2.963807 2.6513791-4.609 3.768-.8290902.4915459-1.732522.8451508-2.675 1.047-2.895.512-4.471 1.741-9.629 4.5-.426.228-.982.394-1.016 1.083-.01882119.3629348.16074099.7075104.469.9zm47.144-2.568c1.031.59 2.078 1.164 3.129 1.732-3.9680213 1.6672417-8.155231 2.7550473-12.433 3.23 1.7506447-2.0645115 2.9062902-4.5666241 3.343-7.238 1.728.589 2.525.276 5.961 2.276zm-8.584-23.03c-.115585-1.5632602.0266453-3.1348887.421-4.652.4499069.743013.8279506 1.5272277 1.129 2.342-.275119.9071646-.814839 1.7115215-1.55 2.31zm-24.322-21.462c2.2077529-2.66751719 5.6218458-4.02727514 9.059-3.608.2853143.04627052.5767464-.03241616.8-.216 5.575-4.6 12.9-.56 16.5 5.678 2.732 4.743 1.7 11.4.769 15.145-2.4272827-4.4390481-6.05127-8.1080755-10.46-10.59-2.845-1.418-4.267 0-3.872 2.486-6.32-1.803-6.574-4.563-6.574-4.563 0-.5522847-.4477153-1-1-1-1.993 0-5.421 1.075-5.987 8.272-.009.1 0 .232.017.656-.092-.016-.191-.025-.29-.035-.586-2.158-1.955-8.517 1.038-12.225zm-1.64 18.173c-.0029818-.0423761-.0089972-.084484-.018-.126-.36-1.819-.255-3.671.051-3.876.3423922-.0157667.6834073.0529171.993.2.347 3.558.889 3.779.737 7.09-.9875083-.8294123-1.6186498-2.006493-1.763-3.288zm3.8 2.039c0-2.6-.81-3.743-.929-8.5.214-2.642.959-5.718 3.217-6.286.572 1.545 2.577 4.291 9.556 5.834.3621115.0801117.7388208-.0467601.9786898-.3296126s.3034988-.6752267.1653102-1.0193874c-.2818235-.6541093-.4241854-1.3597885-.418-2.072.368559.0548696.7238358.1772503 1.048.361 2.80667 1.5868459 5.2787039 3.7033063 7.279 6.232-.232 2.29-.777 3.846-.777 5.782 0 3.272.763 5.357-2.223 8.07-1.1121631 1.0597406-2.0971305 2.2453931-2.935 3.533-1.15 1.689-1.678 2.375-3.2 2.375h-3.4c-2.759 0-2.609-2.7-6.138-5.91-2.983-2.711-2.222-4.85-2.222-8.07zm1.062 18.258v1.722c0 .5522847.4477153 1 1 1s1-.4477153 1-1v-7.893c1.474 2.093 2.413 3.893 5.3 3.893 5.5 0 5.659.436 8.7-3.893v7.893c0 .5522847.4477153 1 1 1s1-.4477153 1-1v-1.722c1.1736997 1.1041194 2.4612404 2.0805855 3.841 2.913-.366 2.282-1.617 7.175-5.708 8.527-4.7442482.3754996-9.5107518.3754996-14.255 0-4.1-1.348-5.353-6.244-5.718-8.528 1.3792034-.8323953 2.6663807-1.8085048 3.84-2.912zm-11.677 6.016c3.413-1.987 4.24-1.685 5.954-2.27.4371469 2.6712419 1.5927407 5.1732426 3.343 7.238-4.2777735-.476111-8.46491335-1.564572-12.433-3.232 1.052-.568 2.09733333-1.1466667 3.136-1.736z" transform="translate(0 -1)" fill="#fb4848" data-original="#000000" style="" class=""/></g></svg>
