
<svg xmlns="http://www.w3.org/2000/svg" xmlSpace="preserve" width="32.2958mm" height="32.2958mm" version="1.1" shape-rendering="geometricPrecision" text-rendering="geometricPrecision" image-rendering="optimizeQuality" fill-rule="evenodd" clip-rule="evenodd"
viewBox="0 0 60.69 60.69"
 xmlnsXlink="http://www.w3.org/1999/xlink"
 xmlnsXodm="http://www.corel.com/coreldraw/odm/2003">
 <defs>
    <clipPath id="id0">
     <path d="M30.34 0c16.76,0 30.34,13.59 30.34,30.34 0,16.76 -13.59,30.34 -30.34,30.34 -16.76,0 -30.34,-13.59 -30.34,-30.34 0,-16.76 13.59,-30.34 30.34,-30.34z"/>
    </clipPath>
 </defs>
 <g id="Layer_x0020_1">
  <metadata id="CorelCorpID_0Corel-Layer"/>
  <g id="_1185518042416">
   <path fill="#FEFEFE" d="M30.34 0c16.76,0 30.34,13.59 30.34,30.34 0,16.76 -13.59,30.34 -30.34,30.34 -16.76,0 -30.34,-13.59 -30.34,-30.34 0,-16.76 13.59,-30.34 30.34,-30.34z"/>
   <g clip-path="url(#id0)">
    <g>
     <path id="_1" fill="none" stroke="#009846" stroke-width="10.61" stroke-miterlimit="22.9256" d="M30.34 0c0,0 0,0 0,0 16.71,0 30.27,13.51 30.34,30.22"/>
     <path fill="none" stroke="#00A0E3" stroke-width="10.61" stroke-miterlimit="22.9256" d="M-0 30.34c0,-16.76 13.59,-30.34 30.34,-30.34"/>
     <path fill="none" stroke="#EF7F1A" stroke-width="10.61" stroke-miterlimit="22.9256" d="M30.34 60.69c-16.76,0 -30.34,-13.59 -30.34,-30.34 0,0 0,0 0,-0"/>
     <path fill="none" stroke="#E31E24" stroke-width="10.61" stroke-miterlimit="22.9256" d="M60.69 30.22c0,0.04 0,0.08 0,0.13 0,16.76 -13.59,30.34 -30.34,30.34 0,0 0,0 0,0"/>
     <line fill="none" stroke="#2B2A29" stroke-width="0.38" stroke-miterlimit="22.9256" x1="108.47" y1="19.49" x2="108.47" y2= "80.18" />
     <line fill="none" stroke="#2B2A29" stroke-width="0.38" stroke-miterlimit="22.9256" x1="169.79" y1="22.62" x2="109.1" y2= "22.62" />
    </g>
   </g>
   <path fill="none" d="M30.34 0c16.76,0 30.34,13.59 30.34,30.34 0,16.76 -13.59,30.34 -30.34,30.34 -16.76,0 -30.34,-13.59 -30.34,-30.34 0,-16.76 13.59,-30.34 30.34,-30.34z"/>
   <path fill="#3A67AF" stroke="#FEFEFE" stroke-width="0.38" stroke-linejoin="round" stroke-miterlimit="22.9256" d="M6.46 6.58c2.63,-1.1 5.66,0.14 6.76,2.77 1.1,2.63 -0.14,5.66 -2.77,6.76 -2.63,1.1 -5.66,-0.14 -6.76,-2.77 -1.1,-2.63 0.14,-5.66 2.77,-6.76z"/>
   <path fill="#F8F8F9" fill-rule="nonzero" d="M7.62 13.5c-0.17,0 -0.34,-0.07 -0.47,-0.2l-1.67 -1.67c-0.26,-0.26 -0.26,-0.69 0,-0.95 0.26,-0.26 0.69,-0.26 0.95,0l1.2 1.2 2.87 -2.87c0.26,-0.26 0.69,-0.26 0.95,0 0.26,0.26 0.26,0.69 0,0.95l-3.34 3.34c-0.13,0.13 -0.3,0.2 -0.47,0.2z"/>
   <g>
    <path fill="#FA4747" fill-rule="nonzero" d="M23.13 18.39l-1.35 0 -2.15 -2.15 -0.67 0 0 -0.96 0.67 0 2.15 -2.15 1.35 0 -2.71 2.63 2.71 2.63zm-4.56 0l-0.95 0 0 -5.26 0.95 0 0 5.26zm10.31 -0.48c0,0.07 -0.01,0.13 -0.04,0.19 -0.02,0.06 -0.06,0.11 -0.1,0.15 -0.04,0.04 -0.1,0.08 -0.15,0.1 -0.06,0.02 -0.12,0.04 -0.19,0.04l-2.15 0c-0.2,0 -0.41,-0.02 -0.62,-0.07 -0.21,-0.04 -0.41,-0.11 -0.6,-0.2 -0.19,-0.09 -0.38,-0.21 -0.55,-0.35 -0.17,-0.14 -0.32,-0.31 -0.45,-0.5 -0.13,-0.19 -0.23,-0.42 -0.3,-0.67 -0.07,-0.25 -0.11,-0.53 -0.11,-0.84l0 -2.63 0.95 0 0 2.63c0,0.27 0.04,0.5 0.11,0.68 0.07,0.19 0.17,0.34 0.28,0.47 0.11,0.13 0.24,0.22 0.38,0.29 0.14,0.07 0.27,0.12 0.39,0.16 0.12,0.03 0.23,0.05 0.33,0.06 0.09,0.01 0.16,0.01 0.19,0.01l1.68 0 0 -4.31 0.95 0 0 4.78zm7.83 -4.78l-0.88 4.93c-0.02,0.1 -0.06,0.18 -0.13,0.25 -0.07,0.07 -0.15,0.12 -0.25,0.14 -0.1,0.02 -0.2,0.01 -0.28,-0.03 -0.09,-0.04 -0.16,-0.1 -0.21,-0.18l-1.75 -2.87 -1.75 2.87c-0.04,0.07 -0.1,0.13 -0.17,0.17 -0.07,0.04 -0.15,0.06 -0.23,0.06 -0.12,0 -0.22,-0.04 -0.3,-0.11 -0.09,-0.07 -0.14,-0.17 -0.16,-0.29l-0.89 -4.93 0.97 0 0.63 3.48 1.51 -2.4c0.04,-0.07 0.1,-0.13 0.17,-0.17 0.07,-0.04 0.15,-0.06 0.23,-0.06 0.08,0 0.16,0.02 0.23,0.06 0.07,0.04 0.13,0.1 0.18,0.17l1.5 2.4 0.63 -3.48 0.97 0zm6.36 1.76c0,0.22 -0.03,0.41 -0.08,0.58 -0.06,0.17 -0.13,0.32 -0.22,0.45 -0.09,0.13 -0.2,0.24 -0.32,0.34 -0.12,0.09 -0.25,0.17 -0.38,0.23 -0.13,0.06 -0.26,0.1 -0.39,0.13 -0.13,0.03 -0.26,0.04 -0.38,0.04l-0.38 0 0 1.73 -0.96 0 0 -1.73 -0.38 0c-0.12,0 -0.24,-0.01 -0.38,-0.04 -0.13,-0.03 -0.27,-0.07 -0.4,-0.13 -0.13,-0.06 -0.26,-0.14 -0.38,-0.23 -0.12,-0.09 -0.23,-0.21 -0.32,-0.34 -0.09,-0.13 -0.17,-0.28 -0.22,-0.46 -0.05,-0.17 -0.08,-0.37 -0.08,-0.58l0 -1.76 0.95 0 0 1.76c0,0.13 0.02,0.24 0.06,0.34 0.04,0.1 0.09,0.18 0.17,0.26 0.07,0.07 0.16,0.13 0.26,0.16 0.1,0.04 0.22,0.06 0.34,0.06l1.72 0c0.09,-0.02 0.18,-0.03 0.28,-0.06 0.1,-0.02 0.18,-0.06 0.26,-0.12 0.08,-0.06 0.14,-0.14 0.19,-0.24 0.05,-0.1 0.08,-0.23 0.08,-0.4l0 -1.76 0.95 0 0 1.76z"/>
    <path fill="#5B5B5B" fill-rule="nonzero" d="M8.46 23.63c0,-0.53 0.11,-1 0.34,-1.42 0.23,-0.42 0.55,-0.74 0.96,-0.97 0.41,-0.23 0.88,-0.35 1.4,-0.35 0.64,0 1.18,0.17 1.64,0.51 0.45,0.34 0.76,0.8 0.91,1.38l-1.44 0c-0.11,-0.22 -0.26,-0.4 -0.46,-0.51 -0.2,-0.12 -0.42,-0.18 -0.67,-0.18 -0.4,0 -0.73,0.14 -0.98,0.42 -0.25,0.28 -0.38,0.66 -0.38,1.13 0,0.47 0.13,0.84 0.38,1.13 0.25,0.28 0.58,0.42 0.98,0.42 0.25,0 0.47,-0.06 0.67,-0.18 0.2,-0.12 0.35,-0.29 0.46,-0.51l1.44 0c-0.15,0.58 -0.46,1.04 -0.91,1.37 -0.45,0.33 -1,0.5 -1.64,0.5 -0.52,0 -0.99,-0.12 -1.4,-0.35 -0.41,-0.23 -0.73,-0.56 -0.96,-0.97 -0.23,-0.41 -0.34,-0.89 -0.34,-1.42zm9.4 1.75l-2.01 0 -0.32 0.95 -1.37 0 1.94 -5.38 1.52 0 1.94 5.38 -1.39 0 -0.32 -0.95zm-0.34 -1.01l-0.67 -1.97 -0.66 1.97 1.32 0zm5.38 1.96l-1.12 -2.03 -0.31 0 0 2.03 -1.31 0 0 -5.38 2.2 0c0.42,0 0.78,0.07 1.08,0.22 0.3,0.15 0.52,0.35 0.67,0.61 0.15,0.26 0.22,0.54 0.22,0.86 0,0.36 -0.1,0.68 -0.3,0.96 -0.2,0.28 -0.5,0.48 -0.89,0.6l1.24 2.13 -1.48 0zm-1.43 -2.96l0.81 0c0.24,0 0.42,-0.06 0.54,-0.18 0.12,-0.12 0.18,-0.28 0.18,-0.5 0,-0.2 -0.06,-0.36 -0.18,-0.48 -0.12,-0.12 -0.3,-0.18 -0.54,-0.18l-0.81 0 0 1.33zm7.34 3.01c-0.4,0 -0.76,-0.07 -1.08,-0.2 -0.32,-0.13 -0.57,-0.32 -0.76,-0.58 -0.19,-0.26 -0.29,-0.56 -0.3,-0.92l1.42 0c0.02,0.2 0.09,0.36 0.21,0.47 0.12,0.11 0.28,0.16 0.47,0.16 0.2,0 0.35,-0.05 0.47,-0.14 0.11,-0.09 0.17,-0.22 0.17,-0.38 0,-0.14 -0.05,-0.25 -0.14,-0.34 -0.09,-0.09 -0.2,-0.16 -0.34,-0.22 -0.13,-0.06 -0.32,-0.12 -0.57,-0.2 -0.35,-0.11 -0.64,-0.22 -0.87,-0.33 -0.22,-0.11 -0.42,-0.27 -0.58,-0.49 -0.16,-0.21 -0.24,-0.49 -0.24,-0.84 0,-0.51 0.19,-0.91 0.56,-1.2 0.37,-0.29 0.85,-0.43 1.45,-0.43 0.61,0 1.09,0.14 1.46,0.43 0.37,0.29 0.57,0.69 0.59,1.21l-1.45 0c-0.01,-0.18 -0.08,-0.32 -0.2,-0.42 -0.12,-0.1 -0.27,-0.15 -0.46,-0.15 -0.16,0 -0.29,0.04 -0.39,0.13 -0.1,0.09 -0.15,0.21 -0.15,0.37 0,0.18 0.08,0.32 0.25,0.41 0.17,0.1 0.43,0.21 0.78,0.32 0.35,0.12 0.64,0.23 0.86,0.34 0.22,0.11 0.41,0.27 0.58,0.48 0.16,0.21 0.24,0.48 0.24,0.81 0,0.31 -0.08,0.6 -0.24,0.85 -0.16,0.26 -0.39,0.46 -0.69,0.61 -0.3,0.15 -0.66,0.23 -1.07,0.23zm2.6 -2.81c0,-0.54 0.12,-1.03 0.35,-1.45 0.23,-0.43 0.56,-0.76 0.98,-0.99 0.42,-0.24 0.9,-0.36 1.43,-0.36 0.65,0 1.21,0.17 1.68,0.52 0.46,0.34 0.77,0.81 0.93,1.41l-1.47 0c-0.11,-0.23 -0.26,-0.4 -0.47,-0.52 -0.2,-0.12 -0.43,-0.18 -0.68,-0.18 -0.41,0 -0.75,0.14 -1,0.43 -0.26,0.29 -0.38,0.67 -0.38,1.15 0,0.48 0.13,0.86 0.38,1.15 0.26,0.29 0.59,0.43 1,0.43 0.26,0 0.48,-0.06 0.68,-0.18 0.2,-0.12 0.36,-0.29 0.47,-0.52l1.47 0c-0.16,0.59 -0.47,1.06 -0.93,1.41 -0.46,0.34 -1.02,0.51 -1.68,0.51 -0.53,0 -1.01,-0.12 -1.43,-0.36 -0.42,-0.24 -0.75,-0.57 -0.98,-0.99 -0.23,-0.42 -0.35,-0.91 -0.35,-1.45zm8.79 2.81c-0.52,0 -0.99,-0.12 -1.42,-0.36 -0.43,-0.24 -0.77,-0.58 -1.03,-1.01 -0.25,-0.43 -0.38,-0.91 -0.38,-1.45 0,-0.54 0.13,-1.02 0.38,-1.45 0.25,-0.43 0.59,-0.76 1.03,-1 0.43,-0.24 0.9,-0.36 1.42,-0.36 0.52,0 0.99,0.12 1.42,0.36 0.43,0.24 0.77,0.57 1.02,1 0.25,0.43 0.37,0.91 0.37,1.45 0,0.54 -0.13,1.02 -0.38,1.45 -0.25,0.43 -0.59,0.77 -1.02,1.01 -0.43,0.24 -0.9,0.36 -1.42,0.36zm0 -1.22c0.44,0 0.79,-0.15 1.05,-0.44 0.26,-0.29 0.4,-0.68 0.4,-1.16 0,-0.49 -0.13,-0.87 -0.4,-1.16 -0.26,-0.29 -0.61,-0.43 -1.05,-0.43 -0.44,0 -0.8,0.14 -1.06,0.43 -0.26,0.29 -0.4,0.68 -0.4,1.17 0,0.49 0.13,0.87 0.4,1.16 0.26,0.29 0.62,0.43 1.06,0.43zm6.36 1.17l-1.14 -2.07 -0.32 0 0 2.07 -1.34 0 0 -5.5 2.25 0c0.43,0 0.8,0.08 1.11,0.23 0.31,0.15 0.53,0.36 0.68,0.62 0.15,0.26 0.23,0.56 0.23,0.88 0,0.37 -0.1,0.69 -0.31,0.98 -0.21,0.29 -0.51,0.49 -0.91,0.61l1.27 2.18 -1.51 0zm-1.46 -3.02l0.83 0c0.25,0 0.43,-0.06 0.55,-0.18 0.12,-0.12 0.18,-0.29 0.18,-0.51 0,-0.21 -0.06,-0.37 -0.18,-0.49 -0.12,-0.12 -0.31,-0.18 -0.55,-0.18l-0.83 0 0 1.36zm5.1 -1.4l0 1.11 1.79 0 0 1.03 -1.79 0 0 1.21 2.03 0 0 1.07 -3.37 0 0 -5.5 3.37 0 0 1.07 -2.03 0z"/>
   </g>
  </g>
 </g>
</svg>
