<svg xmlns="http://www.w3.org/2000/svg" xmlnsXlink="http://www.w3.org/1999/xlink" xmlnsSvgjs="http://svgjs.com/svgjs" version="1.1" width="512" height="512" x="0" y="0" viewBox="0 0 512 512" style="enable-background:new 0 0 512 512" xmlSpace="preserve" class=""><g>
<g xmlns="http://www.w3.org/2000/svg">
	<g>
		<path d="M482,71h-29.838v-7.405c0-20.178-16.417-36.595-36.595-36.595c-20.178,0-36.594,16.417-36.594,36.595V71h-86.378v-7.405    C292.595,43.417,276.178,27,256,27c-20.178,0-36.595,16.417-36.595,36.595V71h-86.378v-7.405C133.027,43.417,116.611,27,96.433,27    c-20.178,0-36.595,16.417-36.595,36.595V71H30C13.458,71,0,84.458,0,101v374c0,5.523,4.477,10,10,10h492c5.523,0,10-4.477,10-10    V101C512,84.458,498.542,71,482,71z M398.973,63.595c0-9.15,7.444-16.595,16.594-16.595c9.15,0,16.595,7.444,16.595,16.595V71    h-33.189V63.595z M256,47c9.15,0,16.595,7.444,16.595,16.595V71h-33.189v-7.405h-0.001C239.405,54.444,246.85,47,256,47z     M79.838,63.595c0-9.15,7.444-16.595,16.595-16.595c9.15,0,16.594,7.444,16.594,16.595V71H79.838V63.595z M492,157.757H96.433    c-5.523,0-10,4.477-10,10c0,5.523,4.477,10,10,10H492V425h-95.5c-5.523,0-10,4.477-10,10s4.477,10,10,10H492v20H20V101    c0-5.514,4.486-10,10-10h83.027v9.348c0,9.15-7.444,16.595-16.594,16.595c-5.523,0-10,4.477-10,10s4.477,10,10,10    c20.178,0,36.594-16.417,36.594-36.595V91h139.568v9.348c0,9.15-7.444,16.595-16.595,16.595c-5.523,0-10,4.477-10,10    s4.477,10,10,10c20.178,0,36.595-16.417,36.595-36.595V91h139.567v9.348c0,9.15-7.444,16.595-16.595,16.595    c-5.523,0-10,4.477-10,10s4.477,10,10,10c20.178,0,36.595-16.417,36.595-36.595V91H482c5.514,0,10,4.486,10,10V157.757z" fill="#fb4848" data-original="#000000" style="" class=""/>
	</g>
</g>
<g xmlns="http://www.w3.org/2000/svg">
	<g>
		<path d="M63.07,160.69c-1.86-1.87-4.44-2.93-7.07-2.93s-5.21,1.06-7.07,2.93c-1.86,1.86-2.93,4.43-2.93,7.07    c0,2.63,1.07,5.21,2.93,7.07c1.86,1.86,4.44,2.93,7.07,2.93s5.21-1.07,7.07-2.93c1.86-1.86,2.93-4.44,2.93-7.07    C66,165.12,64.93,162.55,63.07,160.69z" fill="#fb4848" data-original="#000000" style="" class=""/>
	</g>
</g>
<g xmlns="http://www.w3.org/2000/svg">
	<g>
		<path d="M423.546,311.192c-7.572,0-13.732-5.176-13.732-11.538s6.16-11.538,13.732-11.538h12.759c5.523,0,10-4.477,10-10    s-4.477-10-10-10h-12.759c-18.6,0-33.732,14.148-33.732,31.538c0,17.39,15.132,31.538,33.732,31.538    c7.572,0,13.732,5.176,13.732,11.538s-6.16,11.538-13.732,11.538h-23.732c-5.523,0-10,4.477-10,10s4.477,10,10,10h23.732    c18.6,0,33.732-14.148,33.732-31.538C457.278,325.34,442.146,311.192,423.546,311.192z" fill="#fb4848" data-original="#000000" style="" class=""/>
	</g>
</g>
<g xmlns="http://www.w3.org/2000/svg">
	<g>
		<path d="M118.175,269.473H64.722c-5.523,0-10,4.477-10,10s4.477,10,10,10h16.727v74.795c0,5.523,4.477,10,10,10    c5.523,0,10-4.477,10-10v-74.795h16.727c5.523,0,10-4.477,10-10S123.698,269.473,118.175,269.473z" fill="#fb4848" data-original="#000000" style="" class=""/>
	</g>
</g>
<g xmlns="http://www.w3.org/2000/svg">
	<g>
		<path d="M218.505,360.366l-35.743-84.159c-1.568-3.693-5.192-6.091-9.204-6.091c-4.012,0-7.636,2.398-9.204,6.091l-35.744,84.159    c-2.159,5.083,0.211,10.955,5.295,13.113c5.082,2.157,10.954-0.211,13.113-5.295l6.392-15.05h40.295l6.392,15.05    c1.617,3.808,5.317,6.094,9.208,6.093c1.304,0,2.629-0.256,3.905-0.798C218.293,371.32,220.664,365.449,218.505,360.366z     M161.905,333.134l11.653-27.437l11.653,27.437H161.905z" fill="#fb4848" data-original="#000000" style="" class=""/>
	</g>
</g>
<g xmlns="http://www.w3.org/2000/svg">
	<g>
		<path d="M276.916,321.89l23.511-37.071c2.958-4.665,1.575-10.843-3.089-13.801s-10.843-1.575-13.801,3.089l-18.463,29.112    l-18.463-29.112c-2.958-4.664-9.137-6.048-13.801-3.089c-4.664,2.958-6.047,9.137-3.089,13.801l23.511,37.071l-23.511,37.071    c-2.958,4.664-1.575,10.843,3.089,13.801c1.662,1.054,3.515,1.557,5.347,1.557c3.311,0,6.55-1.643,8.454-4.646l18.463-29.112    l18.463,29.112c1.904,3.003,5.144,4.646,8.454,4.646c1.832,0,3.686-0.503,5.347-1.557c4.664-2.958,6.047-9.137,3.089-13.801    L276.916,321.89z" fill="#fb4848" data-original="#000000" style="" class=""/>
	</g>
</g>
<g xmlns="http://www.w3.org/2000/svg">
	<g>
		<path d="M365.66,354.316h-24.827V331.89h10.539c5.523,0,10-4.477,10-10s-4.477-10-10-10h-10.539v-22.427h24.827v-0.001    c5.523,0,10-4.477,10-10s-4.477-10-10-10h-34.827c-5.523,0-10,4.477-10,10v84.854c0,5.523,4.477,10,10,10h34.827    c5.523,0,10-4.477,10-10S371.183,354.316,365.66,354.316z" fill="#fb4848" data-original="#000000" style="" class=""/>
	</g>
</g>
<g xmlns="http://www.w3.org/2000/svg">
	<g>
		<path d="M365.39,427.93c-1.87-1.86-4.44-2.93-7.08-2.93c-2.63,0-5.2,1.07-7.07,2.93c-1.86,1.86-2.93,4.44-2.93,7.07    s1.07,5.21,2.93,7.07c1.87,1.86,4.44,2.93,7.07,2.93c2.64,0,5.21-1.07,7.08-2.93c1.86-1.86,2.92-4.44,2.92-7.07    S367.25,429.79,365.39,427.93z" fill="#fb4848" data-original="#000000" style="" class=""/>
	</g>
</g>
<g xmlns="http://www.w3.org/2000/svg">
</g>
<g xmlns="http://www.w3.org/2000/svg">
</g>
<g xmlns="http://www.w3.org/2000/svg">
</g>
<g xmlns="http://www.w3.org/2000/svg">
</g>
<g xmlns="http://www.w3.org/2000/svg">
</g>
<g xmlns="http://www.w3.org/2000/svg">
</g>
<g xmlns="http://www.w3.org/2000/svg">
</g>
<g xmlns="http://www.w3.org/2000/svg">
</g>
<g xmlns="http://www.w3.org/2000/svg">
</g>
<g xmlns="http://www.w3.org/2000/svg">
</g>
<g xmlns="http://www.w3.org/2000/svg">
</g>
<g xmlns="http://www.w3.org/2000/svg">
</g>
<g xmlns="http://www.w3.org/2000/svg">
</g>
<g xmlns="http://www.w3.org/2000/svg">
</g>
<g xmlns="http://www.w3.org/2000/svg">
</g>
</g></svg>
