<?xml version="1.0"?>
<svg xmlns="http://www.w3.org/2000/svg" xmlnsXlink="http://www.w3.org/1999/xlink" xmlnsSvgjs="http://svgjs.com/svgjs" version="1.1" width="512" height="512" x="0" y="0" viewBox="0 0 512 512" style="enable-background:new 0 0 512 512" xmlSpace="preserve" class=""><g>
<g xmlns="http://www.w3.org/2000/svg">
	<g>
		<path d="M108.787,366.496c-34.028,0-61.713,27.685-61.713,61.713s27.685,61.713,61.713,61.713    c34.028,0,61.713-27.685,61.713-61.713S142.815,366.496,108.787,366.496z M108.787,474.923c-25.758,0-46.713-20.955-46.713-46.713    c0-25.758,20.955-46.713,46.713-46.713c25.758,0,46.713,20.955,46.713,46.713C155.5,453.967,134.545,474.923,108.787,474.923z" fill="#fb4848" data-original="#000000" style=""/>
	</g>
</g>
<g xmlns="http://www.w3.org/2000/svg">
	<g>
		<path d="M108.787,395.722c-17.914,0-32.488,14.574-32.488,32.488s14.574,32.488,32.488,32.488s32.488-14.574,32.488-32.488    S126.701,395.722,108.787,395.722z M108.787,445.697c-9.644,0-17.488-7.845-17.488-17.488s7.845-17.488,17.488-17.488    s17.488,7.845,17.488,17.488S118.431,445.697,108.787,445.697z" fill="#fb4848" data-original="#000000" style=""/>
	</g>
</g>
<g xmlns="http://www.w3.org/2000/svg">
	<g>
		<path d="M397.808,395.722c-17.914,0-32.488,14.574-32.488,32.488s14.574,32.488,32.488,32.488s32.488-14.574,32.488-32.488    S415.722,395.722,397.808,395.722z M397.808,445.697c-9.644,0-17.488-7.845-17.488-17.488s7.845-17.488,17.488-17.488    s17.488,7.845,17.488,17.488S407.451,445.697,397.808,445.697z" fill="#fb4848" data-original="#000000" style=""/>
	</g>
</g>
<g xmlns="http://www.w3.org/2000/svg">
	<g>
		<path d="M397.808,366.496c-34.028,0-61.713,27.685-61.713,61.713s27.685,61.713,61.713,61.713s61.713-27.685,61.713-61.713    S431.836,366.496,397.808,366.496z M397.808,474.923c-25.758,0-46.713-20.955-46.713-46.713c0-25.758,20.955-46.713,46.713-46.713    c25.758,0,46.713,20.955,46.713,46.713C444.521,453.967,423.565,474.923,397.808,474.923z" fill="#fb4848" data-original="#000000" style=""/>
	</g>
</g>
<g xmlns="http://www.w3.org/2000/svg">
	<g>
		<rect x="93.67" y="290.02" width="48" height="15" fill="#fb4848" data-original="#000000" style=""/>
	</g>
</g>
<g xmlns="http://www.w3.org/2000/svg">
	<g>
		<rect x="168.5" y="338.28" width="44.5" height="15" fill="#fb4848" data-original="#000000" style=""/>
	</g>
</g>
<g xmlns="http://www.w3.org/2000/svg">
	<g>
		<path d="M300.603,22.078c-16.756,0-32.859,6.789-44.604,18.502c-11.744-11.713-27.848-18.502-44.604-18.502    c-34.771,0-63.058,28.287-63.058,63.058c0.002,21.091,17.645,48.363,52.442,81.061c25.121,23.605,49.824,41.253,50.863,41.992    l4.349,3.095l4.349-3.095c1.039-0.739,25.746-18.387,50.872-41.992c34.803-32.697,52.449-59.971,52.449-81.061    C363.661,50.365,335.374,22.078,300.603,22.078z M255.992,192.814c-29.448-21.727-92.652-75.129-92.652-107.677    c-0.001-26.499,21.557-48.058,48.056-48.058c15.347,0,29.41,7.074,38.586,19.41l6.018,8.09l6.018-8.09    c9.176-12.336,23.239-19.41,38.586-19.41c26.499,0,48.058,21.559,48.058,48.058C348.662,117.685,285.446,171.087,255.992,192.814z    " fill="#fb4848" data-original="#000000" style=""/>
	</g>
</g>
<g xmlns="http://www.w3.org/2000/svg">
	<g>
		<path d="M309.234,110.131c-2.796,3.482-5.983,7.163-9.475,10.938l11.014,10.184c3.726-4.03,7.143-7.978,10.158-11.731    L309.234,110.131z" fill="#fb4848" data-original="#000000" style=""/>
	</g>
</g>
<g xmlns="http://www.w3.org/2000/svg">
	<g>
		<path d="M293.022,128.1c-2.873,2.9-5.968,5.91-9.199,8.946c-6.423,6.034-13.469,12.247-20.941,18.465l9.594,11.531    c7.702-6.41,14.975-12.824,21.618-19.064c3.361-3.158,6.586-6.295,9.584-9.321L293.022,128.1z" fill="#fb4848" data-original="#000000" style=""/>
	</g>
</g>
<g xmlns="http://www.w3.org/2000/svg">
	<g>
		<path d="M321.788,90.84c-1.549,3.461-3.855,7.401-6.855,11.711l12.311,8.57c3.534-5.078,6.305-9.84,8.235-14.154L321.788,90.84z" fill="#fb4848" data-original="#000000" style=""/>
	</g>
</g>
<g xmlns="http://www.w3.org/2000/svg">
	<g>
		<rect x="374.33" y="338.28" width="15" height="15" fill="#fb4848" data-original="#000000" style=""/>
	</g>
</g>
<g xmlns="http://www.w3.org/2000/svg">
	<g>
		<rect x="399.33" y="338.28" width="15" height="15" fill="#fb4848" data-original="#000000" style=""/>
	</g>
</g>
<g xmlns="http://www.w3.org/2000/svg">
	<g>
		<rect x="276" y="338.28" width="88.33" height="15" fill="#fb4848" data-original="#000000" style=""/>
	</g>
</g>
<g xmlns="http://www.w3.org/2000/svg">
	<g>
		<path d="M465.935,313.28H366.15l-68.853-64.979c-5.217-4.923-12.029-7.486-19.208-7.218c-7.168,0.271-13.777,3.339-18.609,8.642    l-10.589,11.618l55.025,52.103L29.41,313.291L0,342.686v69.794l25.644,25.644h13.992v-15h-7.779L15,406.267v-7.395h27.5v-49.75H15    V348.9l20.617-20.605l305.979,0.171l-71.705-67.897l0.675-0.741c2.101-2.305,4.973-3.638,8.088-3.756    c3.118-0.101,6.08,0.997,8.349,3.137l73.188,69.071h99.532l6.455,6.455H441.5v29.415l12.917,12.918H497v11.656h-30.667v15H497    v2.542l-16.856,16.856h-8.185v15h14.397L512,412.48v-53.135L465.935,313.28z M27.5,364.121v19.75H15v-19.75H27.5z M460.63,362.069    l-4.13-4.13v-8.203h24.677l10.609,10.608l1.725,1.725H460.63z" fill="#fb4848" data-original="#000000" style=""/>
	</g>
</g>
<g xmlns="http://www.w3.org/2000/svg">
	<g>
		<rect x="182.94" y="423.121" width="140.72" height="15" fill="#fb4848" data-original="#000000" style=""/>
	</g>
</g>
<g xmlns="http://www.w3.org/2000/svg">
	<g>
		<path d="M204.306,272.557c-4.122-21.337-22.887-36.823-44.618-36.823h-0.427c-5.029,0-9.75,2.225-12.952,6.104    c-3.201,3.879-4.489,8.936-3.536,13.873l1.799,9.312H84.181l-34.91,34.909l10.607,10.607l30.516-30.518h57.073l5.267,27.266    l14.729-2.846l-9.963-51.577c-0.133-0.685,0.132-1.183,0.377-1.479c0.245-0.296,0.685-0.651,1.383-0.651h0.427    c14.559,0,27.129,10.375,29.89,24.668l6.163,31.909l14.729-2.844L204.306,272.557z" fill="#fb4848" data-original="#000000" style=""/>
	</g>
</g>
<g xmlns="http://www.w3.org/2000/svg">
</g>
<g xmlns="http://www.w3.org/2000/svg">
</g>
<g xmlns="http://www.w3.org/2000/svg">
</g>
<g xmlns="http://www.w3.org/2000/svg">
</g>
<g xmlns="http://www.w3.org/2000/svg">
</g>
<g xmlns="http://www.w3.org/2000/svg">
</g>
<g xmlns="http://www.w3.org/2000/svg">
</g>
<g xmlns="http://www.w3.org/2000/svg">
</g>
<g xmlns="http://www.w3.org/2000/svg">
</g>
<g xmlns="http://www.w3.org/2000/svg">
</g>
<g xmlns="http://www.w3.org/2000/svg">
</g>
<g xmlns="http://www.w3.org/2000/svg">
</g>
<g xmlns="http://www.w3.org/2000/svg">
</g>
<g xmlns="http://www.w3.org/2000/svg">
</g>
<g xmlns="http://www.w3.org/2000/svg">
</g>
</g></svg>
